<?xml version="1.0" encoding="UTF-8"?>
<svg id="Hawaii" xmlns="http://www.w3.org/2000/svg" baseProfile="tiny" version="1.2" viewBox="0 0 720 467">
  <!-- Generator: Adobe Illustrator 30.2.1, SVG Export Plug-In . SVG Version: 2.1.1 Build 1)  -->
  <polygon points="449.37 194.51 448.54 194.15 446.86 192.94 440.09 186.56 424.87 187.42 421.03 189.71 423.79 194.15 428.34 196.73 429.66 198.31 430.09 201.25 430.17 204.68 430.49 207.91 431.6 210.49 433.68 212.42 439.19 212.99 444.82 211.42 449.58 207.91 452.66 203.75 453.88 201.25 453.95 199.88 453.13 198.31 449.37 194.51" fill="#231f20"/>
  <polygon points="22.24 34.12 20.77 34.76 19.16 36.41 16.29 40.14 14.86 41.78 13 43.07 12.67 44.72 8.59 45.94 3.9 52.67 2.25 56.47 1.5 60.62 2.47 63.85 5.65 65.07 7.09 65.07 8.27 64.78 9.02 63.85 9.7 59.62 10.63 57.76 15.07 52.31 16.29 51.67 18.76 51.67 20.48 51.38 23.06 49.45 24.6 48.8 23.67 45.01 24.17 41.5 25.75 38.56 28.11 36.41 26.43 34.41 22.24 34.12" fill="#231f20"/>
  <polygon points="487.19 233.48 485.15 231.55 482.57 231.91 480.1 233.13 476.09 236.35 471.22 238.28 469.31 239.57 467.99 242.15 472.04 244.66 473.83 245.02 476.94 243.44 478.34 243.08 484 243.08 487.01 242.72 488.69 241.15 486.97 239.86 487.19 233.48" fill="#231f20"/>
  <polygon points="125.18 14.64 124.46 13.38 123.89 11.77 123.75 10.16 122.92 8.26 121.09 6.33 118.91 4.71 115.58 3.78 114.15 2.82 112.82 2.21 111.57 2.82 110.64 3.46 109.27 4.1 99.03 5.39 98.03 5.72 96.2 4.39 94.12 3.46 92.08 3.14 90.33 4.39 87.96 5.03 80.69 8.9 70.52 15.57 70.2 15.89 69.3 16.57 69.09 17.5 69.09 18.83 68.8 19.76 63.54 26.45 62 27.74 61.1 29 62.32 32.19 64.11 35.12 65.11 35.7 65.79 38.27 67.44 39.28 69.62 39.85 71.88 41.5 74.1 42.14 77.29 42.14 80.16 42.43 82.13 45.94 85.71 49.45 86.75 50.74 87.68 50.74 90.72 49.81 96.81 50.1 102.86 51.67 105.8 54.61 112.96 49.81 120.2 43.07 119.63 41.5 119.73 40.85 120.56 40.5 121.99 41.14 122.13 38.56 121.99 35.7 121.63 33.19 121.06 31.25 125.72 22.94 127.15 17.21 127.15 15.57 126 14.96 125.18 14.64" fill="#231f20"/>
  <polygon points="338.29 128.97 336.43 127.1 335.82 124.24 335.86 121.66 335.39 120.08 333.28 119.08 331.24 118.22 331.63 115.57 332.96 113.06 333.75 112.06 327.33 112.06 325.58 112.7 329.16 115.21 326.83 116.21 325.36 116.57 324.65 115.93 324.11 115.93 321.07 112.7 319.35 111.13 317.98 109.19 315.69 103.75 316.63 103.75 317.05 104.04 317.59 104.75 317.59 102.17 317.38 99.95 316.55 98.31 313.26 96.08 310.89 92.57 308.85 88.78 308.53 86.56 307.13 83.98 305.59 81.69 303.66 79.82 301.26 78.82 300.97 78.25 300.58 77.89 300.36 77.53 300.36 76.6 292.48 80.75 290.48 82.69 289.26 85.27 288.26 86.84 287.29 87.42 286.21 87.78 282.31 90.35 281.67 91.64 281.67 92.86 281.2 93.86 279.2 94.15 277.76 93.86 275.22 93.58 267.95 92.86 264.97 93.22 262.54 94.15 261.29 96.73 266.12 100.88 265.69 103.46 264.65 106.33 266.01 109.19 268.24 111.49 269.77 112.7 271.21 114.35 273.72 119.08 275.54 121.66 276.65 122.3 278.69 123.23 279.63 123.88 280.16 124.88 282.81 134.41 283.53 134.7 284.14 135.41 284.75 135.7 286 134.7 287.61 133.84 293.81 132.83 296.67 132.83 299.54 133.84 299.93 129.61 298.21 127.39 295.6 126.1 293.16 123.88 295.74 123.88 298.82 125.17 300.44 124.88 298.57 121.01 300.54 122.3 301.26 123.23 302.3 122.3 303.41 122.3 304.34 122.95 304.95 123.88 304.73 125.81 303.52 126.39 302.12 126.74 301.26 128.11 301.9 130.97 304.55 131.54 307.53 130.97 309.35 128.68 312.15 130.25 313.37 131.26 314.69 132.83 314.08 134.12 315.41 135.41 319.24 137.28 321.14 139.28 322 139.57 324.22 139.57 327.23 138.56 330.7 137.28 333.75 136.99 335.53 139.57 337.54 137.71 344.53 132.83 342.52 130.97 338.29 128.97" fill="#231f20"/>
  <polygon points="560.22 214.93 561.87 209.56 559.9 204.68 552.38 200.6 550.48 199.88 544.53 199.03 543.39 197.74 542.63 194.51 541.78 193.29 537.12 192.29 534.18 191.57 532.89 189.71 532.1 188.42 530.28 186.56 528.2 184.98 526.48 185.56 526.23 184.98 525.84 184.56 524.83 184.56 523.08 183.98 520.89 183.34 518.67 183.34 516.63 183.62 514.55 184.27 510.36 187.42 508.89 187.85 505.03 188.14 503.09 188.42 501.02 189.43 499.37 190.29 497.75 190.64 495.89 189.43 492.13 180.4 491.2 178.82 490.12 177.53 484.93 172.09 483.29 171.16 481.24 169.58 480.13 169.22 479.67 170.51 479.2 171.52 477.02 171.52 476.09 171.16 475.91 172.09 475.37 173.81 475.26 175.03 474.65 174.67 473.04 174.38 472.4 174.02 471.82 177.25 467.06 187.42 475.8 200.24 476.55 200.89 477.55 201.25 480.63 202.46 483.07 204.04 486.87 205.69 488.55 205.69 489.73 205.33 490.88 205.04 492.24 204.68 495.46 204.68 496.93 205.04 497.65 206.05 498.08 209.2 498.54 210.77 499.08 211.42 500.3 212.42 501.02 215.21 501.41 226.82 502.88 231.55 506.24 234.41 512.08 234.41 514.55 233.13 515.99 232.48 516.63 232.84 517.31 233.84 518.78 233.84 523.72 232.84 531.07 227.68 533.64 227.1 536.01 227.39 538.55 228.4 541.35 228.68 543.82 228.04 552.7 222.95 556.6 219.37 560.22 214.93" fill="#231f20"/>
  <polygon points="465.52 153.97 461.65 152.96 458.97 152.96 457.89 152.61 457.14 152.03 456.49 151.67 455.42 151.67 453.27 153.61 452.23 153.97 443.2 153.97 440.52 153.32 438.76 152.32 435.61 148.88 433.14 146.88 432.85 147.59 433.03 149.17 431.92 151.03 429.95 151.03 425.37 149.45 423.33 148.88 405.85 148.16 404.23 146.88 402.8 145.3 401.34 144.37 399.94 144.65 398.68 145.3 397.14 145.3 395.75 145.01 394.92 144.37 394.71 146.88 395.1 148.88 394.71 151.03 392.34 153.97 391.09 154.9 389.66 156.76 388.62 158.77 388.65 161.63 390.16 163.49 392.74 164.5 395.6 164.5 398.15 162.85 400.29 162.2 408.46 162.49 419.71 161.63 422.68 161.92 435.47 167.36 440.66 168.94 445.78 169.22 450.87 168.36 455.81 166.07 460.76 163.49 464.84 159.34 467.06 153.97 465.52 153.97" fill="#231f20"/>
  <polygon points="708.61 373.74 701.85 369.87 696.51 364.43 695.69 362.57 694.61 355.48 694 353.26 692.39 352.04 689.2 351.68 683.9 352.61 682.47 352.04 681.5 348.82 681.5 338 681.07 334.77 679.89 332.55 668.78 320.09 664.38 316.51 647.18 307.62 632.89 301.89 627.06 300.61 622.22 297.67 619.29 296.45 617.92 296.74 616.63 297.67 615.24 298.02 613.52 297.02 611.87 295.45 610.87 294.8 608.32 293.87 604.89 290.72 597.04 287.49 596.22 286.85 595.9 285.56 595.75 284.27 595.29 282.98 594.57 282.41 590.88 281.69 583.29 278.18 579.06 277.54 575.8 281.41 573.87 286.49 573.4 290.72 574.58 296.02 576.81 300.61 583.29 308.84 583.75 309.48 585.15 312.07 585.11 314.64 583.9 316.51 579.71 319.73 578.85 320.66 573.83 328.4 572.51 329.97 569.86 334.77 564.38 336.71 562.48 338.29 561.76 340.86 560.58 342.08 557.86 344.02 555.06 346.59 553.52 349.75 554.24 355.83 556.92 359.99 560.4 364.15 563.48 368.95 564.63 371.81 565.45 374.68 566.02 377.54 566.17 380.69 566.38 382.05 567.99 386.85 568.42 387.14 570.18 386.85 570.64 386.85 570.75 387.79 570.57 389 570.64 389.72 573.76 401.18 575.55 404.4 576.09 405.98 576.02 406.91 572.61 429.33 572.51 440.87 573.15 443.73 574.76 444.95 576.3 445.59 576.91 447.46 577.24 449.1 577.95 450.68 583.29 450.68 588.3 452.04 593.64 454.19 598.26 457.13 601.23 459.99 603.56 463.79 603.6 464.79 605.21 464.07 607.61 461.57 609.01 460.92 610.83 459.64 616.63 451.33 618.57 443.73 619.79 441.44 625.52 436 627.49 435.42 634.15 431.55 636.08 430.26 639.24 426.76 641.1 425.46 643.25 424.82 644.89 424.25 649.12 420.02 652.27 417.8 653.92 417.16 656.28 416.51 666.67 416.8 668.93 415.58 677.92 413.65 682.47 411.07 685.01 410.13 688.31 409.85 690.56 409.2 702.24 398.6 703.24 397.02 714.02 391.01 715.67 388.71 717.1 385.85 718.14 382.7 718.5 379.83 708.61 373.74" fill="#231f20"/>
</svg>