<?xml version="1.0" encoding="UTF-8"?>
<svg id="Layer_1" xmlns="http://www.w3.org/2000/svg" baseProfile="tiny" version="1.2" viewBox="0 0 512 405.75">
  <!-- Generator: Adobe Illustrator 30.2.1, SVG Export Plug-In . SVG Version: 2.1.1 Build 1)  -->
  <polygon points="495.87 96.5 490.33 86.82 485.9 74.36 484.8 61.92 478.44 47.25 464.32 32.31 447.44 19.86 421.72 12.67 410.65 5.2 400.41 .5 390.73 5.2 383.53 10.18 373.02 15.16 293.9 25.12 286.16 27.61 272.05 17.37 256 10.18 240.23 7.69 226.67 17.37 208.41 22.35 152.25 52.23 73.69 103.7 71.19 106.18 64.28 111.45 62.61 118.64 62.61 128.87 60.4 136.06 19.73 187.79 7.83 197.76 .92 207.44 10.32 232.06 24.16 254.75 31.91 259.18 37.16 279.09 49.89 286.84 66.77 291.27 84.2 304 101.35 308.98 125.97 308.98 148.1 311.19 163.32 338.3 190.99 365.41 199.01 375.37 206.21 375.37 229.71 368.18 276.75 370.4 323.5 382.57 346.19 405.25 401.52 368.18 457.41 316.17 452.98 304 453.81 299.01 460.17 296.25 471.24 301.23 472.34 281.31 471.24 259.18 468.48 239.81 464.04 224.87 500.01 160.68 511.08 116.42 511.08 103.7 502.23 98.99 495.87 96.5" fill="#231f20"/>
</svg>