<svg xmlns="http://www.w3.org/2000/svg" viewBox="686.305 324.244 128.757 128.757">
  <rect fill="white" x="686.305" y="324.244" width="128.757" height="128.757"/>
  <path fill="#239ddb" d="m 718.31301,344.84758 0.38826,0.77651 1.35888,0.87356 0.58238,39.79588 0.19413,21.8392 4.95021,29.89545 0.38826,-0.0971 4.36784,0.87357 1.16475,-8.63862 1.94127,4.85316 3.30014,3.00896 6.30911,-3.6884 -0.67945,-0.58238 0.19413,0.0971 -4.36784,-9.9975 41.93127,-6.79442 2.81483,-0.48531 0,-0.0971 -2.62071,-4.95022 -0.19412,-7.0856 -2.13539,-3.88253 1.06769,-7.57092 1.74714,-1.94126 -7.18267,-12.81234 -13.00646,-39.60175 -0.0971,-0.19413 -2.9119,0.48532 -15.5301,2.52364 -7.76504,0.97063 -16.30661,2.23245 0.0971,0.19413 z"/>
</svg>
