<svg xmlns="http://www.w3.org/2000/svg" viewBox="242.128 282.637 158.2 158.2">
  <rect fill="white" x="242.128" y="282.637" width="158.2" height="158.2"/>
  <path fill="#239ddb" d="m 372.18593,309.90486 -32.71027,-4.07665 -17.56843,-2.52365 -25.04228,-3.97958 -2.52364,-0.38826 0,0.19413 -4.27078,18.83025 -2.23245,-0.0971 -3.39721,-3.00895 -4.27078,3.59133 -0.0971,15.43304 -1.55301,3.30014 0,0.29119 0,0.0971 -0.19413,2.42657 3.39721,9.12394 3.00896,4.07665 -5.43554,3.20308 -2.13539,3.97959 -3.49427,8.54155 -1.74713,0.38826 -0.0971,7.0856 3.00896,2.23246 -1.55301,4.27077 -3.49427,0.19413 0,0 -2.03833,3.78546 6.98855,4.36784 13.20058,7.3768 40.76651,21.64507 34.55447,4.27078 0.38825,0 2.71777,-28.63362 0.67944,-7.08561 7.27974,-75.12685 0.38825,-3.49427 -2.52364,-0.29119 z"/>
</svg>
