<?xml version="1.0" encoding="UTF-8"?>
<svg id="Layer_1" xmlns="http://www.w3.org/2000/svg" baseProfile="tiny" version="1.2" viewBox="0 0 512.0 512.0">
  <rect width="512.0" height="512.0" rx="30" fill="#ffffff"/>
  <g transform="translate(53.653,25.6) scale(0.9)">

  <!-- Generator: Adobe Illustrator 30.2.1, SVG Export Plug-In . SVG Version: 2.1.1 Build 1)  -->
  <polygon points="422.72 263.03 404.27 252.48 389.72 237.65 387.48 232.57 384.55 213.24 382.89 207.19 378.49 203.87 369.8 202.89 355.35 205.43 351.45 203.87 348.81 195.08 348.81 165.6 347.64 156.81 344.42 150.76 314.15 116.79 302.16 107.02 255.28 82.81 216.34 67.19 200.42 63.68 187.24 55.67 179.24 52.36 175.53 53.14 172.02 55.67 168.21 56.65 163.53 53.91 159.04 49.62 156.3 47.87 149.36 45.33 140 36.74 118.61 27.95 116.37 26.19 115.49 22.68 115.1 19.16 113.83 15.65 111.88 14.09 101.82 12.13 81.13 2.56 69.61 .81 60.72 11.35 55.45 25.21 54.18 36.74 57.4 51.18 63.46 63.68 81.13 86.13 82.39 87.88 86.21 94.92 86.1 101.95 82.79 107.02 71.36 115.81 69.02 118.34 55.35 139.44 51.74 143.73 44.52 156.81 29.58 162.09 24.41 166.39 22.45 173.41 19.23 176.73 11.81 182 4.19 189.03 0 197.62 1.95 214.21 9.27 225.55 18.75 236.87 27.15 249.95 30.26 257.76 32.51 265.57 34.07 273.38 34.46 281.97 35.05 285.68 39.44 298.76 40.61 299.54 45.39 298.76 46.67 298.76 46.96 301.3 46.47 304.62 46.67 306.57 55.16 337.82 60.04 346.59 61.5 350.89 61.31 353.43 52.03 414.54 51.74 445.98 53.5 453.79 57.9 457.11 62.09 458.86 63.75 463.94 64.63 468.43 66.58 472.73 81.13 472.73 94.79 476.44 109.34 482.3 121.93 490.3 130.04 498.11 136.39 508.46 136.48 511.19 140.88 509.23 147.42 502.4 151.23 500.65 156.2 497.14 172.02 474.49 177.29 453.79 180.61 447.54 196.22 432.7 201.59 431.14 219.75 420.59 225.03 417.08 233.62 407.52 238.7 404 244.55 402.24 249.04 400.68 260.56 389.16 269.15 383.11 273.64 381.35 280.08 379.6 308.4 380.37 314.55 377.05 339.05 371.79 351.45 364.75 358.38 362.22 367.36 361.43 373.52 359.68 405.34 330.78 408.08 326.48 437.46 310.08 441.95 303.83 445.85 296.02 448.69 287.43 449.66 279.62 422.72 263.03" fill="#239ddb"/>

  </g>
</svg>