<svg xmlns="http://www.w3.org/2000/svg" viewBox="83.156 138.562 268.722 268.722">
  <rect fill="white" x="83.156" y="138.562" width="268.722" height="268.722"/>
  <path fill="#239ddb" d="m 206.01387,363.77489 0.38825,2.13539 0,0.38825 -0.38825,-2.52364 z m -14.26828,-8.34743 0.67944,1.45595 0.38825,-0.0971 -1.06769,-1.35888 z m 16.98604,-0.29119 0.29119,2.52364 1.74714,1.26182 -2.03833,-3.78546 z m -11.74463,-13.78296 -1.0677,-0.29119 0.87357,0.38825 0.19413,-0.0971 z m -10.77401,-2.9119 -2.6207,1.55301 0.67944,0.67945 1.94126,-2.23246 z m -5.04728,-1.8442 -0.19413,0.77651 0.87357,0.19413 -0.67944,-0.97064 z m 8.54155,1.94127 4.27078,2.42658 0.77651,-0.67945 -5.04729,-1.74713 z m -33.09852,-85.51261 -0.0971,0.0971 0.0971,-0.0971 0,0 z m 10.38575,0.48531 -0.0971,-0.29119 0,0.38826 0.0971,-0.0971 z m 56.00542,-73.6709 -3.78546,-0.97064 -41.54301,-11.45344 -15.43304,-4.65903 0,0.38825 -0.87357,9.60925 -4.07665,11.35638 -6.79442,8.44449 -0.19412,4.27078 3.30014,5.92085 1.65008,7.76505 -2.32952,6.3091 0.38825,6.30911 -1.16475,2.6207 3.97958,8.63862 2.52364,3.30015 -0.19412,9.41512 6.01791,5.72672 3.49427,-5.82378 3.78547,3.00895 1.45594,-1.35888 -5.24141,0.97063 -0.0971,4.95022 1.0677,6.21204 -2.9119,-2.81483 -1.65007,-3.78546 -0.48532,5.2414 1.35889,10.38576 5.43553,6.69735 -3.59133,4.65903 0.58237,5.92085 3.88253,6.01792 6.79442,18.63612 2.13539,1.16475 -0.67945,12.9094 1.0677,1.55301 14.55947,5.24141 4.4649,4.75609 1.55301,3.10602 4.27078,2.42658 4.65903,0.87357 1.94126,5.33847 3.88252,1.8442 5.82379,6.89148 5.43554,9.02687 -0.38826,8.34743 3.00896,3.97958 39.69882,3.88253 0,0 3.49427,-0.19413 1.55301,-4.27077 -3.00896,-2.23246 0.0971,-7.0856 1.74713,-0.38826 3.49427,-8.54155 2.13539,-3.97959 5.43554,-3.20308 -3.00896,-4.07665 -3.39721,-9.12394 0.19413,-2.42657 0,-0.0971 -2.52364,-3.39721 -7.76505,-10.38575 -15.04479,-21.15976 -20.96563,-30.08957 -11.8417,-16.40366 -11.45345,-16.50074 13.20058,-56.00542 0.87357,-3.68839 z"/>
</svg>
