<svg xmlns="http://www.w3.org/2000/svg" viewBox="359.267 200.359 146.196 146.196">
  <rect fill="white" x="359.267" y="200.359" width="146.196" height="146.196"/>
  <path fill="#239ddb" d="m 489.6323,255.54951 0.38826,-19.02437 -4.65903,-0.19413 -23.6834,-0.87357 -2.32952,-0.0971 -1.94126,-0.0971 -28.82775,-1.8442 -19.2185,-1.55301 -23.97459,-2.32952 -2.32951,-0.29119 -0.29119,2.52365 -5.24141,50.56988 -1.8442,17.66549 -0.7765,7.66799 -0.19413,2.52364 3.00896,0.29119 48.91981,4.27077 21.54801,1.35889 21.45095,0.97063 3.10602,0.0971 1.94126,0.0971 4.07665,0.0971 1.94127,0.0971 6.11497,0.19413 1.55301,0 0,-1.94127 1.0677,-51.34639 0.0971,-5.72672 0,-1.8442 0.0971,-1.26182 z"/>
</svg>
