<svg xmlns="http://www.w3.org/2000/svg" viewBox="720.22 381.115 184.584 184.584">
  <rect fill="white" x="720.22" y="381.115" width="184.584" height="184.584"/>
  <path fill="#239ddb" d="m 854.6867,535.28542 -0.19413,0 0.0971,0.0971 0.0971,-0.0971 z m -0.87357,-0.0971 0,0.0971 0.0971,0 -0.0971,-0.0971 z m 0.19413,-0.0971 0,-0.0971 0,0.0971 0,0 z m -13.20059,1.45594 0,0 0,0.0971 0,-0.0971 z m -0.19412,0.0971 0,-0.0971 0,0.0971 0,0 z m 0.0971,-0.0971 0,0 0,0 0,0 z m -0.97063,0.0971 -0.0971,0 0,0.0971 0.0971,-0.0971 z m 27.56592,-6.11498 -0.0971,0 0.0971,0.19412 0,-0.19412 z m 2.62071,-0.67944 0,-0.19413 -0.19413,0.29119 0.19413,-0.0971 z m -0.97063,-0.19413 -0.38826,-0.38825 -0.0971,0.0971 0.48532,0.29119 z m -0.29119,0.77651 -1.16476,-1.45595 0.67944,1.26182 0.48532,0.19413 z m 9.22099,-5.72673 0,0.38825 0.19413,-0.19412 -0.19413,-0.19413 z m 1.35889,-0.97063 0.29119,-0.48532 -0.38826,0.38826 0.0971,0.0971 z m 0.29119,-0.97063 -0.0971,0 0,0.0971 0.0971,-0.0971 z m -1.74714,-0.29119 -0.0971,-0.0971 0.0971,0.0971 0,0 z m 0.87357,-1.45595 -0.0971,-0.0971 0,0.19413 0.0971,-0.0971 z m -2.62071,-0.0971 -0.0971,-0.0971 0.0971,0.0971 0,0 z m 3.30015,-2.23245 -0.19413,0.0971 0.29119,0.0971 -0.0971,-0.19412 z m 0.38825,0 -0.19412,-0.19413 0.0971,0.29119 0.0971,-0.0971 z m -0.67944,-0.19413 -0.0971,-0.0971 0,0.19412 0.0971,-0.0971 z m 3.59134,-0.67944 0,-0.0971 -0.19413,0.38825 0.19413,-0.29119 z m -4.07665,0.38825 -0.19413,0 0.19413,0.0971 0,-0.0971 z m 2.03832,-1.16476 -0.29119,0 -0.0971,0.0971 0.38825,-0.0971 z m 0.77651,-0.48531 0,0 -0.0971,0 0.0971,0 z m -8.15331,0.38825 0,-0.19412 -0.0971,0.19412 0.0971,0 z m 0.87357,-0.29119 -0.29119,0 0.29119,0.58238 0,-0.58238 z m -2.32951,0.0971 0,-0.58238 -0.48532,0.0971 0.48532,0.48532 z m -1.35889,-0.97064 0.48532,0.48532 0,-0.19413 -0.48532,-0.29119 z m 14.26828,0.58238 -1.74713,0.77651 0.58237,0.0971 1.16476,-0.87357 z m -13.58883,-0.87356 -0.58238,0 0,0.19412 0.58238,-0.19412 z m 15.33597,-4.85316 0.0971,-0.48532 0.0971,-1.26182 -0.19412,1.74714 z m 0.0971,-5.43554 -0.38825,-0.97063 -0.19413,0.38826 0.58238,0.58237 z m -22.42158,2.42658 -0.19413,0.29119 0.48532,0.0971 -0.29119,-0.38825 z m -1.8442,-0.87357 -0.87357,0.29119 0.67945,0.0971 0.19412,-0.38826 z m -1.94126,0.19413 0,-0.29119 -0.0971,0.0971 0.0971,0.19413 z m -2.03833,-0.0971 -0.58238,0.38825 0.77651,0.38825 -0.19413,-0.7765 z m 2.71777,0.0971 -0.0971,-0.29119 -0.48532,-0.0971 0.58238,0.38825 z m -12.71527,-9.51219 -0.58238,0.29119 1.16476,0.38826 -0.58238,-0.67945 z m -2.32951,-3.10602 -0.77651,-1.16475 0.29119,0.87357 0.48532,0.29118 z m 3.00895,1.94127 -1.35888,-3.10602 -0.97063,-0.29119 2.32951,3.39721 z m -3.88252,-3.88253 -0.29119,-0.7765 -0.19413,-0.48532 0.48532,1.26182 z m -8.05624,-10.774 -1.74714,-1.26182 0.67945,0.67944 1.06769,0.58238 z m 43.6784,-6.50323 -7.0856,-11.8417 -0.38826,0 7.47386,11.8417 z m -49.01687,-18.92731 -0.29119,-0.0971 0.29119,0.19412 0,-0.0971 z m -0.58238,-0.67944 -0.0971,0.0971 0.0971,0.0971 0,-0.19412 z m -0.67944,-0.97063 0,-0.0971 -0.0971,0.0971 0.0971,0 z m 0.38825,-0.38826 0.29119,0.19413 0,-0.19413 -0.29119,0 z m 0.58238,-0.38825 -0.38825,0.0971 0.0971,0 0.29119,-0.0971 z m -0.67944,-0.0971 -0.29119,-0.29119 0.0971,0.0971 0.19413,0.19413 z m -0.67944,-1.0677 -0.19413,0 0.29119,0.0971 -0.0971,-0.0971 z m 0.67944,-1.16475 -0.38826,0 -0.0971,0.0971 0.48532,-0.0971 z m 0.38825,0.19412 -0.48532,-0.48531 0.19413,0.0971 0.29119,0.38825 z m -3.6884,-4.17371 -0.19413,-0.0971 0,0.0971 0.19413,0 z m -4.17371,0 -0.29119,-0.38825 0.0971,0.48531 0.19413,-0.0971 z m -35.33098,-3.20309 2.91189,-2.23245 -3.20308,2.13539 0.29119,0.0971 z m 5.82379,-4.65902 0.29119,-0.29119 -1.16476,0.48531 0.87357,-0.19412 z m -36.88399,-6.50323 -10.57988,3.39721 5.82379,-1.65008 4.75609,-1.74713 z m 26.30411,-16.50073 -2.81483,0.48531 -41.93127,6.79442 4.36784,9.9975 0.29119,0.0971 -1.06769,3.97959 3.10602,-1.35888 3.3972,-3.00896 5.82379,-0.19412 6.69736,-2.42658 4.56196,0.67944 -1.06769,1.65007 8.34743,2.81483 7.18267,3.49428 1.65007,3.88252 5.33847,-1.16476 12.61821,-10.28869 4.65903,0.19413 19.02437,14.36534 3.88252,-0.77651 4.07666,5.43554 0.7765,8.63862 -1.26182,5.43553 0.58238,2.71777 3.39721,6.79442 -1.55301,-5.33847 4.36784,-0.0971 0.38825,3.88253 -2.32951,6.01791 8.05624,11.0652 3.00895,0.0971 -2.52364,-3.39721 3.10602,0.38825 1.8442,-1.16475 -0.7765,6.21204 4.17371,3.30014 2.81483,7.57093 3.78546,2.32951 4.85316,1.26182 6.69735,8.54156 3.49428,1.84419 -4.65903,0.29119 2.13538,2.42658 7.66799,-2.52364 3.78546,-2.13539 3.49427,-12.22995 -1.74713,-19.02437 -0.38825,-1.94127 -9.31806,-15.53009 -7.95918,-11.25933 -4.4649,-9.22099 3.78546,3.20308 0.7765,-0.58238 1.65008,8.05624 4.27077,6.11498 -4.17371,-8.1533 0.19413,-3.88253 -12.52115,-15.23891 -3.00895,-4.75609 -3.97959,-8.05624 -2.71777,-6.79442 -2.13539,-2.42658 -0.48531,-3.10602 -0.0971,-0.0971 -6.69735,-0.38825 -2.62071,2.03832 -1.45594,7.47386 -1.35889,-3.49427 -45.81379,5.72672 -3.30014,-5.14434 0.0971,-0.0971 z"/>
</svg>
