<svg xmlns="http://www.w3.org/2000/svg" viewBox="-29.77 179.095 502.337 502.337">
  <rect fill="white" x="-29.77" y="179.095" width="502.337" height="502.337"/>
  <path fill="#239ddb" d="m 416.34965,514.99923 -3.00896,-2.23245 -2.6207,0.67944 0.58238,5.43553 -3.59134,4.46491 3.10602,7.08561 0.87357,7.27973 3.59133,2.32951 2.23246,-3.59133 3.97958,-2.91189 4.85316,-1.26183 5.33847,-4.56196 -5.24141,-4.46491 -0.0971,-2.71776 -9.9975,-5.5326 z m -17.66549,-7.86211 -1.45595,-1.26182 -1.35888,1.8442 2.81483,-0.58238 z m -7.27973,-4.17372 0.38825,-3.59133 -1.8442,-0.29119 1.45595,3.88252 z m 6.11497,-5.92085 -1.65007,0.77651 1.16476,3.6884 2.52364,0.19412 0.7765,3.20308 2.71777,1.16476 6.01791,-2.81483 -5.62966,-4.65903 -5.92085,-1.55301 z m -12.42408,-3.97959 -0.87356,2.62071 4.17371,-0.0971 3.88252,0.97063 -2.03832,-3.20309 -5.14435,-0.29119 z m -12.22995,-7.66798 -2.23245,-2.13539 -4.27078,3.30015 2.71777,5.04728 1.94126,-2.03833 5.5326,1.16476 -0.48532,-2.32952 -3.20308,-3.00895 z m -43.48428,-4.27078 0.58238,-1.35888 1.65007,-0.87357 -2.23245,2.23245 z m 15.43304,-8.83274 -6.79442,2.52364 -0.67944,1.8442 2.71777,1.94126 3.78546,0.97063 2.71776,-5.33847 -1.74713,-1.94126 z m -47.07561,-17.85962 0,-0.0971 -0.19413,0 0.19413,0.0971 z m -51.44346,-12.71527 0,0.19413 0.0971,0 -0.0971,-0.19413 z m -26.98355,-4.4649 0.0971,0.0971 0,0 -0.0971,-0.0971 z m -1.06769,-1.94126 0,0 0,0 0,0 z m -0.87357,-0.97063 -0.19412,0 0,0.0971 0.19412,-0.0971 z m 0.67944,0 -0.0971,0 0.0971,0 0,0 z m -0.0971,-0.0971 0,0 0,0.0971 0,-0.0971 z m -30.47782,-25.04228 -0.0971,-0.29119 0,0.0971 0.0971,0.19413 z m -66.48824,-21.25682 -0.29119,0.29118 0.19413,0.0971 0.0971,-0.38825 z m -70.370758,-49.01688 0,0 0,0 0,0 z m 2.426578,0.0971 -0.09706,0 0,0 0.09706,0 z m -0.485316,-0.0971 0,0 0,0 0,0 z m -41.445952,-18.1508 0.291189,-0.0971 0,-0.19412 -0.291189,0.29119 z"/>
</svg>
