<svg xmlns="http://www.w3.org/2000/svg" viewBox="557.729 148.108 126.266 126.266">
  <rect fill="white" x="557.729" y="148.108" width="126.266" height="126.266"/>
  <path fill="#239ddb" d="m 661.53109,197.69989 -5.33847,-2.81483 -2.9119,-3.97959 -0.97063,-5.72672 0.77651,-2.62071 -2.81483,-3.39721 0,0 -4.7561,0.48532 -47.75505,3.97959 -19.12144,1.06769 -4.85315,0.29119 -2.03833,0.0971 1.65008,10.77401 -1.35889,5.14435 2.13539,3.20308 0,0.67944 0.67944,0.0971 3.10602,9.12394 3.00896,4.75609 0.19413,5.43554 3.30014,4.56196 -0.58238,1.94126 3.00896,12.22996 0,0.29119 0,0 19.89794,-0.58238 21.25682,-1.8442 20.86857,-2.62071 4.7561,4.17372 0.19412,0.19412 0.87357,-0.38825 -0.67944,-3.78546 3.59133,-2.23245 1.45595,-9.90044 -1.45595,-0.67944 0.87357,-5.04728 4.36784,-0.87357 4.85316,-3.49427 2.13539,-6.11498 0.0971,-3.10602 -3.88252,-3.6884 -1.16476,-2.32951 -3.6884,-2.32952 0.19413,-0.48531 0.0971,-0.48532 z"/>
</svg>
