<svg xmlns="http://www.w3.org/2000/svg" viewBox="613.485 177.607 144.724 144.724">
  <rect fill="white" x="613.485" y="177.607" width="144.724" height="144.724"/>
  <path fill="#239ddb" d="m 661.43403,198.18521 -0.19413,0.48531 3.6884,2.32952 1.16476,2.32951 3.88252,3.6884 -0.0971,3.10602 -2.13539,6.11498 -4.85316,3.49427 -4.36784,0.87357 -0.87357,5.04728 1.45595,0.67944 -1.45595,9.90044 -3.59133,2.23245 0.67944,3.78546 -0.87357,0.38825 0,0 -0.7765,4.27078 3.10602,8.63862 11.06519,9.31806 0.97063,4.4649 2.13539,2.23245 6.98855,-0.38825 -1.26182,6.50323 -0.48532,6.98855 4.17372,3.3972 6.60029,2.9119 3.49427,2.71777 1.94126,5.53259 -1.06769,2.03833 6.89148,5.62966 0.29119,0.0971 -0.58238,-0.58238 1.94126,-4.56196 7.47386,2.03832 1.8442,-2.13539 -1.45594,-4.27077 6.11497,-3.59134 -1.65007,-2.32951 1.45595,-3.30015 0,-0.29119 -0.38826,-0.0971 0.0971,-8.63862 2.13539,-1.55301 3.68839,-8.63862 -0.7765,-3.78546 -2.42658,-4.56196 1.35888,-5.14435 -6.79441,-47.85212 -0.97064,-1.06769 -2.52364,-5.72673 -2.03832,-2.13539 -0.87357,-5.62966 0,-0.19412 -13.10352,1.8442 -7.86211,0.97063 -21.15976,2.42658 0,0 z"/>
</svg>
