<svg xmlns="http://www.w3.org/2000/svg" viewBox="678.281 187.077 114.036 114.036">
  <rect fill="white" x="678.281" y="187.077" width="114.036" height="114.036"/>
  <path fill="#239ddb" d="m 750.34384,200.22353 -14.85065,2.62071 -3.39721,0.67944 -12.03583,1.94126 -2.52364,2.03833 -3.78546,1.74713 -1.45595,-0.0971 -1.74714,-0.87357 -0.58237,-0.58238 6.79441,47.85212 -1.35888,5.14435 2.42658,4.56196 0.7765,3.78546 -3.68839,8.63862 -2.13539,1.55301 -0.0971,8.63862 0.38826,0.0971 0.38825,-0.0971 1.45595,-2.71777 3.59133,0 4.36784,-1.45595 5.43554,2.03833 0.58237,-2.23245 3.10602,-2.32952 4.65903,0.67945 2.52365,-4.95022 6.89148,0.58237 -0.0971,-2.81483 6.11498,-8.05623 -0.97063,-3.6884 4.27078,-0.0971 5.2414,-4.17371 -1.26182,-4.75609 0.19413,-0.19413 -0.19413,-1.65007 -5.82378,-34.36035 -2.62071,-14.65653 -0.29119,-1.55301 -0.29119,-1.26182 z"/>
</svg>
