<svg xmlns="http://www.w3.org/2000/svg" viewBox="676.235 210.219 149.48 149.48">
  <rect fill="white" x="676.235" y="210.219" width="149.48" height="149.48"/>
  <path fill="#239ddb" d="m 693.17367,317.18459 -0.29119,-0.7765 -0.58238,-0.19413 -0.38825,1.26182 0.0971,0.0971 1.06769,-0.0971 0.0971,-0.29119 z m 66.39117,-63.47928 -0.19413,0.19413 1.26182,4.75609 -5.2414,4.17371 -4.27078,0.0971 0.97063,3.6884 -6.11498,8.05623 0.0971,2.81483 -6.89148,-0.58237 -2.52365,4.95022 -4.65903,-0.67945 -3.10602,2.32952 -0.58237,2.23245 -5.43554,-2.03833 -4.36784,1.45595 -3.59133,0 -1.45595,2.71777 -0.38825,0.0971 0,0.29119 -1.45595,3.30015 1.65007,2.32951 -6.11497,3.59134 1.45594,4.27077 -1.8442,2.13539 -7.47386,-2.03832 -1.94126,4.56196 0.58238,0.58238 0.19413,0.38826 -0.87357,7.95917 -0.38826,0.19413 -2.52364,1.55301 -0.0971,0.29119 2.81483,-0.38826 19.60675,-2.6207 -0.97063,-3.88252 3.30015,-0.0971 39.50469,-5.24141 27.76005,-4.65903 0.38825,-0.29119 0.67944,-0.7765 7.27974,-3.88252 5.62966,-7.3768 0.7765,-2.52364 3.6884,-2.9119 4.65903,-5.92085 0.67944,-0.97063 -0.29119,-0.0971 -2.42657,0 -3.10602,-1.74714 -5.5326,-6.69735 -1.94126,-6.79442 0,-0.19413 -0.19413,-0.19412 -4.07665,-2.32952 -1.8442,-3.10602 -3.6884,3.59134 -2.32951,0.58238 -2.9119,-1.16476 -2.52364,1.94126 -5.24141,-2.32951 -1.35888,0.58237 -4.95022,-4.27077 -2.52364,-1.26182 -4.75609,0.58238 -0.77651,0.7765 z"/>
</svg>
