<svg xmlns="http://www.w3.org/2000/svg" viewBox="609.803 369.12 122.869 122.869">
  <rect fill="white" x="609.803" y="369.12" width="122.869" height="122.869"/>
  <path fill="#239ddb" d="m 688.99995,469.2825 -1.26182,0.29119 -0.58238,0.58238 1.8442,-0.87357 z m 4.07665,0 -0.67944,-0.29119 -0.19412,0.29119 0.87356,0 z m 2.32952,-0.77651 -0.67944,0 -0.38826,0.48532 1.0677,-0.48532 z m -1.16476,-0.67944 -0.19413,-0.29119 -0.0971,0.29119 0.29119,0 z m 7.76505,-5.14434 -0.29119,0.19412 0.48532,0 -0.19413,-0.19412 z m 13.58884,-5.72673 0.58238,-0.7765 -0.67945,0.87357 0.0971,-0.0971 z m 1.94126,-2.52364 -0.19413,0.0971 0,0.0971 0.19413,-0.19413 z m -49.89044,8.54156 1.45594,-1.8442 -3.97959,-1.0677 -1.74713,1.45595 4.27078,1.45595 z m 40.28119,-8.44449 -0.38825,-0.38826 -0.0971,0.19413 0.48532,0.19413 z m 1.06769,-1.74714 -0.97063,-0.29119 0.29119,0.97063 0.67944,-0.67944 z m 7.95918,-1.65007 0,-0.29119 0,0.0971 0,0.19413 z m 1.94126,-1.26182 -0.0971,-0.0971 0.0971,0.19413 0,-0.0971 z m -0.7765,-0.19413 -0.19413,-0.0971 -0.0971,0.29119 0.29119,-0.19413 z m -6.79442,-0.29119 0.87357,-0.29119 0,-0.29119 -0.87357,0.58238 z m 0.48532,-0.48532 0.48531,-0.48531 -0.0971,-0.0971 -0.38825,0.58237 z m -3.39721,-3.59133 -0.19413,0.19413 0.0971,0 0.0971,-0.19413 z m -35.8163,-54.35535 -0.19412,0 -36.5928,3.39721 -9.22099,0.67944 -3.00896,0.29119 0.0971,2.32952 1.94126,18.73318 3.20309,4.4649 0.0971,2.62071 3.10602,5.43553 2.52364,7.95918 -0.87357,4.4649 -0.67944,11.0652 -1.45594,3.59133 0.19412,0 0.29119,2.52364 -1.65007,2.32952 12.03582,-1.35889 9.41513,2.62071 6.69735,0.87357 3.39721,-2.42658 -1.8442,-2.42658 6.21204,-1.94126 -0.19412,2.13539 3.20308,-0.77651 2.6207,4.07665 2.23245,-0.7765 5.82379,3.97959 -3.59133,1.26182 8.25036,2.42657 3.10602,0 1.8442,-2.23245 3.97959,-2.13539 2.81483,4.07666 1.94126,-3.6884 -0.58238,-5.82379 5.24141,2.03833 0.58238,1.74713 6.21204,0.77651 3.10602,2.52364 -0.38825,2.03832 4.36784,-4.07665 -1.65008,-2.13539 -7.27973,-1.8442 -2.71777,-1.55301 -0.0971,-2.91189 3.00896,0.38825 2.32951,-4.75609 -3.00896,-4.17371 -1.65007,3.97958 -3.78546,-0.67944 2.6207,-4.27078 -1.74713,-0.48531 -4.27078,3.00896 -6.11498,0.38825 -1.74713,-1.35889 2.81483,-4.95021 3.30014,-0.0971 5.62967,1.8442 4.07665,0.38825 0,0 -2.23245,-2.81483 -4.27078,-8.34742 1.16476,-4.65903 -33.48678,3.68839 1.26182,-1.26182 -1.35888,-3.49427 2.03832,-3.00896 1.16476,-7.57092 7.3768,-12.6182 -3.59134,-4.36784 0.19413,-3.20309 -2.23246,-5.24141 0,-0.67944 z"/>
</svg>
