<?xml version="1.0" encoding="UTF-8"?>
<svg id="Layer_1" xmlns="http://www.w3.org/2000/svg" baseProfile="tiny" version="1.2" viewBox="0 0 512.0 512.0">
  <rect width="512.0" height="512.0" rx="30" fill="#ffffff"/>
  <g transform="translate(25.6,97.582) scale(0.9)">

  <!-- Generator: Adobe Illustrator 30.2.1, SVG Export Plug-In . SVG Version: 2.1.1 Build 1)  -->
  <polygon points="503.1 246.82 512 217.8 501.36 191.49 460.74 169.43 450.49 165.57 418.38 160.94 412.19 153.97 408.13 136.56 403.49 129.99 378.33 124.57 362.48 120.7 355.52 110.64 351.26 103.69 341.4 93.63 330.19 85.11 320.89 88.21 319.54 85.11 317.41 82.79 311.99 82.79 302.52 79.69 290.72 76.21 278.73 76.21 267.7 77.75 256.48 81.24 233.84 98.27 225.92 100.58 205.03 102.12 194.59 103.69 183.38 109.09 174.48 113.74 165.76 115.67 155.71 109.09 135.4 60.35 130.37 51.84 124.56 44.88 96.53 15.47 87.63 10.44 76.6 1.93 70.59 0 68.09 6.96 65.58 12.38 53.77 12.38 48.75 10.44 47.78 15.47 44.88 24.76 44.3 31.34 41.01 29.4 32.31 27.86 28.83 25.92 25.73 43.33 0 98.27 47.2 167.52 51.26 170.99 56.68 172.93 73.31 179.49 86.47 188.01 106.96 196.91 116.07 196.91 122.44 194.96 128.63 193.43 135.99 191.49 153.38 191.49 161.32 193.43 165.18 198.84 167.51 215.86 170.02 224.38 172.92 227.86 179.49 233.27 183.38 248.36 185.5 311.03 193.43 336.56 211.61 352.04 243.14 352.04 256.48 345.08 264.22 341.58 267.7 343.52 271.38 348.94 279.32 348.94 306 343.52 345.65 315.67 359.58 312.57 372.34 314.13 386.08 319.54 401.17 321.09 414.51 317.61 462.49 290.14 483.56 270.79 503.1 246.82" fill="#239ddb"/>

  </g>
</svg>