<svg xmlns="http://www.w3.org/2000/svg" viewBox="890.591 7.932 124.454 124.454">
  <rect fill="white" x="890.591" y="7.932" width="124.454" height="124.454"/>
  <path fill="#239ddb" d="m 946.7996,118.39932 -0.0971,0 0.19412,0.0971 -0.0971,-0.0971 z m 7.18267,-20.674443 -0.77651,-1.164758 0,0.582379 0.77651,0.582379 z m -1.35888,-1.067695 0,-0.970631 -0.0971,-0.582379 0.0971,1.55301 z m 3.49427,-4.076651 -0.19413,-0.09706 0.0971,0.291189 0.0971,-0.194126 z m 9.70631,-4.853156 -0.19413,-1.455947 -0.38825,0.679442 0.58238,0.776505 z m -2.42658,0.582379 0.0971,-1.067694 -1.16476,0.194126 1.06769,0.873568 z m 3.59134,-3.203083 -0.38825,0 0,0.194126 0.38825,-0.194126 z m -4.85316,1.455947 -0.87357,-0.194126 -0.0971,0.873568 0.97063,-0.679442 z m 4.95022,-3.008957 0.87357,0.679442 -0.29119,-0.776505 -0.58238,0.09706 z m -2.6207,0.09706 -0.87357,1.650073 1.16476,-0.582379 -0.29119,-1.067694 z m -4.17372,0.09706 -0.38825,0.582379 0.29119,0.873568 0.0971,-1.455947 z m 5.72673,-3.203083 -0.0971,-0.776505 -0.29119,0.485316 0.38826,0.291189 z m -0.48532,0.388253 -0.87357,-0.776505 0,0.679442 0.87357,0.09706 z m -5.43553,2.232452 -0.19413,-1.067695 -0.38825,0.873568 0.58238,0.194127 z m 9.22099,-3.39721 -1.45594,2.135389 -0.0971,-1.55301 1.55301,-0.582379 z m 7.08561,-6.503229 -0.67944,-0.970631 -0.38825,0.194126 1.06769,0.776505 z m 2.6207,-4.36784 -0.58237,-0.291189 -0.0971,0.291189 0.67944,0 z m 1.26183,-7.570923 -0.87357,0 0.97063,0.291189 -0.0971,-0.291189 z m 1.45594,0.970631 -0.29119,-1.747136 -0.7765,-0.09706 1.06769,1.8442 z m -1.55301,-1.55301 -0.19412,-1.844199 -0.67945,1.26182 0.87357,0.582379 z m -56.29661,15.23891 14.07415,33.001458 0.19413,0.67944 6.11498,7.47386 0,-0.0971 0.97063,-0.29119 0.19413,-5.5326 1.55301,-1.94126 0.97063,-5.14435 -0.87357,-0.87357 1.65007,-5.047274 5.62966,-2.620704 3.6884,-4.464904 1.35888,-7.765049 5.92085,-0.388253 -0.7765,-3.979588 7.3768,-2.81483 0.48531,-4.36784 1.74714,0.388252 4.85315,-3.979588 2.13539,-5.144345 -4.95022,-4.950219 -5.2414,-1.067695 -1.94127,-3.979588 0,-2.329515 -3.20308,0.970632 -3.59134,-1.261821 0,-3.979588 -9.70631,-20.965634 -7.0856,-3.688398 -7.86212,6.600292 -2.13539,-0.388253 -1.8442,-3.397209 -2.52364,0.970631 -3.59133,17.859614 1.26182,5.823788 1.06769,11.8417 -2.81483,9.123934 1.94126,1.455946 -2.32951,4.464904 -2.52364,-0.388253 -0.19413,0.194127 z"/>
</svg>
