<svg xmlns="http://www.w3.org/2000/svg" viewBox="638.833 63.67 158.087 158.087">
  <rect fill="white" x="638.833" y="63.67" width="158.087" height="158.087"/>
  <path fill="#239ddb" d="m 719.96309,138.2002 -0.48532,-0.77651 -0.0971,0.97063 0.58238,-0.19412 z m 1.55301,-1.74714 -1.16476,-1.55301 -0.19413,0.67944 1.35889,0.87357 z m 0.97063,-6.98854 -0.97063,-0.87357 0,0.19412 0.97063,0.67945 z m -2.42658,76.00042 12.03583,-1.94126 3.39721,-0.67944 14.85065,-2.62071 0.29119,1.26182 0.97063,-0.29119 6.40617,-1.35888 6.11498,-1.45595 6.21204,-1.55301 -0.0971,-0.29119 3.20309,-6.3091 -0.29119,-5.24141 3.59133,-9.02687 2.81483,1.65007 1.0677,-2.03832 -0.29119,-7.76505 -2.62071,-4.85316 -3.88252,-10.28869 -3.39721,-3.78546 -1.74714,-0.48531 -6.3091,4.36784 0.67944,0.87356 -3.30014,6.21204 -3.20309,-0.58238 -0.97063,-6.50322 1.35889,-0.48532 2.81483,-6.50323 0.29119,-11.45345 -4.36784,-9.70631 -9.70632,-1.65007 -0.97063,-1.45595 -9.02687,-2.6207 -4.07665,5.04728 0.38825,4.36784 -3.10602,3.88252 0.67945,6.01792 -3.00896,2.13539 0,-7.57093 -2.71777,5.72673 -3.20308,5.04728 -2.13539,1.65007 1.06769,5.33847 -1.35888,5.5326 0.77651,6.89148 -0.97064,3.39721 6.98855,13.39471 0.87357,5.14435 -0.87357,9.51218 -4.65903,10.67695 -0.58238,0.38825 z m 20.77151,-87.45387 -2.52364,0.19412 1.55301,1.16476 0.97063,-1.35888 z m -14.7536,2.52364 -0.7765,0 0.87357,0.38825 -0.0971,-0.38825 z m 16.98605,-12.32702 -0.97063,-1.55301 -0.38825,0.0971 1.35888,1.45594 z m -87.93919,7.08561 3.10602,1.74714 15.91835,4.85315 7.3768,1.94127 7.18267,0.48531 5.24141,4.27078 0,6.60029 4.65903,4.65903 0,-0.0971 3.78546,-10.96814 4.56197,-3.20308 3.49427,-3.88252 0.58238,3.49427 3.59134,-5.5326 8.63861,-3.30014 0.67945,-1.35889 8.73568,1.0677 3.39721,1.74713 1.65007,-4.27077 1.55301,0.97063 6.79442,-1.0677 -1.65008,-2.71777 -3.00895,-1.74713 0.58238,-6.3091 -5.92085,3.30014 -5.43554,-0.67944 -1.74714,-4.17371 0.58238,-1.358888 -7.37679,3.494268 -4.7561,0.29119 -8.54155,5.24141 -0.97063,1.94126 -5.24141,-1.26182 -3.30015,1.45595 -6.60029,-5.72672 -14.65653,-4.46491 -0.29119,-1.747133 -9.41512,9.026873 -5.33847,1.35888 -7.57093,5.72673 -0.29119,0.19412 z m 34.36035,-22.033327 -11.35639,5.629661 3.78546,3.688396 1.45595,-3.688396 3.88253,-4.756093 2.23245,-0.873568 z M 676.77,79.962326 l -7.76505,5.338471 -0.38825,2.620704 6.11497,-4.464903 2.03833,-3.494272 z"/>
</svg>
