<svg xmlns="http://www.w3.org/2000/svg" viewBox="571.681 213.163 141.553 141.553">
  <rect fill="white" x="571.681" y="213.163" width="141.553" height="141.553"/>
  <path fill="#239ddb" d="m 653.66898,242.44599 -4.7561,-4.17372 -20.86857,2.62071 -21.25682,1.8442 -19.89794,0.58238 0,0 -0.0971,0.58238 2.42657,4.65903 2.23246,1.553 2.6207,4.65903 0.38825,0.38826 0.97063,0.7765 2.32952,1.65008 2.52364,-0.0971 1.35888,2.42658 -3.39721,4.17371 3.49428,3.10602 0.38825,1.94127 4.36784,2.52364 2.42658,41.0577 0.0971,2.52364 0.19413,2.52364 0.0971,2.52364 0.19413,2.6207 0.0971,2.52365 4.56197,-0.29119 31.25432,-2.52364 36.98105,-3.59134 1.8442,3.78546 -4.27078,6.79442 10.48282,-1.55301 0.0971,0 0,-0.7765 0.19413,-4.46491 1.94126,-2.42658 -0.58238,-2.71776 -0.0971,-0.0971 -0.0971,-0.0971 0.38825,-1.26182 0.58238,0.19413 0.29119,0.7765 -0.0971,0.29119 0,0.0971 0,0.77651 0.38826,0.0971 0.7765,-0.97063 0,-0.0971 0.0971,-0.29119 2.52364,-1.55301 0.38826,-0.19413 0.87357,-7.95917 -0.19413,-0.38826 -0.29119,-0.0971 -6.89148,-5.62966 1.06769,-2.03833 -1.94126,-5.53259 -3.49427,-2.71777 -6.60029,-2.9119 -4.17372,-3.3972 0.48532,-6.98855 1.26182,-6.50323 -6.98855,0.38825 -2.13539,-2.23245 -0.97063,-4.4649 -11.06519,-9.31806 -3.10602,-8.63862 0.7765,-4.27078 0,0 -0.19412,-0.19412 z"/>
</svg>
