<svg xmlns="http://www.w3.org/2000/svg" viewBox="632.735 330.707 127.965 127.965">
  <rect fill="white" x="632.735" y="330.707" width="127.965" height="127.965"/>
  <path fill="#239ddb" d="m 716.76,442.78427 -0.48531,0.0971 0,0.0971 0.48531,-0.19412 z m 9.02687,-1.16476 -1.35888,0 1.26182,0.0971 0.0971,-0.0971 z m -11.25932,0.97063 -0.38825,0.38825 0.0971,0.0971 0.29119,-0.48532 z m 9.12394,-0.7765 -3.6884,0 3.49427,0.0971 0.19413,-0.0971 z m -40.47533,-92.50116 0,0.0971 -4.07665,6.79442 0.38826,5.2414 -5.5326,6.11498 1.45595,1.74714 -3.6884,15.5301 1.74713,3.30014 -0.97063,0.67944 0.0971,2.13539 0,0.67944 2.23246,5.24141 -0.19413,3.20309 3.59134,4.36784 -7.3768,12.6182 -1.16476,7.57092 -2.03832,3.00896 1.35888,3.49427 -1.26182,1.26182 33.48678,-3.68839 -1.16476,4.65903 4.27078,8.34742 2.23245,2.81483 0,-0.0971 3.59133,-4.07665 7.57093,-1.65007 6.98854,0.7765 1.06769,-1.35888 0,-0.0971 -4.95021,-29.89545 -0.19413,-21.8392 -0.58238,-39.79588 -1.35888,-0.87356 -0.38826,-0.77651 -0.19412,0 -4.85316,0.67944 -8.54155,1.16476 -19.41263,2.42658 -2.13539,0.19412 z"/>
</svg>
