<svg xmlns="http://www.w3.org/2000/svg" viewBox="285.644 3.273 201.231 201.231">
  <rect fill="white" x="285.644" y="3.273" width="201.231" height="201.231"/>
  <path fill="#239ddb" d="m 465.65771,72.973781 -32.12789,-2.135389 -23.39221,-2.232451 -23.29515,-2.717768 -14.46241,-1.941262 -23.10102,-3.591336 -11.55051,-1.941262 -25.81879,-4.950219 -2.71777,-0.582379 -4.17371,19.800877 1.8442,3.591335 1.45595,5.532598 -0.87357,0.776505 1.8442,5.047282 2.52364,2.135389 7.18267,12.035829 0.67944,2.03832 2.91189,-0.19412 -3.39721,15.91835 -1.35888,0.38825 -1.8442,5.33847 9.60925,0.67944 0.77651,4.46491 5.43553,13.29765 0.97063,0.7765 3.78546,7.76505 0.97063,-0.7765 8.05624,-0.0971 10.19163,1.0677 2.52364,-3.30015 3.00896,5.43553 0.58238,0.29119 0.0971,-0.58237 1.35888,-9.51219 33.19559,4.07665 26.49823,2.52364 13.97709,1.16476 24.94522,1.45595 1.26182,0.0971 0.29119,0 0.0971,-1.35888 0.29119,-6.69736 0.38825,-8.83274 0.0971,-2.23246 0.19413,-3.88252 1.55301,-30.47782 1.26182,-23.683401 0.0971,-3.882525 -1.8442,-0.09706 z"/>
</svg>
