<svg xmlns="http://www.w3.org/2000/svg" viewBox="764.06 215.348 175.525 175.525">
  <rect fill="white" x="764.06" y="215.348" width="175.525" height="175.525"/>
  <path fill="#239ddb" d="m 890.2118,332.22937 -1.06769,1.0677 0.19412,0.19413 0.87357,-1.26183 z m 0.7765,-5.62966 -0.48531,0.77651 0.19413,0.7765 0.29118,-1.55301 z m 5.82379,-9.02687 -1.45594,0.97063 -0.77651,1.16476 2.23245,-2.13539 z m 12.52114,-6.11497 -0.58237,-0.38826 -1.26182,-0.0971 1.84419,0.48532 z m -2.6207,-0.58238 -0.87357,0 -1.45594,0.7765 2.32951,-0.7765 z m 3.00896,1.06769 2.81483,-6.98854 -1.94126,2.91189 -0.87357,4.07665 z m 4.17371,-9.22099 1.26182,-1.8442 -0.67944,0 -0.58238,1.8442 z m 8.1533,-7.57093 -2.13539,-10.774 1.8442,5.62966 0.29119,5.14434 z m -11.8417,-24.55697 -0.19412,0.0971 -0.29119,0.0971 0,0 0.0971,0 5.33847,9.02687 4.17372,4.17371 -9.12394,-13.39471 0,0 z m -1.74713,0.58238 -0.77651,0.19413 0,0 0.19413,0.0971 1.65007,0 -0.19413,-0.58238 0,0 -0.29118,0.0971 -0.29119,0 0,0 0,0.19412 -0.19413,0.0971 -0.0971,-0.0971 0,0 z m -89.78339,22.13039 -0.48532,1.45595 0.0971,4.17371 -1.0677,-0.0971 -2.52364,5.14435 -2.81483,0.29119 -5.24141,5.14434 -2.32951,-0.87357 -3.00896,4.46491 -7.95917,7.18267 -3.88253,0.97063 -4.07665,3.78546 -0.19413,2.52364 -3.59133,1.94126 0.0971,4.27078 0,0.97063 1.26182,-0.29119 13.58884,-2.81483 3.6884,-0.7765 1.26182,-0.29119 0.29119,0 32.22495,-10.19163 5.43554,2.81483 10.96813,0.38825 8.05624,-1.55301 21.64508,13.6859 0.38825,-0.29119 9.9975,-4.07665 0.0971,-5.33847 3.59134,-6.50323 3.88252,-3.6884 8.05624,-5.33847 1.0677,-1.94126 2.13538,0.97063 0.97064,-6.40616 -1.16476,2.23245 -4.07665,1.35888 -3.88253,0.0971 4.7561,-3.49427 -1.45595,-1.55301 1.65007,-3.49427 -9.12393,-1.45595 -0.38825,-0.48531 7.76505,-1.45595 2.52364,1.26182 3.20308,-0.29119 2.6207,-1.94126 1.94127,-3.78546 1.74713,-0.48532 -0.29119,-5.33847 -2.23245,-2.13539 -2.23245,2.03833 0.48531,5.14434 -1.65007,-6.3091 -1.26182,-0.29119 -9.60925,3.97959 4.27078,-4.17372 0.19413,-1.65007 4.4649,-1.06769 1.26182,-3.30015 3.00896,1.74714 -3.20309,-4.7561 -2.23245,-1.94126 0,0 -38.82525,11.0652 -24.75109,6.3091 -25.04229,4.65903 -0.0971,-0.19413 z"/>
</svg>
