<svg xmlns="http://www.w3.org/2000/svg" viewBox="872.788 160.62 68.627 68.627">
  <rect fill="white" x="872.788" y="160.62" width="68.627" height="68.627"/>
  <path fill="#239ddb" d="m 916.80709,207.30914 -0.48531,-1.16476 0,1.16476 0.48531,0 z m 0.97064,-3.59134 0.29119,-2.91189 -0.58238,2.52364 0.29119,0.38825 z m -3.97959,-29.79837 -10.19163,-2.52365 -1.74714,-0.48531 -1.65007,-0.38825 0,0 -4.07665,9.02687 1.74714,2.13539 -0.0971,6.50322 1.8442,0.29119 3.78546,9.90044 -0.19412,0.29119 -4.75609,6.98855 0.48531,5.33847 11.45345,3.88252 0.0971,4.46491 2.62071,-3.6884 0.38825,-5.33847 2.71777,-1.8442 -1.0677,-3.97959 2.03833,-4.75609 0,-10.38576 -0.67944,-3.39721 -4.56197,0.0971 1.16476,-4.65903 0.67944,-7.47386 0,0 z"/>
</svg>
