<?xml version="1.0" encoding="UTF-8"?>
<svg id="Layer_1" xmlns="http://www.w3.org/2000/svg" baseProfile="tiny" version="1.2" viewBox="0 0 512.0 512.0">
  <rect width="512.0" height="512.0" rx="30" fill="#ffffff"/>
  <g transform="translate(25.6,82.998) scale(0.9)">

  <!-- Generator: Adobe Illustrator 30.2.1, SVG Export Plug-In . SVG Version: 2.1.1 Build 1)  -->
  <polygon points="471.77 319.81 460.42 308.45 456.71 290.98 456.92 275.26 454.09 265.64 441.2 259.52 428.75 254.29 431.15 238.12 439.24 222.84 444.05 216.72 404.94 216.72 394.25 220.66 416.07 235.94 401.89 242.06 392.94 244.24 388.57 240.31 385.3 240.31 366.73 220.66 356.24 211.04 347.93 199.26 333.96 166.06 339.65 166.06 342.27 167.81 345.55 172.17 345.55 156.45 344.24 142.91 339.22 132.86 319.12 119.32 304.7 97.92 292.26 74.77 290.29 61.23 281.77 45.51 272.39 31.53 260.58 20.17 245.96 14.06 244.21 10.57 241.8 8.38 240.49 6.2 240.49 .52 192.45 25.85 180.23 37.65 172.8 53.36 166.69 62.98 160.79 66.47 154.23 68.66 130.43 84.38 126.5 92.24 126.5 99.67 123.65 105.78 111.44 107.52 102.7 105.78 87.19 104.04 42.84 99.67 24.72 101.85 9.88 107.52 2.24 123.25 31.72 148.58 29.09 164.31 22.75 181.78 31.06 199.26 44.61 213.23 53.99 220.66 62.71 230.7 78.03 259.52 89.16 275.26 95.92 279.18 108.37 284.86 114.06 288.79 117.32 294.9 133.49 352.99 137.86 354.74 141.56 359.11 145.28 360.86 152.92 354.74 162.76 349.51 200.53 343.39 218 343.39 235.47 349.51 237.87 323.73 227.4 310.2 211.46 302.33 196.6 288.79 212.32 288.79 231.11 296.66 240.95 294.9 229.58 271.32 241.59 279.18 245.96 284.86 252.3 279.18 259.07 279.18 264.74 283.12 268.45 288.79 267.14 300.58 259.73 304.08 251.2 306.26 245.96 314.56 249.89 332.04 266.05 335.53 284.17 332.04 295.31 318.06 312.35 327.67 319.78 333.78 327.86 343.39 324.13 351.26 332.22 359.11 355.59 370.47 367.17 382.7 372.41 384.45 385.95 384.45 404.29 378.33 425.47 370.47 444.05 368.72 454.95 384.45 467.18 373.09 509.76 343.39 497.55 332.04 471.77 319.81" fill="#239ddb"/>

  </g>
</svg>