<svg xmlns="http://www.w3.org/2000/svg" viewBox="733.186 169.72 102.939 102.939">
  <rect fill="white" x="733.186" y="169.72" width="102.939" height="102.939"/>
  <path fill="#239ddb" d="m 818.19096,206.6297 -2.42657,-10.48282 -0.48532,-2.13539 -2.71777,-11.93876 -3.49427,2.23245 -7.47386,5.72672 -4.85315,5.92085 -3.78547,0.58238 -6.98854,3.97959 -3.88253,-2.32951 -11.74463,-1.35889 0,0 -6.21204,1.55301 -6.11498,1.45595 -6.40617,1.35888 -0.97063,0.29119 0.29119,1.55301 2.62071,14.65653 5.82378,34.36035 0.19413,1.65007 0.77651,-0.7765 4.75609,-0.58238 2.52364,1.26182 4.95022,4.27077 1.35888,-0.58237 5.24141,2.32951 2.52364,-1.94126 2.9119,1.16476 2.32951,-0.58238 3.6884,-3.59134 1.8442,3.10602 4.07665,2.32952 0.19413,0.19412 0,0 4.17371,-2.03832 1.45595,-3.20309 -1.16476,-3.30014 3.30014,-5.04728 2.42658,-0.38826 -0.29119,-4.27077 3.97959,-5.43554 0.67944,0.77651 3.59134,-2.71777 3.10602,-4.65903 0.48531,-21.25682 0.19413,-0.0971 -0.48532,-2.03832 z"/>
</svg>
