<svg xmlns="http://www.w3.org/2000/svg" viewBox="454.615 260.231 178.357 178.357">
  <rect fill="white" x="454.615" y="260.231" width="178.357" height="178.357"/>
  <path fill="#239ddb" d="m 609.50526,322.91131 -0.19413,-2.6207 -0.0971,-2.52364 -0.19413,-2.52364 -3.6884,0.29119 -37.56342,1.74713 -52.70528,0.77651 -22.51864,-0.29119 -4.17372,-0.0971 -1.55301,0 -6.11497,-0.19413 -1.94127,-0.0971 -4.07665,-0.0971 -1.94126,-0.0971 -0.0971,2.52364 -0.0971,2.52364 -0.0971,2.52364 -0.0971,2.62071 0.58238,0 23.48927,0.58238 24.84816,0.29119 0.29119,33.19558 1.74714,5.82379 3.88252,3.6884 4.17372,0.19413 0.87356,-1.74714 5.72673,5.24141 7.47386,0.7765 1.35888,1.55301 2.71777,-1.26182 6.79442,3.20309 0,1.84419 2.52364,-0.0971 2.6207,-2.23245 4.85316,3.10602 4.56197,1.65007 3.10601,-4.27077 9.90044,4.65902 3.6884,-3.00895 3.00896,-1.16476 2.42658,0.58238 9.12393,-2.6207 4.85316,2.03832 4.36784,2.81483 3.78546,0.67944 0.0971,0 -0.0971,-4.36784 -1.0677,-26.40117 -0.0971,-4.36784 -3.78546,-19.60675 -0.58238,-2.71776 -0.0971,-2.52365 z"/>
</svg>
