<svg xmlns="http://www.w3.org/2000/svg" viewBox="799.157 135.134 117.659 117.659">
  <rect fill="white" x="799.157" y="135.134" width="117.659" height="117.659"/>
  <path fill="#239ddb" d="m 900.01517,170.13396 -6.3091,-2.71776 -1.06769,-2.42658 -5.43554,-4.17372 -29.70131,8.92981 -29.50719,8.05624 -5.14435,-1.26182 -0.67944,-2.91189 -1.65007,1.26182 -2.6207,1.8442 -4.7561,4.85315 -0.58238,0.48532 2.71777,11.93876 0.48532,2.13539 2.42657,10.48282 0.48532,2.03832 0,0 4.27078,18.442 13.78296,-3.39721 1.94126,-0.48532 1.74714,-0.48531 6.89148,-1.8442 37.95168,-10.57988 6.89148,-2.13539 1.65008,-0.48532 0,0 0.7765,-1.94126 1.74714,-1.35888 2.32951,0 0.29119,-0.87357 3.78546,-4.27078 0.38825,-0.67944 0.29119,-0.19413 -3.78546,-9.90044 -1.8442,-0.29119 0.0971,-6.50322 -1.74714,-2.13539 4.07665,-9.02687 0,0 -0.19413,-0.38826 z"/>
</svg>
