<svg xmlns="http://www.w3.org/2000/svg" viewBox="928.315 134.13 30.464 30.464">
  <rect fill="white" x="928.315" y="134.13" width="30.464" height="30.464"/>
  <path fill="#239ddb" d="m 946.50841,152.08022 -0.0971,-2.03832 -0.29119,0.7765 0.38825,1.26182 z m 1.94126,-1.55301 -1.26182,-2.42657 -0.0971,2.52364 1.35888,-0.0971 z m -0.58238,-3.00895 0.67944,1.74713 0.87357,1.55301 0.58238,-1.16475 -0.87357,-1.65008 -0.29119,-1.16475 -0.97063,0 0,0.67944 z m -10.774,-3.97959 0.38825,1.06769 3.00896,8.44449 0.58237,2.03833 0.0971,2.32952 0.19412,-0.29119 4.65903,-3.6884 -0.87356,-6.60029 1.94126,-0.38826 0,0 -4.27078,-5.14434 -4.4649,1.74713 -1.26182,0.48532 z"/>
</svg>
