<svg xmlns="http://www.w3.org/2000/svg" viewBox="786.167 297.778 106.562 106.562">
  <rect fill="white" x="786.167" y="297.778" width="106.562" height="106.562"/>
  <path fill="#239ddb" d="m 801.49611,330.48224 0,0 -2.71777,5.33847 0.48532,1.94126 8.83274,3.6884 4.56197,5.82379 18.73318,15.72422 4.36784,2.03833 7.95918,11.35638 5.82378,5.43554 0,0 0.97063,-4.4649 -1.55301,-4.27078 4.17372,3.10602 2.32951,-1.8442 -3.97959,-3.30015 4.85316,-0.29119 7.57092,-6.40616 -0.87356,-1.65008 4.65903,-3.59133 -0.48532,-1.74714 3.39721,-2.13539 0.19413,-4.95022 5.33847,-9.90043 3.59133,-4.56197 0.38826,-0.19413 -21.64508,-13.6859 -8.05624,1.55301 -10.96813,-0.38825 -5.43554,-2.81483 -32.22495,10.19163 -0.29119,0 z"/>
</svg>
