<svg xmlns="http://www.w3.org/2000/svg" viewBox="446.049 98.257 143.365 143.365">
  <rect fill="white" x="446.049" y="98.257" width="143.365" height="143.365"/>
  <path fill="#239ddb" d="m 566.89455,135.57949 -16.40367,0.48532 -39.50469,0.29119 -42.80484,-1.16476 -3.78546,-0.19413 -0.0971,2.23246 -0.38825,8.83274 -0.29119,6.69736 -0.0971,1.35888 -0.29119,0 -0.0971,2.52364 -0.97063,20.38326 -0.7765,15.14184 -0.0971,2.62071 2.9119,0.0971 32.90439,1.06769 27.85712,0.29119 19.12143,-0.19412 6.11498,3.88252 5.14435,-1.45594 3.39721,0.0971 10.57988,3.10602 3.00895,3.00895 1.8442,0.19413 0,-0.67944 -2.13539,-3.20308 1.35889,-5.14435 -1.65008,-10.77401 2.03833,-0.0971 -0.19413,-4.4649 -4.85315,-34.16622 -2.52364,-4.27078 3.88252,-6.40616 0.0971,-0.29119 -3.30014,0.19412 z"/>
</svg>
