<svg xmlns="http://www.w3.org/2000/svg" viewBox="665.841 236.322 169.976 169.976">
  <rect fill="white" x="665.841" y="236.322" width="169.976" height="169.976"/>
  <path fill="#239ddb" d="m 786.2572,300.48973 -27.76005,4.65903 -39.50469,5.24141 -3.30015,0.0971 0.97063,3.88252 -19.60675,2.6207 -2.81483,0.38826 0,0.0971 -0.7765,0.97063 -0.38826,-0.0971 0,-0.77651 0,-0.0971 -1.06769,0.0971 0.0971,0.0971 0.58238,2.71776 -1.94126,2.42658 -0.19413,4.46491 0,0.7765 0,0.0971 -2.91189,5.62966 0.58238,3.97959 -2.71777,4.27078 0.97063,3.88252 -3.49427,3.20309 0.19412,0.19412 2.13539,-0.19412 19.41263,-2.42658 8.54155,-1.16476 4.85316,-0.67944 0.19412,0 -0.0971,-0.19413 16.30661,-2.23245 7.76504,-0.97063 15.5301,-2.52364 2.9119,-0.48532 1.74713,-0.19412 8.25037,-1.55301 2.03832,-0.38825 7.57093,-1.45595 1.35888,-0.19413 0,-0.97063 -0.0971,-4.27078 3.59133,-1.94126 0.19413,-2.52364 4.07665,-3.78546 3.88253,-0.97063 7.95917,-7.18267 3.00896,-4.46491 2.32951,0.87357 5.24141,-5.14434 2.81483,-0.29119 2.52364,-5.14435 1.0677,0.0971 -0.0971,-4.17371 0.48532,-1.45595 -1.55301,0.29119 -5.5326,1.55301 -6.60029,1.35889 -16.59779,3.39721 -1.74714,0.29118 -0.38825,0.29119 z"/>
</svg>
