<svg xmlns="http://www.w3.org/2000/svg" viewBox="175.511 3.209 135.551 135.551">
  <rect fill="white" x="175.511" y="3.209" width="135.551" height="135.551"/>
  <path fill="#239ddb" d="m 192.13384,77.050432 0.0971,-1.650073 -0.19412,0.09706 0.0971,1.55301 z m 20.67445,-8.832744 0.58237,-0.970631 -0.67944,-0.09706 0.0971,1.067694 z m -1.8442,-1.747136 0.58237,-1.941262 -0.58237,-0.194127 0,2.135389 z m 7.0856,-2.814831 -0.0971,-1.941262 -1.65007,2.523641 1.74713,-0.582379 z m 0.19413,-4.076651 0.29119,-1.941262 -0.19413,-0.485316 -0.0971,2.426578 z m 0.29119,-9.512185 -0.0971,-1.067695 -0.38826,-0.09706 0.48532,1.164758 z m 3.10602,-6.406166 -0.87357,-0.09706 -1.74713,2.717767 2.6207,-2.620704 z m -2.42658,-2.620705 0.48532,-0.388252 0.0971,-0.291189 -0.58238,0.679441 z m -0.48531,0.29119 -0.29119,-1.941263 -0.87357,1.650073 1.16476,0.29119 z m -0.48532,-2.717768 -0.87357,-0.388252 0.67944,0.970631 0.19413,-0.582379 z m 2.91189,1.650074 0,-1.261821 -0.29119,0.485316 0.29119,0.776505 z m 0.87357,-1.261821 -0.38825,-0.291189 -0.0971,0 0.48531,0.291189 z m -5.5326,-2.135389 -0.48531,-0.388252 -0.19413,-0.09706 0.67944,0.485315 z m 3.59134,-0.388252 -2.6207,0.679442 0.67944,0.194126 1.94126,-0.873568 z m -2.13539,-0.194126 -0.48531,-0.582379 -0.0971,0.09706 0.58238,0.485316 z m 2.03833,-1.164758 -0.38826,0 0.48532,0.194126 -0.0971,-0.194126 z m -19.02438,49.793381 3.49428,3.785461 -0.58238,7.279734 0.67944,1.8442 5.24141,2.81483 14.75359,1.35888 0.58238,1.74714 6.98855,0.0971 6.60029,0.87357 10.774,-1.16476 5.33848,0.87357 1.45594,-0.67944 27.27474,6.21204 1.8442,0.38825 -0.19413,-0.97063 0.38826,-4.36784 -0.48532,-4.17371 11.25932,-50.666952 -1.55301,-0.29119 -22.71277,-5.338471 -19.80087,-5.047282 -22.42159,-6.21204 -6.69735,-1.650073 1.55301,8.444491 -1.45595,2.717768 -2.6207,-1.358884 2.52364,11.744637 -2.71777,3.882525 -1.26182,3.591336 0,3.688398 -5.72672,3.979588 -2.42658,-1.55301 -2.32952,1.164758 4.27078,-5.532598 -1.06769,3.785462 2.42658,-2.620705 1.94126,0.388253 -0.58238,-4.853156 1.26182,0.194126 2.6207,-5.823787 -0.87356,-0.873568 -3.39721,4.36784 -2.23246,0.09706 2.42658,-2.717767 2.71777,-0.679442 -0.97063,-4.950219 -2.71777,-0.679442 -1.35888,-2.329515 -1.65008,0.873568 -8.9298,-3.882524 -7.86211,-6.114977 -2.13539,5.92085 -0.19413,2.523641 1.65007,4.464904 -1.06769,14.462405 -0.77651,2.232452 4.36784,0.388252 -4.36784,3.10602 2.32952,1.164757 -1.8442,6.21204 -0.87357,-4.853156 -1.65007,5.629661 2.23245,2.717767 2.42658,-0.194126 2.91189,1.747136 1.45595,2.814831 1.74713,0 0,0 z"/>
</svg>
