<svg xmlns="http://www.w3.org/2000/svg" viewBox="783.651 196.792 96.257 96.257">
  <rect fill="white" x="783.651" y="196.792" width="96.257" height="96.257"/>
  <path fill="#239ddb" d="m 836.73002,223.71281 -13.78296,3.39721 -4.27078,-18.442 0,0 -0.19413,0.0971 -0.48531,21.25682 -3.10602,4.65903 -3.59134,2.71777 -0.67944,-0.77651 -3.97959,5.43554 0.29119,4.27077 -2.42658,0.38826 -3.30014,5.04728 1.16476,3.30014 -1.45595,3.20309 -4.17371,2.03832 0,0 0,0.19413 1.94126,6.79442 5.5326,6.69735 3.10602,1.74714 2.42657,0 0.29119,0.0971 0.19413,0.0971 1.06769,3.00896 6.11498,2.23245 2.42658,-2.13539 2.52364,-0.38825 5.33847,-4.17371 6.50323,-1.94126 1.74714,-2.81483 0.38825,-5.82379 2.32951,-4.46491 2.9119,-13.20058 5.92085,2.03833 1.94126,-5.72673 3.00896,-3.30014 4.95022,-9.41513 -0.19413,-5.62966 9.02687,3.88253 0.58238,-4.07665 0,-0.0971 0,0 -2.81483,-4.85315 -5.82379,-0.67945 -3.39721,2.62071 0,1.94126 -2.91189,0.67944 -4.27078,3.00896 -2.23245,0.48532 -4.46491,6.3091 -2.23245,-10.19163 -1.94126,0.48532 z"/>
</svg>
