<svg xmlns="http://www.w3.org/2000/svg" viewBox="337.525 119.699 140.761 140.761">
  <rect fill="white" x="337.525" y="119.699" width="140.761" height="140.761"/>
  <path fill="#239ddb" d="m 461.38694,192.16729 0.7765,-15.14184 0.97063,-20.38326 0.0971,-2.52364 -1.26182,-0.0971 -24.94522,-1.45595 -13.97709,-1.16476 -26.49823,-2.52364 -33.19559,-4.07665 -1.35888,9.51219 -0.0971,0.58237 -0.38825,3.20309 -1.74714,12.52114 -3.30015,25.23641 -0.87357,6.3091 -0.38825,3.20309 -0.19412,1.26182 -2.42658,18.92731 3.78546,0.48531 24.7511,3.00896 1.94126,0.19412 2.32951,0.29119 23.97459,2.32952 19.2185,1.55301 28.82775,1.8442 1.94126,0.0971 0.0971,-2.52364 0.48532,-10.19163 0.87357,-17.76255 0.38825,-7.57092 0.0971,-2.52364 0.0971,-2.62071 z"/>
</svg>
