<?xml version="1.0" encoding="utf-8"?>
<!-- Generator: Adobe Illustrator 25.0.0, SVG Export Plug-In . SVG Version: 6.00 Build 0)  -->
<svg version="1.1" id="Layer_1" xmlns="http://www.w3.org/2000/svg" xmlns:xlink="http://www.w3.org/1999/xlink" x="0px" y="0px"
	 viewBox="0 0 1254.53 247.84" style="enable-background:new 0 0 1254.53 247.84;" xml:space="preserve">
<style type="text/css">
	.st0{fill:#0071BC;}
	.st1{fill:#ED1C24;}
</style>
<g>
	<g>
		<g>
			<path class="st0" d="M358.9,80.03c-10.85,0.46-23.98,13.45-24.96,24.62c-0.18,2.07-0.16,3.96,2.33,4.48
				c1.95,0.41,4.33,0.41,4.92-1.79c2.89-10.74,9.81-17.13,20.33-20.23c2.09-0.62,1.93-3.15,1.41-5.06
				C362.38,80.03,360.7,79.82,358.9,80.03z"/>
			<path class="st0" d="M419.74,112.06c-0.18-29.81-24.13-53.76-53.81-53.83c-30.12-0.06-54.11,23.46-54.16,53.12
				c-0.05,30.4,23.81,54.86,53.49,54.83C395.2,166.15,419.92,141.58,419.74,112.06z M365.38,153.14
				c-22.2,0.03-40.59-18.79-40.55-41.51c0.04-22.55,17.91-40.31,40.61-40.36c22.66-0.05,41.13,18.24,41.27,40.85
				C406.84,134.27,387.85,153.11,365.38,153.14z"/>
			<path class="st0" d="M422.04,150.04c-2.22-2.24-4.01-2.18-6.1,0.3c-3.47,4.14-6.62,8.6-11.21,11.69
				c-3.79,2.55-3.73,5.12-0.45,8.31c9.01,8.76,17.79,17.74,26.74,26.56c3.04,3,6.53,5.3,11.02,5.04c5.57,0.25,9.69-2.01,12.02-7
				c2.41-5.14,2.09-10.35-1.86-14.46C442.32,170.18,432.1,160.19,422.04,150.04z"/>
		</g>
		<path class="st1" d="M484.7,48.39C465.94,6.58,416.34-7.5,381.03,19.97c-5.8,4.51-10.75,10.1-16.39,15.47
			c-0.82-1.01-1.9-2.31-2.94-3.64c-18.45-23.5-50.09-32.14-77.84-21.1c-35.17,13.99-57.75,59.62-36.41,101
			c12.48,24.2,29.27,45.1,47.57,64.97c21.57,23.43,45.11,44.74,69.99,65.36c1.75-1.39,3.11-2.43,4.42-3.53
			c15.47-12.85,30.46-26.22,44.8-40.27c-1.31-1.31-2.63-2.61-3.94-3.92c-4.98-4.99-10.14-10.15-15.25-15.12
			c-1.97-1.91-3.35-3.82-4.32-5.66c-8.07,3.35-16.77,5.12-25.74,5.13c-0.02,0-0.05,0-0.07,0c-17.52,0-34.02-6.85-46.46-19.31
			c-12.81-12.82-19.84-30-19.81-48.39c0.03-17.81,7.01-34.45,19.65-46.85c12.55-12.31,29.32-19.08,47.22-19.08c0.05,0,0.1,0,0.15,0
			c17.77,0.04,34.47,6.97,47.02,19.52c12.53,12.53,19.49,29.25,19.6,47.07c0.06,9.04-1.75,17.84-5.23,25.99
			c1.26,0.77,2.54,1.76,3.81,3.04c3.38,3.41,6.77,6.8,10.17,10.19c2.97,2.96,5.98,5.98,9,9.02c11.14-13.27,21.38-27.22,29.88-42.5
			C492.32,95.07,495.38,72.17,484.7,48.39z"/>
	</g>
	<g>
		<g>
			<path d="M6.27,107.58h55.2v13.6H19.72v24.86h41.75v13.45H19.72v34.25h41.75v13.45H6.27V107.58z"/>
			<path d="M78.04,105.7h13.6v101.49h-13.6V105.7z"/>
			<path d="M108.77,121.49c0-2.81,1.04-5.25,3.13-7.31c2.08-2.06,4.56-3.09,7.43-3.09c2.82,0,5.25,1.03,7.31,3.09
				c2.06,2.06,3.09,4.5,3.09,7.31c0,2.87-1.03,5.32-3.09,7.35c-2.06,2.03-4.5,3.05-7.31,3.05c-2.87,0-5.34-1.02-7.43-3.05
				C109.81,126.81,108.77,124.36,108.77,121.49z M112.6,142.68h13.45v64.5H112.6V142.68z"/>
			<path d="M150.76,123.92h13.6v18.77h13.45v12.43h-13.45v52.07h-13.6v-52.07h-10.71v-12.59h10.71V123.92z"/>
			<path d="M254.2,177.55h-55.04c1.2,6.62,3.92,11.45,8.17,14.5c4.25,3.05,8.87,4.57,13.88,4.57c7.71,0,14.18-3.21,19.39-9.62
				l9.93,7.51c-7.45,9.64-17.44,14.46-29.95,14.46c-9.59,0-17.62-3.28-24.08-9.85c-6.46-6.57-9.69-14.73-9.69-24.47
				c0-9.12,3.27-17.03,9.81-23.73c6.54-6.7,14.53-10.05,23.96-10.05c9.28,0,17.23,3.4,23.85,10.2
				C251.04,157.89,254.3,166.71,254.2,177.55z M200.56,166.69h39.41c-4.38-8.86-10.84-13.29-19.39-13.29
				C211.25,153.4,204.58,157.83,200.56,166.69z"/>
		</g>
		<g>
			<path d="M573.55,111.02v15.4c-10.74-5.26-20.62-7.9-29.63-7.9c-11.57,0-21.32,3.74-29.24,11.21
				c-7.92,7.47-11.88,16.65-11.88,27.53c0,11.09,4.05,20.35,12.16,27.77c8.1,7.42,18.26,11.13,30.45,11.13
				c8.86,0,18.24-2.79,28.15-8.37v15.56c-9.02,4.79-18.79,7.19-29.32,7.19c-15.43,0-28.62-5.22-39.56-15.66
				c-10.95-10.44-16.42-23.04-16.42-37.78c0-14.48,5.38-26.88,16.15-37.19c10.76-10.31,23.73-15.47,38.9-15.47
				C553.04,104.45,563.12,106.64,573.55,111.02z"/>
			<path d="M642.75,142.68h13.6v64.5h-13.6v-12.82c-6.62,9.75-14.83,14.62-24.63,14.62c-8.5,0-15.76-3.34-21.78-10.01
				c-6.02-6.67-9.03-14.78-9.03-24.32c0-9.02,3.04-16.9,9.11-23.65c6.07-6.75,13.2-10.13,21.38-10.13c5.06,0,9.85,1.38,14.39,4.14
				c4.53,2.76,8.05,6.36,10.56,10.79V142.68z M644.62,175.13c0-5.89-2.12-10.93-6.35-15.13c-4.23-4.2-9.29-6.29-15.2-6.29
				c-5.74,0-10.76,2.09-15.04,6.25c-4.28,4.17-6.42,9.07-6.42,14.7c0,6.1,2.09,11.29,6.27,15.56c4.18,4.27,9.24,6.41,15.2,6.41
				c5.9,0,10.97-2.12,15.2-6.37C642.51,186.01,644.62,180.97,644.62,175.13z"/>
			<path d="M691.93,142.68v13.29c3.02-5.32,5.98-9.16,8.87-11.53c2.89-2.37,6.66-3.56,11.3-3.56c1.3,0,3.18,0.31,5.63,0.94
				l-4.14,13.6c-2.61-0.52-4.33-0.78-5.16-0.78c-4.59,0-8.43,1.6-11.53,4.81c-3.1,3.21-4.65,7.21-4.65,12v35.73h-13.6v-64.5H691.93z
				"/>
			<path d="M794.51,177.55h-55.04c1.2,6.62,3.92,11.45,8.17,14.5c4.25,3.05,8.87,4.57,13.88,4.57c7.71,0,14.18-3.21,19.39-9.62
				l9.93,7.51c-7.46,9.64-17.44,14.46-29.95,14.46c-9.59,0-17.62-3.28-24.08-9.85c-6.46-6.57-9.7-14.73-9.7-24.47
				c0-9.12,3.27-17.03,9.81-23.73c6.54-6.7,14.53-10.05,23.96-10.05c9.28,0,17.23,3.4,23.85,10.2
				C791.35,157.89,794.61,166.71,794.51,177.55z M740.87,166.69h39.41c-4.38-8.86-10.84-13.29-19.39-13.29
				C751.56,153.4,744.88,157.83,740.87,166.69z"/>
			<path d="M810.38,107.58h55.2v13.6h-41.75v24.86h41.75v13.45h-41.6v47.69h-13.6V107.58z"/>
			<path d="M877.78,121.49c0-2.81,1.04-5.25,3.13-7.31c2.08-2.06,4.56-3.09,7.43-3.09c2.81,0,5.25,1.03,7.31,3.09
				c2.06,2.06,3.09,4.5,3.09,7.31c0,2.87-1.03,5.32-3.09,7.35c-2.06,2.03-4.5,3.05-7.31,3.05c-2.87,0-5.34-1.02-7.43-3.05
				C878.82,126.81,877.78,124.36,877.78,121.49z M881.61,142.68h13.45v64.5h-13.45V142.68z"/>
			<path d="M912.88,207.19v-64.5h13.29v10.71c3.91-4.33,7.45-7.49,10.63-9.5c3.18-2.01,6.72-3.01,10.63-3.01
				c5.84,0,10.83,1.93,14.97,5.79c4.14,3.86,6.22,8.5,6.22,13.92v46.6h-13.61v-42.61c0-3.49-1.13-6.38-3.4-8.68
				c-2.27-2.29-5.15-3.44-8.64-3.44c-4.53,0-8.44,1.92-11.73,5.75c-3.29,3.83-4.93,8.46-4.93,13.88v35.11H912.88z"/>
			<path d="M1039.62,105.7h13.45v101.49h-13.29v-13.45c-6.42,10.16-14.83,15.25-25.21,15.25c-8.4,0-15.61-3.36-21.61-10.09
				c-6-6.72-9-14.8-9-24.24c0-9.23,3.05-17.16,9.16-23.81c6.11-6.65,13.39-9.97,21.85-9.97c5.06,0,9.79,1.41,14.17,4.22
				s7.88,6.49,10.49,11.02V105.7z M1041.19,174.82c0-5.79-2.12-10.8-6.34-15.05c-4.23-4.25-9.27-6.37-15.12-6.37
				c-6.06,0-11.19,2.07-15.39,6.22c-4.2,4.14-6.31,9.21-6.31,15.21c0,5.73,2.14,10.75,6.42,15.05c4.28,4.3,9.27,6.45,14.96,6.45
				c6.06,0,11.2-2.08,15.43-6.25S1041.19,180.81,1041.19,174.82z"/>
			<path d="M1138.3,177.55h-55.04c1.2,6.62,3.92,11.45,8.17,14.5c4.25,3.05,8.87,4.57,13.88,4.57c7.71,0,14.18-3.21,19.39-9.62
				l9.93,7.51c-7.46,9.64-17.44,14.46-29.95,14.46c-9.59,0-17.62-3.28-24.08-9.85c-6.47-6.57-9.7-14.73-9.7-24.47
				c0-9.12,3.27-17.03,9.81-23.73c6.54-6.7,14.53-10.05,23.96-10.05c9.28,0,17.23,3.4,23.85,10.2
				C1135.14,157.89,1138.4,166.71,1138.3,177.55z M1084.66,166.69h39.41c-4.38-8.86-10.84-13.29-19.39-13.29
				C1095.34,153.4,1088.67,157.83,1084.66,166.69z"/>
			<path d="M1169.1,142.68v13.29c3.02-5.32,5.98-9.16,8.87-11.53c2.89-2.37,6.66-3.56,11.3-3.56c1.3,0,3.18,0.31,5.63,0.94
				l-4.14,13.6c-2.61-0.52-4.33-0.78-5.16-0.78c-4.59,0-8.43,1.6-11.53,4.81c-3.1,3.21-4.65,7.21-4.65,12v35.73h-13.6v-64.5H1169.1z
				"/>
			<path d="M1247.56,150.63l-9.06,7.97c-2.34-1.67-4.37-2.93-6.09-3.79c-1.72-0.86-3.75-1.29-6.09-1.29c-5.52,0-8.28,2.03-8.28,6.09
				c0,2.92,3.5,5.75,10.5,8.49c7,2.75,12.04,5.76,15.11,9.04c3.07,3.28,4.61,7.23,4.61,11.86c0,5.41-2.21,10.13-6.64,14.16
				c-4.43,4.03-9.63,6.05-15.62,6.05c-9.11,0-16.58-4.22-22.42-12.65l10.7-5.15c3.75,3.65,7.65,5.47,11.72,5.47
				c2.81,0,5.27-0.77,7.38-2.3c2.11-1.54,3.16-3.32,3.16-5.35c0-3.59-3.7-6.82-11.09-9.69c-7.39-2.87-12.51-5.77-15.35-8.72
				c-2.84-2.94-4.26-6.57-4.26-10.89c0-5.36,2.02-9.82,6.05-13.39c4.03-3.56,9.1-5.35,15.19-5.35
				C1233.19,141.18,1240.01,144.33,1247.56,150.63z"/>
		</g>
	</g>
</g>
</svg>
