<?xml version="1.0" encoding="UTF-8"?>
<svg id="Layer_1" xmlns="http://www.w3.org/2000/svg" version="1.1" viewBox="0 0 8192 6975.5">
  <!-- Generator: Adobe Illustrator 30.2.1, SVG Export Plug-In . SVG Version: 2.1.1 Build 1)  -->
  <defs>
    <style>
      .st0 {
        fill: #231f20;
        fill-rule: evenodd;
      }
    </style>
  </defs>
  <path class="st0" d="M2795.24,6794.65c-153.69-25.51-276.76-103.92-382.48-215.61-75.28-79.55-165.07-132.27-275.34-155.69-227.37-48.36-356.69-216.75-358.49-449.9-1.52-202.9,70.45-384.85,157.11-562.44,126.1-258.28,290.89-491.71,466.39-718.03,44.28-57.08,89.32-113.59,132.55-171.71-90.74,83.63-171.61,176.64-253.06,269.18-115.67,131.6-200.72,284.92-305.4,424.2-110.46,146.87-232.87,282.26-391.59,378.97-97.19,59.26-201.01,96.81-318.2,73.77-91.5-18.01-165.45-66.84-225.75-135.02-87.7-98.99-201.77-141.56-327.59-157.96-135.59-17.73-260.84-59.83-369.11-144.69-155.69-122.03-209.64-286.72-193.04-478.15,8.06-93.39,34.61-182.9,64.47-271.83,41.05-122.22,63.81-248.04,57.46-378.03-11-224.05,81.54-367.88,291.37-449.9,162.8-63.62,333.56-75,505.93-69.21,351.86,11.85,693.19,85.9,1031.49,177.59,2.37.66,5.21-.76,13.27-2.18-134.64-57.84-261.78-120.7-383.91-193.23-228.31-135.68-439.56-291.46-593.92-512.76-97.47-139.66-154.83-293.45-151.51-465.35,2.37-121.55,34.51-236.94,90.55-344.94,54.23-104.58,93.2-214.09,118.61-329.39,47.5-215.13,265.86-402.77,485.93-428.85,181.67-21.52,351.76,17.73,517.97,84.29,49.3,19.72,55.47,17.83,57.27-34.42,5.12-151.89,20.67-302.84,42.38-453.21,3.6-25.03,8.34-49.97,24.65-70.16,25.41-31.48,65.23-25.22,78.98,12.71,11.19,30.72,9.48,62.96,7.68,95.19-8.44,151.89-7.68,303.69-.47,455.68,1.9,40.49,18.77,44.28,49.21,33,40.49-14.98,80.59-31.29,123.54-38.31,167.06-27.5,302.93,38.4,385.8,186.31,64,114.16,91.12,239.03,105.91,367.22,31.86,276.48,6.35,550.97-31.19,824.89-13.27,96.43-28.82,192.47-41.62,289.19,37.07-126.77,75.57-252.97,118.33-377.84,109.04-318.48,231.25-631.28,407.13-919.99,83.06-136.34,175.5-265.58,300.09-368.07,80.88-66.47,169.72-115.86,276.29-129.42,116.05-14.79,220.44,18.2,310.8,85.33,88.18,65.52,182.04,100.88,290.89,113.97,143.08,17.07,276.1,67.41,389.31,160.71,142.32,117.19,195.22,270.6,176.55,450.47-8.91,86.19-18.96,171.71-2.84,257.99,5.59,30.25,13.56,59.73,26.17,87.89,87.8,195.51,56.6,376.04-73.48,540.63-118.9,150.47-283.12,236.09-457.1,305.87-204.33,82.01-419.56,121.46-634.03,165.26-198.16,40.49-394.15,90.07-578.84,175.79-18.68,8.72-36.79,18.77-53.76,31.19,135.21-29.11,270.03-60.11,405.71-87.13,261.12-51.86,523.76-93.3,789.81-110.27,199.3-12.8,398.32-17.73,596.1,17.54,59.07,10.52,116.81,26.26,172.85,48.36,194.37,76.52,273.35,226.61,218.93,427.8-27.69,102.31-57.17,203.28-66.56,309.76-3.79,42.86,1.99,83.82,7.68,124.3,24.94,178.73-43.8,314.79-182.9,420.98-38.97,29.77-81.07,55.47-126.86,72.34-118.61,43.61-195.6,127.91-249.65,239.31-72.34,149.05-184.04,251.64-354.04,275.44-114.63,16.12-221.58-15.64-323.51-64.66-187.73-90.17-341.81-224.9-485.64-372.34-179.77-184.13-337.73-386.18-487.54-594.96-6.35-8.91-12.71-17.92-21.52-25.51,21.9,58.12,53.29,111.22,84.01,164.69,80.21,139.76,179.96,264.72,284.92,386.65,139.95,162.61,257.23,340.39,331.38,543.67,39.82,109.04,59.92,221.39,43.71,336.88-22.85,163.75-117.57,280.56-255.62,363.52-75.19,45.13-155.12,82.39-231.92,124.97-79.45,44.09-152.46,97.09-221.58,156.63-133.59,115.11-286.81,191.34-461.84,221.01-55.66,0-111.41,0-167.25,0ZM2144.81,3574.46c8.34,7.3,16.5,14.6,24.94,21.71,103.63,87.13,210.77,169.72,318.96,250.97,25.03,18.87,57.84,40.87,45.99,77.18-11.38,34.61-50.44,32.52-79.74,32.71-185.93.85-368.73,30.63-552.3,56.51,196.46-17.83,392.72-2.09,589.08-.19,28.54.38,76.14-3.32,78.41,18.39,3.32,31.57-42.67,31.1-68.74,37.64-256.19,63.72-503.94,153.6-751.98,242.35-81.07,29.01-161.37,60.02-242.16,90.07,243.2-68.27,487.44-130.84,733.77-185.17,107.52-23.7,215.23-46.55,323.13-68.08,20.67-4.08,49.21-12.42,61.16,11.47s-11.95,40.39-28.63,54.33c-37.45,31.19-75.95,61.35-114.25,91.5-97.09,76.33-190.2,157.11-278.95,242.92,82.96-56.32,163.65-115.48,246.61-171.14,70.54-47.41,141.75-94.72,223.67-121.36,23.42-7.59,49.59-18.77,70.83,3.41,22.66,23.7,9.58,49.78-1.04,74.05-42.95,98.42-81.92,198.45-117.57,299.8-27.5,78.22-53.38,157.11-80.02,235.61,13.56-15.45,20.95-33.28,28.63-50.92,53.48-124.21,105.05-249.36,172.66-366.93,18.11-31.48,36.03-63.34,62.77-88.37,24.37-22.76,43.33-17.07,51.11,14.98,3.51,14.7,3.41,30.44,2.94,45.7-1.99,62.77-6.83,125.44-6.92,188.11-.57,316.59,11.95,632.89,26.74,949.1-3.03-136.63,9.58-272.59,20.48-408.46,15.64-194.47,36.79-388.36,56.32-582.45,7.4-73.39,16.31-146.68,26.26-219.78,2.47-18.39,3.13-43.52,25.13-49.02,25.13-6.26,34.89,18.49,46.36,35.08,25.69,36.98,39.92,79.64,57.08,120.79,68.74,164.79,143.45,326.54,232.3,482.7,2.18-2.84,3.7-4.17,3.41-4.84-4.17-10.24-8.82-20.39-12.99-30.72-56.89-137.96-112.55-276.2-131.32-426.1-13.94-111.22,42.95-159.57,148.39-122.22,28.73,10.15,56.23,24.46,82.96,39.25,51.29,28.44,99.18,62.39,145.26,98.7,54.23,42.86,107.43,87.32,170.57,138.9-40.11-52.15-77.84-89.22-117-125.06-105.15-96.43-219.21-181.19-337.73-260.27-27.31-18.2-63.43-36.69-53.19-76.61,9.48-36.88,47.98-36.88,79.45-41.62,73.2-11,146.77-17.64,220.73-14.89,175.98,6.54,349.49,30.81,520.91,70.92,107.42,25.13,213.71,54.71,320.57,83.06-11.28-9.01-23.13-16.02-35.84-21.43-35.84-15.36-71.4-31.67-108.18-44.66-269.37-94.62-548.22-135.68-832.47-145.54-55.66-1.99-111.22-6.54-166.68-11-10.24-.85-25.13-2.28-25.79-16.4-.66-13.37,13.18-17.07,23.32-20.39,25.22-7.96,50.63-15.36,76.33-21.62,118.52-29.11,239.5-45.61,359.16-69.88-94.72,9.96-189.53,9.58-284.35,7.96-47.6-.76-95-6.26-139.28-24.56-44.85-18.49-53.67-51.11-25.13-90.07,25.03-34.04,57.84-60.21,92.35-84.29,138.05-96.24,289.85-166.68,441.55-237.51,6.73-3.03,19.53-.19,19.06-14.13-168.87,47.03-402.77,163.75-544.05,271.27-12.14,9.2-24.75,18.96-38.68,24.46-19.15,7.68-30.25-1.04-27.12-22.09,1.61-10.81,5.78-21.62,10.33-31.67,60.02-135.49,130.28-265.29,214.95-387.13,60.97-87.89,128.09-170.86,198.54-251.26-190.01,155.97-353.28,334.98-475.31,549.64-17.16,30.25-36.69,59.16-55.75,88.27-5.4,8.25-13.56,16.02-24.27,13.08-13.75-3.79-14.03-17.26-12.42-27.78,5.5-35.75,10.52-71.77,19.53-106.76,21.62-83.34,45.23-166.12,68.17-249.08-20.95,33.56-36.5,69.4-59.83,100.88-51.11,68.93-99.75,64.28-136.72-13.27-3.6-7.59-6.64-15.36-9.67-23.13-32.05-82.49-46.27-169.34-58.03-256.19-24.94-183.85-40.87-368.36-42.86-554-.19-18.87-4.08-37.55-6.26-56.32-14.51,262.73-7.21,524.04,34.04,784.5-71.49-143.45-126.96-291.84-174.65-443.16-48.26-152.84-90.64-307.39-126.86-463.64-35.56-153.03-67.41-306.82-95.38-461.46-1.04,10.05-1.33,19.82-.09,29.39,38.78,301.8,93.68,600.37,183.37,891.54,100.41,326.26,223.19,642.75,413.01,929.47,23.23,35.08,39.92,73.48,50.54,114.35,25.41,98.23-8.53,180.15-94.15,227.84-85.71,47.79-172.66,32.71-242.16-42.29-24.75-26.74-45.89-56.41-60.97-89.6-92.63-203.38-169.43-412.63-231.16-627.39-118.99-413.87-183.18-836.55-203.66-1273.46-5.97,241.78,10.52,475.31,43.99,707.13,43.52,301.23,111.31,597.24,219.4,882.73,4.27,11.38,15.08,25.22,6.73,35.18-9.96,11.95-25.98,3.6-39.25.09-124.78-33.19-233.05-98.32-340.38-170.38Z"/>
  <path class="st0" d="M5742.17,180.85c-33.37,174.27,1.33,336.31,80.02,493.61,70.35,140.8,112.36,292.03,121.17,449.42,12.61,226.23-61.44,411.5-270.89,524.23-24.08,12.99-28.92,29.3-26.45,54.33,12.61,127.72,29.87,254.58,60.87,379.35,1.99,8.15,4.93,15.93-6.26,31.67-135.96-369.97-193.23-744.58-170.86-1131.99-12.99,59.35-16.31,119.75-22.66,179.96-6.54,61.35-3.7,122.6-5.4,183.94-1.61,62.77,2.47,125.44,8.63,187.92,5.88,60.78,12.61,121.46,19.25,185.93-29.3-5.21-43.42-25.41-59.54-40.68-262.16-248.32-326.45-608.81-168.96-944.36,95.86-204.23,239.41-371.96,402.01-524.99,10.15-9.58,20.48-18.87,30.72-28.35,2.75,0,5.5,0,8.34,0Z"/>
  <path class="st0" d="M6738.87,3264.7c287.76,139.38,569.27,283.4,820.43,479.95,74.9,58.69,144.59,122.97,198.54,202.33,35.84,52.72,62.67,109.42,58.31,175.22-5.21,79.74-53.38,133.12-115.67,174.84-80.02,53.57-144.78,119.37-195.79,202.24-68.27,110.65-200.82,148.95-349.2,107.14-67.89-19.15-133.4-14.7-195.03,16.5-217.88,110.08-376.7,9.96-461.08-179.29-54.99-123.35-78.41-255.05-90.36-388.84-13.94-156.82-17.82-313.93-9.1-471.42-24.18,109.13-38.21,219.5-31.48,330.9,10.52,173.89,5.12,345.22-53.19,511.91-34.51,98.7-90.74,177.97-187.83,223.48-80.88,37.93-164.69,35.18-249.55,17.16-35.37-7.49-71.02-19.34-106.48-19.06-45.8.38-53.38-25.51-55.66-60.11-7.21-109.51,3.6-217.03,36.69-321.9,25.6-81.35,48.83-163.46,52.91-248.79,8.63-179.2-75.76-306.92-228.98-391.87-109.32-60.59-228.88-85.9-352.71-93.39-11.66-.66-29.2,5.21-33.09-9.58-4.17-15.45,14.51-17.83,24.46-23.42,208.69-117.76,436.72-181.85,667.12-239.03,11.57-2.84,23.04-5.78,33.94-10.9-132.84,16.97-264.06,41.05-390.83,85.24-132.27,46.08-266.62,81.73-407.99,81.16-13.56-.09-27.88,3.6-42.29-5.97,5.69-18.58,24.37-21.33,37.26-29.68,209.64-135.77,315.83-328.72,316.78-577.99.19-71.49-21.71-140.33-41.05-208.69-24.84-88.08-37.74-176.83-24.46-268.23,14.22-97.94,11.66-194.37-31.57-290.23,26.26-2.94,43.99,8.91,61.35,18.01,156.07,80.88,280.94,199.96,398.98,327.4,79.36,85.71,152.27,176.83,227.65,266.62-27.59-61.82-56.13-123.16-82.58-185.46-62.1-146.11-107.24-297.24-109.8-456.72-3.22-196.27,51.96-381.82,289.56-499.86,67.79-33.66,131.98-71.4,191.15-118.99,142.13-114.54,353.85-101.26,499.11,29.49,60.59,54.52,112.83,116.34,150.28,188.97,16.21,31.38,27.02,26.26,46.27,3.89,59.73-70.07,122.12-137.86,189.53-200.63,21.24-19.72,47.22-54.33,77.27-26.07,30.72,28.92-3.79,56.04-22.19,78.13-61.44,74.05-120.41,150-178.35,226.89-20.39,27.02-13.46,38.4,14.7,46.46,5.31,1.52,10.81,2.75,16.12,4.46,140.23,45.13,203.57,155.5,170.38,299.9-29.87,129.9-103.54,236.66-184.04,339.15-103.63,131.89-221.3,250.79-344.37,365.13,85.81-56.79,170.19-115.67,257.9-169.53,198.83-122.31,401.26-236.94,630.14-294.87,61.06-15.45,122.88-23.7,186.12-22.57,137.67,2.65,242.44,74.52,282.74,206.41,21.9,71.87,56.13,131.7,109.89,183.66,46.46,44.85,79.64,100.31,105.24,159.86,60.97,141.46,35.08,274.68-76.04,382.86-58.12,56.51-100.88,119.94-122.97,199.96-35.18,127.72-159.95,218.17-300.09,229.64-186.31,15.36-354.99-44.66-519.11-120.89-149.14-69.31-292.5-151.32-450.47-200.53-35.37-11.19-71.58-20.38-107.42-30.43ZM6586.12,2749.47c24.08-130.65,68.74-253.91,117.38-376.04,48.73-122.6,104.39-242.25,160.33-361.81-20.01,30.53-37.55,62.1-54.23,94.15-147.63,282.26-260.27,576.38-305.68,893.63-7.21,50.82-5.4,103.25-24.84,152.18-23.13,58.41-75.38,92.44-133.5,87.04-64.47-5.97-101.83-41.05-115.86-107.52-7.49-35.46.09-69.31,8.44-103.25,72.06-294.87,191.53-570.31,343.51-832.28,24.56-42.29,50.35-83.91,75.57-125.82-8.25,1.14-12.52,4.84-15.45,9.2-153.6,227.75-280.18,469.14-365.99,730.83-3.7,11.38-1.42,29.2-15.83,31.67-15.83,2.65-21.43-14.98-29.39-25.6-36.79-49.49-58.5-106.86-82.77-163.08,15.45,72.53,33.94,144.02,51.77,215.51,5.97,24.08,17.54,52.91-6.64,69.69-23.8,16.5-42.86-9.29-62.48-20.86-4.74-2.84-8.72-6.92-13.27-10.24-67.22-48.92-137.96-92.25-211.06-131.89,77.46,65.61,156.35,129.23,234.38,193.8,12.71,10.62,38.97,20.67,27.88,39.73-9.1,15.55-30.81-.38-45.32-6.83-86.66-38.78-175.22-72.53-265.01-103.06-71.68-24.37-143.83-47.12-215.8-70.64,5.12,9.77,12.61,13.18,20.2,16.21,156.44,63.62,308.15,137.39,456.34,218.36,12.8,7.02,32.14,12.8,27.21,31.95-4.55,17.64-23.7,16.59-38.59,18.39-9.67,1.23-19.44.85-29.3.66-99.56-1.71-199.02.95-296.96,10.52,105.91,3.32,213.33,5.21,318.86,27.02,26.93,5.59,62.2,10.24,67.41,41.05,5.4,31.86-30.72,38.78-52.62,51.2-82.87,47.22-164.03,97.19-241.97,152.46,18.39-6.45,34.99-16.02,51.86-24.75,70.64-36.41,139.38-76.71,216.94-97.94,13.37-3.7,28.35-10.05,38.21,4.65,9.77,14.6-2.09,26.74-10.33,37.26-29.3,37.26-60.02,73.48-89.32,110.74-68.27,86.66-135.3,174.17-193.8,267.95,69.12-71.21,136.15-143.93,208.12-211.91,52.72-49.78,106-98.99,159.48-148.01,8.91-8.25,19.06-18.77,33-12.23,14.41,6.73,11.66,21.81,10.24,33.37-2.75,22-7.21,43.9-12.8,65.42-26.74,102.31-53.95,204.42-68.84,309.38,26.93-74.43,47.41-151.23,86.66-220.63,18.39-32.62,35.46-72.72,79.64-71.3,43.8,1.52,58.6,42.19,75.66,75.76,35.65,70.26,49.02,147.53,69.5,231.35,1.8-59.07-10.24-107.61-22.47-155.69-17.07-67.6-38.31-133.97-55.66-201.48-10.33-40.01,8.91-56.41,47.31-42.76,11.66,4.17,22.47,11,33.19,17.45,70.83,42.76,134.16,95.29,193.23,152.84,99.84,97.28,185.93,206.22,268.71,318.29-11.28-25.22-23.89-49.59-38.59-72.63-110.74-173.8-254.39-317.06-412.54-447.15-15.83-12.99-48.83-27.21-35.08-47.98,11.95-18.01,40.77,3.7,59.92,12.8,56.41,26.74,111.79,55.75,167.54,83.82-53.57-43.24-112.64-78.79-154.07-134.73-31-41.91-17.82-72.82,33.66-76.71,42.95-3.22,86.38-4.08,129.42,3.6,68.36,12.23,136.82,24.08,205.27,36.12-103.35-36.12-208.69-60.4-318.39-61.53-16.21-.19-38.97,3.98-43.71-14.98-5.02-20.29,18.77-24.56,32.62-31.95,140.33-74.15,288.43-125.72,445.16-152.84-48.64,2.56-97,6.35-145.07,12.23-119.75,14.7-234.76,46.84-345.41,95.1-12.71,5.5-31.76,18.39-41.72,1.99-9.48-15.83,9.29-27.59,20.57-36.69,46.17-37.45,93.3-73.67,147.34-116.05-21.33,7.59-33.94,12.99-46.93,16.5-56.79,15.08-80.69-8.15-66.75-64.85,9.39-38.12,25.13-73.77,43.42-108.37,61.72-117,136.72-225.66,210.11-335.36-96.9,109.51-177.02,230.31-252.02,355.56Z"/>
  <path class="st0" d="M5130.05,5609.18c80.02-3.7,157.2,11.47,233.53,32.52,206.79,56.98,398.13,151.99,591.93,240.73,155.02,70.92,312.04,137.29,482.61,159.29,312.79,40.2,613.74,11.09,879.31-178.44,126.39-90.17,214.38-209.73,242.63-367.41,43.33-241.87-152.56-491.52-398.89-517.21-262.64-27.4-418.99,160.43-447.34,320.57-24.18,136.25,7.87,250.12,147.44,309.85,3.51,1.52,6.07,5.02,9.77,8.15-50.35,6.54-129.9-37.55-168.49-95.76-64.85-97.75-67.79-204.42-37.74-313.27,57.84-208.88,245-345.51,461.75-351.1,292.6-7.59,621.89,231.54,592.4,634.03-14.51,197.78-116.15,354.04-267.09,475.31-184.6,148.48-400.31,219.12-636.21,237.61-328.06,25.79-624.83-63.81-906.33-224.62-179.01-102.21-353.66-213.05-546.32-289.94-76.14-30.34-153.79-55.75-232.96-80.31Z"/>
  <path class="st0" d="M6325.95,4709.01c74.24,146.3,87.04,295.63,27.21,448.19-74.15,189.44-219.97,296.96-410.36,349.96-219.69,61.06-438.71,43.99-656.69-11.28-6.35-1.61-12.23-5.31-19.06-12.42,174.08-18.58,335.17-73.29,484.6-163.46-67.98,12.89-135.3,29.2-203.57,40.39-92.35,15.17-185.46,20.76-278.47,28.35-39.06,3.22-43.42-4.36-25.69-39.16,50.73-99.65,138.71-158.53,234-207.36,168.2-86.09,349.68-130.18,535.04-158.34,110.46-16.78,208.88-50.35,268.42-153.98,21.71-37.36,30.53-79.27,44.56-120.89Z"/>
  <path class="st0" d="M385.04,6521.68c27.88-15.93,49.3-27.78,70.45-40.3,91.21-53.95,167.16-124.02,228.69-210.77,101.74-143.27,219.5-270.98,372.91-360.77,129.8-75.95,265.96-106.38,411.02-44.56,24.65,10.52,43.33-.09,62.67-10.9,49.97-27.88,92.44-66.28,140.33-97.66-163.56,174.84-345.32,328.34-545.37,460.61,86-42.95,166.59-94.44,244.24-150.28,55.37-39.82,108.09-83.44,162.7-124.4,11.28-8.53,22.76-29.2,37.26-18.49,13.37,9.86,0,29.11-4.46,42.76-70.16,216.65-207.74,375.94-411.88,476.44-211.06,104.01-436.43,115.2-665.51,97.09-31.57-2.56-64-2.47-103.06-18.77Z"/>
  <path class="st0" d="M4471.37,5991.86c167.63,219.12,389.12,322.28,648.34,354.61-196.65-44.09-375.56-123.07-523.95-262.92-148.76-140.33-238.55-312.22-278.95-517.88,21.43,8.06,21.05,23.32,25.32,34.7,79.55,210.2,224.14,342.76,448.19,389.12,183.85,38.12,354.42,109.7,495.41,238.27,133.69,122.22,206.7,274.49,215.23,456.25.57,11.66,6.35,28.82-7.3,34.04-15.36,5.88-18.68-13.18-25.69-22.09-69.59-88.18-158.91-135.21-272.12-142.41-164.03-10.43-323.41-41.15-468.01-125.63-136.06-79.45-223.57-194.47-256.19-349.68-5.12-24.56-7.68-49.21-.28-86.38Z"/>
  <path class="st0" d="M4650.67,5723.53c18.3-13.18,39.44-10.33,59.35-11,275.91-9.2,531.34,64.57,775.3,188.11,240.92,122.03,461.18,277.24,684.37,427.14,278.47,187.07,585.67,281.13,918.57,298.29,293.45,15.17,574.86-29.68,837.88-167.16,117.1-61.16,223.57-136.53,313.55-234,9.2-9.96,16.59-22.66,34.42-27.88.47,21.24-13.94,33.56-23.8,46.74-159.57,212.95-371.48,351.29-623.12,429.32-448,138.81-884.05,97.66-1306.17-99.75-171.42-80.12-318.01-200.63-471.51-309.38-204.89-145.16-408.08-292.79-639.15-395.38-170.67-75.76-347.5-128.19-535.51-135.68-7.68-.09-16.78,1.9-24.18-9.39Z"/>
  <path class="st0" d="M7299.51,6390.93c-209.92,29.87-419.37,37.36-627.01-22.28,68.74.28,137.01-5.5,204.99-12.33,388.46-38.59,727.7-174.27,971.85-495.79,82.77-108.94,139.28-231.44,182.52-360.49,4.36-12.99,8.53-26.17,12.8-39.25,3.89,1.42,8.06,2.09,8.06,3.13,17.35,264.34-31.76,511.53-197.78,725.05-128.47,165.26-304.26,253.06-505.55,295.54-167.06,35.37-335.27,31.86-503.94,16.97-9.01-.76-20.01.09-27.31-16.4,166.3-6.73,327.58-30.34,481.37-94.15Z"/>
  <path class="st0" d="M5844.39,5690.63c176.73,24.08,352.52,32.62,537.51,28.92-60.87-23.04-116.43-34.61-172.28-44.09-56.22-9.58-113.11-15.93-169.34-25.69-57.17-10.05-116.43-3.7-180.05-22.47,59.07-46.08,120.89-72.82,186.41-90.26,190.86-50.73,372.91-17.73,548.69,63.24,77.08,35.46,148.86,81.82,229.83,110.27,101.93,35.84,207.64,51.2,316.4,61.91-3.6,22.38-21.24,27.21-34.42,34.51-161.75,89.6-335.27,122.6-519.49,113.3-251.26-12.71-483.65-89.32-707.41-198.45-11.19-5.5-21.81-12.04-32.52-18.58-1.61-.95-1.42-4.93-3.32-12.61Z"/>
  <path class="st0" d="M5108.15,1559.64c-23.51-21.14-46.93-42.29-70.54-63.34-129.52-115.86-279.23-142.7-447.91-113.68-164.88,28.35-328.25,14.41-481.37-60.68-114.25-56.04-198.16-142.7-250.31-259.32-3.41-7.59-6.35-15.55-8.34-23.61-.76-3.41,1.23-7.59,1.8-10.81,10.62-4.93,17.16,1.8,23.7,6.16,83.15,54.9,171.61,58.88,264.15,28.73,138.15-44.94,278.95-68.93,423.35-38.59,121.46,25.51,218.36,89.32,282.07,198.16,8.72,14.79,21.9,29.01,16.88,55.28-82.11-50.16-168.49-82.68-260.93-97.09-93.01-14.51-185.84-11.76-279.13,9.58,332.9-26.64,601.51,82.68,786.58,369.21Z"/>
  <path class="st0" d="M1230.32,3485.33c-60.78-26.55-120.89-55.09-187.26-65.04-100.22-14.98-197.88-7.77-288.33,42.1-125.44,69.21-254.96,126.86-399.45,140.99-176.36,17.26-331.19-29.77-457.1-158.81-7.49-7.59-18.01-13.94-16.88-26.83,5.03-8.06,12.04-5.78,18.58-4.46,97.66,20.39,184.04-1.33,262.64-63.62,91.31-72.44,190.86-131.41,304.26-162.8,143.74-39.82,279.04-25.03,400.31,68.46,7.77,5.97,15.27,12.23,22.09,19.15,6.54,6.64,18.39,12.8,13.84,23.51-5.31,12.33-16.88,3.7-25.69,2.65-62.29-7.3-123.83-12.71-187.35-5.12-111.5,13.27-213.52,49.97-309.19,108.66,139.28-64.09,284.63-98.13,437.95-86,154.36,12.23,293.17,65.23,411.59,167.16Z"/>
  <path class="st0" d="M3194.5,1983.18c-31.86-60.4-45.61-126.1-50.06-194.09-16.78-257.42,109.61-444.59,297.91-600.37,56.79-46.93,117.67-88.37,182.04-122.97,13.08,11.47,4.27,20.29.57,27.97-40.3,83.63-53.85,171.9-50.54,264.15,4.46,124.87-7.02,248.13-48.73,366.84-40.68,115.48-106.57,208.5-232.01,244.15-20.86,5.97-32.52,20.86-38.78,40.39-12.04,38.12-23.42,76.52-38.87,113.87,13.84-159,46.55-314.22,88.65-468.67-12.23,34.13-25.03,68.08-36.31,102.49-12.14,37.07-23.32,74.52-33.75,112.07-10.33,37.36-19.15,75.09-28.63,112.73-3.89.47-7.68.95-11.47,1.42Z"/>
  <path class="st0" d="M4438.19,331.03c42.29-4.93,83.82,2.09,116.91,23.42,105.34,67.98,224.33,112.55,323.7,190.29,200.82,157.11,277.33,362.76,237.13,613.26-1.33,8.15-2.47,16.78-17.07,23.51-47.12-125.91-100.6-248.79-178.25-359.44,33.75,63.05,64,127.72,90.36,194.18,16.02,40.3,28.82,81.54,37.07,123.92,2.65,13.75,11.76,33.28-4.27,42-12.99,7.21-25.03-8.44-35.84-16.4-123.35-90.93-218.26-205.56-290.13-340.86-44.85-84.39-65.52-177.68-104.3-264.15-40.2-89.51-86.66-174.55-175.31-229.74Z"/>
  <path class="st0" d="M5988.12,1406.99c67.98-96.81,143.36-187.83,222.06-276.57-64.66,54.99-119.56,119.75-179.67,189.06-15.17-269.94,375.75-591.55,713.39-597.9,5.4,11-4.27,14.51-10.05,19.34-69.12,56.32-121.55,125.53-162.51,204.52-53.57,103.35-119.56,198.07-205.94,276.95-73.01,66.84-155.12,113.59-258.75,107.24-30.53-1.9-48.26,18.01-66.75,36.98-14.98,15.45-29.39,31.48-44.09,47.22-2.47-2.28-5.03-4.55-7.68-6.83Z"/>
  <path class="st0" d="M1037.46,5703.05c-111.03,23.42-220.92,46.27-325.21,90.17,60.21-15.08,119.85-32.33,181.48-41.24,30.53-4.46,60.87-7.59,91.5-6.35,14.6.57,36.03-7.96,42.1,7.4,7.11,17.92-14.79,27.69-26.36,38.12-99.37,89.03-214.57,149.24-342.66,185.27-51.01,14.32-103.25,21.52-155.78,28.92-114.44,16.12-228.03,36.69-319.72,135.59,13.56-65.04,40.2-109.51,78.22-146.96,34.89-34.32,65.61-71.87,96.14-109.99,121.36-151.51,274.11-244.24,474.17-237.7,71.77,2.28,142.22,17.07,206.13,56.79Z"/>
  <path class="st0" d="M1053.58,3216.06c-71.59-95.48-146.87-186.79-238.36-263.02,54.23,57.55,107.9,115.67,151.61,181.76,18.87,28.63,56.32,70.16,39.73,89.6-21.33,25.03-62.58-9.58-92.44-23.23-152.08-69.69-271.83-177.59-364.47-316.3-43.52-65.14-91.88-125.91-153.98-174.93-30.81-24.27-66.37-38.87-109.42-54.04,33.19-16.02,61.44-20.2,87.7-13.18,116.81,30.91,238.84,43.71,350.72,91.12,201.1,85.05,312.23,239.41,338.77,455.49.66,5.4.28,11.19-.66,16.59-.57,2.09-3.51,3.79-9.2,10.15Z"/>
  <path class="st0" d="M7345.97,2215.86c59.54-54.8,124.3-95,181.38-145.92-37.17,24.27-74.24,48.55-113.68,74.24,14.41-194.94,423.44-382.86,663.51-309.19-.28,2.56.28,7.11-.85,7.59-115.77,48.45-185.08,153.98-280.27,227.84-55.37,42.95-112.92,81.64-181.29,100.98-37.74,10.71-76.89,21.24-114.92,6.92-43.24-16.31-78.03-5.5-112.36,20.86-9.96,7.59-20.01,18.96-41.53,16.69Z"/>
  <path class="st0" d="M2999.18,1439.89c5.4,51.11,11.38,102.21,15.83,153.41,1.14,12.99,6.16,31.48-8.44,38.02-17.45,7.87-26.74-10.81-36.5-21.24-81.54-86.66-114.16-193.14-118.33-308.81-3.13-89.03,2.37-178.35-17.16-266.24-5.03-22.76-12.42-45.13-19.25-69.5,5.78-.38,10.71-2.28,12.89-.57,128.66,100.88,233.24,219.21,275.06,382.58,22.85,89.22,8.15,173.89-31.38,255.43-3.89,7.96-5.59,21.14-18.96,18.01-9.67-2.28-8.63-12.99-10.43-20.86-12.71-54.04-25.41-108.09-38.21-162.13-1.61.57-3.41,1.23-5.12,1.9Z"/>
  <path class="st0" d="M8399.17,4115.47c-97.19-61.63-207.64-79.83-314.6-108.94-113.21-30.81-210.3-88.84-277.24-188.78-8.25-12.14-24.27-26.36-14.7-40.68,10.34-15.55,28.35-2.75,42.38.66,52.72,12.99,102.49,34.7,155.31,49.78-49.78-25.22-99.56-50.25-149.14-75.66-9.58-4.93-25.41-7.59-24.65-19.53.95-16.4,19.06-13.75,30.25-15.74,99.75-17.54,194.37-4.74,280.75,50.82,130.37,83.82,211.06,206.98,271.64,348.07Z"/>
  <path class="st0" d="M1685.24,6091.98c16.31,135.3,81.16,245.19,168.96,343.32,46.55,52.05,98.61,98.42,153.6,141.46,6.26,4.84,16.4,8.63,14.7,18.39-1.9,10.9-12.71,9.2-20.48,9.29-76.52,1.04-153.13,4.93-228.41-15.83-169.15-46.74-241.78-161.28-208.31-333.94,9.2-47.31,19.91-94.72,48.64-150.09,17.45,86.19,11.28,165.36,47.88,245.29-8.53-93.2-20.86-178.25,23.42-257.9Z"/>
  <path class="st0" d="M2163.01,1409.36c-40.2-.66-73.29-34.89-73.1-75.66.19-40.87,37.64-76.23,78.98-74.52,39.92,1.71,71.3,36.69,70.07,78.22-1.23,41.62-33.94,72.63-75.95,71.96Z"/>
  <path class="st0" d="M2583.51,1356.46c-.09,40.77-32.9,73.67-74.15,74.24-39.82.57-75-33.09-76.04-72.72-1.04-42,33.56-76.52,76.42-76.23,40.39.28,73.77,34.23,73.77,74.71Z"/>
  <path class="st0" d="M2208.24,1074.29c-39.16.57-75.09-34.23-75.95-73.39-.76-40.11,36.79-77.56,77.08-76.89,38.59.66,71.49,33,72.91,71.49,1.61,42.95-31.57,78.22-74.05,78.79Z"/>
  <path class="st0" d="M2440.63,1015.41c.66-41.81,34.61-75.66,74.33-74.33,40.49,1.42,74.15,36.69,73.2,76.71-.95,40.77-35.37,74.43-75.76,74.24-40.39-.19-72.44-34.51-71.77-76.61Z"/>
  <path class="st0" d="M2183.02,1238.51c-42.95.19-75.95-31.48-75.47-72.34.47-39.44,35.93-74.71,75.38-75,39.92-.28,74.62,33.85,75.47,74.43.76,39.25-33.85,72.82-75.38,72.91Z"/>
  <path class="st0" d="M2510.89,1263.54c-40.58-.09-75.38-34.13-75.57-73.77-.09-39.16,35.46-73.86,75.66-73.86s75.66,35.18,75.66,73.96-35.84,73.67-75.76,73.67Z"/>
  <path class="st0" d="M2362.97,806.34c39.73.09,74.43,35.08,74.33,74.9-.09,41.43-32.14,72.53-75.09,72.82-43.43.28-72.82-29.68-72.44-73.67.47-43.71,30.44-74.15,73.2-74.05Z"/>
  <path class="st0" d="M7385.69,1449.94c-.95,31.95-17.64,49.78-45.89,51.01-30.53,1.33-50.06-16.4-50.63-47.98-.57-29.39,17.35-48.07,45.42-49.4,30.53-1.42,47.79,17.64,51.11,46.36Z"/>
  <path class="st0" d="M7250.39,1620.23c-4.55,29.68-17.92,50.63-47.12,51.77-30.34,1.23-51.29-16.21-51.77-47.31-.47-30.44,17.26-49.11,49.4-49.11,30.53.09,42.57,20.76,49.49,44.66Z"/>
  <path class="st0" d="M7219.58,1542.2c1.99-32.52,17.16-50.92,49.3-50.16,29.58.76,46.93,19.06,47.22,47.12.19,30.25-18.87,49.87-49.59,49.02-27.78-.66-45.23-17.73-46.93-45.99Z"/>
  <path class="st0" d="M7032.22,1523.99c-28.82-2.28-45.51-17.54-44.94-48.07.47-29.96,17.45-46.65,46.36-49.02,26.64-1.99,52.24,24.65,49.21,51.11-3.22,28.54-19.15,45.7-50.63,45.99Z"/>
  <path class="st0" d="M7312.5,1372.38c-29.01-4.46-48.83-20.57-46.93-51.48,1.71-28.16,20.48-45.32,49.49-45.13,32.14.28,47.41,19.72,46.46,50.73-.95,30.06-19.34,43.8-49.02,45.89Z"/>
  <path class="st0" d="M7187.72,1274.35c32.24,3.22,49.21,18.49,48.64,48.92-.57,30.15-18.58,47.22-47.41,47.6-29.01.28-48.55-17.73-49.02-46.46-.66-30.91,19.63-47.22,47.79-50.06Z"/>
  <path class="st0" d="M7061.9,1398.74c1.8-30.44,16.59-47.69,46.84-48.36,30.15-.66,46.65,16.12,49.78,45.04,2.84,26.55-22.38,53-48.92,50.92-28.73-2.28-44.94-19.15-47.69-47.6Z"/>
</svg>