<?xml version="1.0" encoding="UTF-8"?>
<!-- Generator: Adobe Illustrator 25.2.3, SVG Export Plug-In . SVG Version: 6.00 Build 0)  -->
<svg xmlns="http://www.w3.org/2000/svg" xmlns:xlink="http://www.w3.org/1999/xlink" version="1.1" id="Layer_1" x="0px" y="0px" viewBox="0 0 8640 4634" style="enable-background:new 0 0 8640 4634;" xml:space="preserve">
<style type="text/css">
	.st0{opacity:0.15;}
	.st1{fill-rule:evenodd;clip-rule:evenodd;fill:#FFFFFF;}
</style>
<g class="st0">
	<path class="st1" d="M4941.5,4622.9c-107.4-17.8-193.5-72.6-267.3-150.7c-52.6-55.6-115.4-92.4-192.5-108.8   c-158.9-33.8-249.3-151.5-250.6-314.5c-1.1-141.8,49.2-269,109.8-393.1c88.1-180.5,203.3-343.7,326-501.9   c30.9-39.9,62.5-79.4,92.7-120c-63.4,58.5-120,123.4-176.9,188.2c-80.9,92-140.3,199.2-213.5,296.5   c-77.2,102.7-162.8,197.3-273.7,264.9c-68,41.4-140.5,67.7-222.4,51.5c-63.9-12.6-115.6-46.7-157.8-94.4   c-61.3-69.2-141-99-229-110.4c-94.8-12.4-182.3-41.8-258-101.2c-108.8-85.3-146.5-200.4-134.9-334.2c5.7-65.3,24.2-127.9,45.1-190   c28.7-85.5,44.6-173.4,40.2-264.2c-7.7-156.6,57-257.1,203.7-314.4c113.8-44.5,233.1-52.5,353.6-48.4c245.9,8.3,484.5,60,721,124.1   c1.6,0.5,3.7-0.5,9.3-1.5c-94.1-40.4-183-84.4-268.3-135.1c-159.6-94.8-307.2-203.7-415.1-358.4   c-68.1-97.6-108.2-205.1-105.9-325.2c1.6-84.9,24.1-165.6,63.3-241.1c37.9-73.1,65.1-149.7,82.9-230.2   c33.2-150.4,185.8-281.5,339.6-299.8c127-15.1,245.9,12.4,362.1,58.9c34.5,13.8,38.7,12.5,40-24.1c3.6-106.2,14.4-211.7,29.6-316.8   c2.5-17.5,5.8-34.9,17.2-49c17.8-22,45.6-17.6,55.2,8.9c7.8,21.5,6.6,44,5.4,66.5c-5.9,106.2-5.4,212.3-0.3,318.5   c1.4,28.3,13.1,31,34.4,23.1c28.3-10.5,56.3-21.9,86.3-26.8c116.8-19.2,211.7,26.8,269.7,130.3c44.7,79.8,63.7,167.1,74,256.6   c22.3,193.2,4.5,385.1-21.8,576.6c-9.3,67.4-20.1,134.6-29.1,202.2c25.9-88.6,52.8-176.8,82.7-264.1   c76.2-222.6,161.7-441.2,284.6-643.1c58-95.3,122.7-185.6,209.8-257.3c56.6-46.5,118.7-81,193.1-90.5   c81.1-10.4,154.1,12.7,217.2,59.6c61.6,45.8,127.3,70.5,203.3,79.6c100,12,193,47.1,272.1,112.3c99.5,81.9,136.5,189.1,123.4,314.9   c-6.3,60.2-13.3,120.1-2,180.3c3.9,21.2,9.5,41.8,18.3,61.4c61.3,136.6,39.6,262.8-51.3,377.9c-83.1,105.2-197.9,165-319.5,213.8   c-142.8,57.3-293.3,84.9-443.1,115.5c-138.5,28.3-275.5,63-404.6,122.9c-13.1,6.1-25.7,13.1-37.5,21.8   c94.5-20.4,188.8-42,283.6-60.9c182.5-36.2,366.1-65.2,552.1-77.1c139.3-8.9,278.4-12.4,416.7,12.3c41.3,7.3,81.7,18.4,120.8,33.8   c135.8,53.5,191,158.4,153,299c-19.3,71.5-40,142.1-46.6,216.5c-2.7,29.9,1.4,58.6,5.4,86.9c17.4,124.9-30.6,220-127.8,294.3   c-27.2,20.8-56.6,38.8-88.7,50.6c-82.9,30.5-136.7,89.4-174.5,167.3c-50.6,104.2-128.6,175.9-247.4,192.5   c-80.1,11.3-154.9-10.9-226.1-45.2c-131.2-63-238.9-157.2-339.4-260.3c-125.6-128.7-236.1-270-340.7-415.9   c-4.5-6.2-8.9-12.5-15-17.8c15.3,40.6,37.3,77.8,58.7,115.1c56.1,97.7,125.8,185,199.1,270.3c97.9,113.7,179.8,237.9,231.6,380   c27.8,76.2,41.9,154.7,30.6,235.4c-16,114.4-82.2,196.1-178.7,254.1c-52.5,31.5-108.4,57.6-162.1,87.4   c-55.5,30.8-106.6,67.9-154.9,109.5c-93.3,80.4-200.5,133.7-322.8,154.5C5019.5,4622.9,4980.5,4622.9,4941.5,4622.9z    M4486.8,2372.1c5.8,5.1,11.5,10.2,17.4,15.2c72.4,60.9,147.3,118.6,222.9,175.4c17.5,13.2,40.4,28.6,32.1,54   c-7.9,24.2-35.2,22.8-55.7,22.9c-129.9,0.6-257.8,21.4-386.1,39.5c137.3-12.5,274.5-1.5,411.8-0.1c19.9,0.2,53.2-2.3,54.8,12.9   c2.3,22.1-29.8,21.7-48.1,26.3c-179.1,44.5-352.2,107.4-525.6,169.4c-56.7,20.2-112.8,42-169.2,63c170-47.7,340.7-91.5,512.9-129.4   c75.2-16.6,150.4-32.5,225.9-47.6c14.4-2.9,34.4-8.7,42.7,8c8.5,17-8.3,28.3-20,38c-26.2,21.8-53.1,42.9-79.9,63.9   c-67.9,53.3-133,109.8-195,169.8c58-39.4,114.4-80.7,172.4-119.6c49.3-33.1,99.1-66.2,156.3-84.8c16.4-5.3,34.7-13.1,49.5,2.4   c15.8,16.6,6.7,34.8-0.7,51.7c-30,68.8-57.3,138.7-82.2,209.5c-19.2,54.7-37.3,109.8-55.9,164.7c9.5-10.8,14.6-23.2,20-35.6   c37.4-86.8,73.4-174.3,120.7-256.5c12.6-22,25.2-44.3,43.9-61.8c17-15.9,30.3-11.9,35.7,10.5c2.5,10.3,2.4,21.3,2,31.9   c-1.4,43.8-4.8,87.6-4.9,131.5c-0.4,221.3,8.3,442.3,18.7,663.4c-2.1-95.5,6.7-190.6,14.3-285.5c10.9-135.9,25.7-271.4,39.4-407.1   c5.2-51.3,11.4-102.5,18.3-153.6c1.7-12.9,2.2-30.4,17.6-34.3c17.6-4.3,24.4,12.9,32.4,24.5c18,25.9,27.9,55.7,39.9,84.4   c48,115.2,100.3,228.2,162.4,337.4c1.5-2,2.6-2.9,2.4-3.3c-2.9-7.2-6.1-14.3-9.1-21.4c-39.8-96.5-78.7-193-91.8-297.9   c-9.7-77.8,30-111.6,103.7-85.5c20.1,7.1,39.3,17.1,58,27.5c35.9,19.9,69.3,43.6,101.5,69c37.9,30,75.1,61,119.2,97.1   c-28-36.5-54.4-62.3-81.8-87.4c-73.5-67.4-153.2-126.6-236.1-181.9c-19.1-12.7-44.4-25.7-37.2-53.6c6.7-25.8,33.6-25.8,55.5-29.1   c51.1-7.7,102.6-12.3,154.3-10.4c123,4.6,244.3,21.5,364.1,49.6c75.1,17.6,149.4,38.2,224,58.1c-7.9-6.3-16.2-11.2-25-15   c-25-10.7-49.9-22.2-75.6-31.2c-188.3-66.1-383.2-94.8-581.9-101.7c-38.9-1.4-77.7-4.5-116.5-7.7c-7.2-0.6-17.6-1.6-18-11.5   c-0.5-9.3,9.2-12,16.3-14.2c17.6-5.6,35.4-10.7,53.4-15.1c82.9-20.3,167.4-31.9,251.1-48.9c-66.2,7-132.5,6.7-198.8,5.6   c-33.3-0.6-66.4-4.4-97.3-17.2c-31.4-12.9-37.5-35.7-17.6-63c17.5-23.8,40.4-42.1,64.6-58.9c96.5-67.2,202.6-116.5,308.7-166   c4.7-2.2,13.7-0.2,13.3-9.8c-118,32.8-281.5,114.5-380.3,189.6c-8.5,6.4-17.3,13.3-27,17.1c-13.4,5.4-21.1-0.8-18.9-15.5   c1.2-7.6,4.1-15.1,7.2-22.2c41.9-94.7,91.1-185.4,150.2-270.6c42.6-61.4,89.5-119.4,138.8-175.7   c-132.8,109.1-247,234.1-332.2,384.2c-12,21.1-25.6,41.4-38.9,61.7c-3.8,5.7-9.5,11.2-17,9.2c-9.6-2.7-9.8-12.1-8.7-19.4   c3.9-25,7.4-50.2,13.7-74.6c15.1-58.2,31.6-116.1,47.6-174.1c-14.6,23.4-25.5,48.5-41.8,70.5c-35.7,48.2-69.7,45-95.5-9.3   c-2.5-5.3-4.6-10.8-6.8-16.2c-22.4-57.7-32.3-118.3-40.6-179.1c-17.4-128.5-28.5-257.5-30-387.3c-0.1-13.2-2.9-26.2-4.4-39.4   c-10.1,183.6-5,366.3,23.8,548.4c-50-100.3-88.7-204-122.1-309.7c-33.7-106.9-63.3-214.9-88.7-324.1   c-24.9-107-47.1-214.5-66.7-322.6c-0.7,7-0.9,13.8-0.1,20.6c27.1,210.9,65.5,419.6,128.2,623.2c70.2,228,156,449.3,288.7,649.7   c16.2,24.5,27.9,51.4,35.3,79.9c17.8,68.7-5.9,125.9-65.8,159.3c-59.9,33.4-120.7,22.8-169.3-29.6c-17.3-18.7-32-39.5-42.6-62.6   c-64.8-142.1-118.4-288.4-161.6-438.5c-83.2-289.3-128-584.7-142.3-890.1c-4.2,169,7.4,332.3,30.8,494.3   c30.4,210.6,77.8,417.4,153.4,617c3,7.9,10.5,17.6,4.7,24.6c-7,8.4-18.1,2.5-27.4,0.1C4637.5,2468,4561.8,2422.4,4486.8,2372.1z"></path>
	<path class="st1" d="M7001.3,0c-23.4,121.8,0.9,235.1,55.9,345c49.2,98.4,78.5,204.1,84.7,314.2c8.8,158.2-42.9,287.6-189.4,366.4   c-16.8,9.1-20.2,20.5-18.5,38c8.8,89.3,20.8,178,42.5,265.2c1.4,5.7,3.4,11.1-4.4,22.1c-95-258.6-135.1-520.5-119.4-791.3   c-9.1,41.5-11.4,83.7-15.9,125.8c-4.6,42.9-2.6,85.7-3.8,128.5c-1.1,43.9,1.7,87.7,6.1,131.3c4.1,42.5,8.8,84.9,13.5,130   c-20.5-3.6-30.3-17.8-41.6-28.4c-183.2-173.6-228.2-425.5-118.1-660.1c67-142.8,167.3-260,281-367c7.1-6.7,14.3-13.2,21.5-19.8   C6997.4,0,6999.3,0,7001.3,0z"></path>
	<path class="st1" d="M7698,2155.5c201.1,97.4,397.9,198.1,573.5,335.4c52.4,41,101.1,86,138.8,141.4c25,36.8,43.8,76.5,40.8,122.4   c-3.7,55.7-37.3,93.1-80.8,122.2c-55.9,37.4-101.2,83.5-136.9,141.4c-47.7,77.3-140.4,104.1-244.1,74.9   c-47.5-13.4-93.2-10.3-136.3,11.5c-152.3,76.9-263.3,7-322.3-125.3c-38.4-86.2-54.8-178.2-63.2-271.8   c-9.7-109.6-12.5-219.4-6.3-329.5c-16.9,76.3-26.7,153.4-22,231.3c7.3,121.5,3.6,241.3-37.2,357.8c-24.1,69-63.5,124.4-131.3,156.2   c-56.6,26.5-115.1,24.6-174.4,12c-24.7-5.2-49.7-13.5-74.4-13.3c-32,0.3-37.3-17.9-38.9-42c-5-76.5,2.5-151.7,25.6-225   c17.9-56.8,34.2-114.3,37-173.9c6-125.3-52.9-214.5-160-273.9c-76.4-42.3-160-60-246.6-65.3c-8.1-0.5-20.4,3.7-23.2-6.7   c-2.9-10.8,10.2-12.5,17.1-16.4c145.9-82.3,305.2-127.1,466.3-167.1c8.1-2,16.1-4.1,23.7-7.6c-92.9,11.9-184.6,28.7-273.2,59.6   c-92.4,32.2-186.3,57.1-285.2,56.7c-9.5-0.1-19.5,2.5-29.5-4.1c3.9-13,17-14.9,26-20.8c146.5-94.9,220.7-229.8,221.4-404   c0.2-50-15.2-98.1-28.7-145.9c-17.4-61.6-26.4-123.6-17.1-187.5c10-68.4,8.1-135.8-22.1-202.8c18.4-2.1,30.7,6.2,42.9,12.6   c109.1,56.5,196.3,139.7,278.9,228.8c55.5,59.9,106.4,123.6,159.1,186.3c-19.3-43.2-39.3-86.1-57.7-129.6   c-43.4-102.1-74.9-207.7-76.7-319.3c-2.2-137.2,36.3-266.9,202.4-349.4c47.4-23.5,92.3-49.9,133.6-83.2   c99.4-80,247.3-70.8,348.9,20.6c42.4,38.1,78.9,81.3,105,132.1c11.3,21.9,18.9,18.4,32.3,2.7c41.8-49,85.4-96.4,132.5-140.3   c14.8-13.8,33-37.9,54-18.2c21.5,20.2-2.6,39.2-15.5,54.6c-42.9,51.8-84.2,104.9-124.7,158.6c-14.2,18.9-9.4,26.8,10.3,32.5   c3.7,1.1,7.6,1.9,11.3,3.1c98,31.6,142.3,108.7,119.1,209.6c-20.8,90.8-72.3,165.4-128.6,237.1c-72.5,92.2-154.7,175.3-240.7,255.2   c60-39.7,119-80.9,180.2-118.5c139-85.5,280.4-165.6,440.5-206.1c42.7-10.8,85.9-16.6,130.1-15.8c96.2,1.8,169.5,52.1,197.6,144.3   c15.3,50.2,39.2,92.1,76.8,128.3c32.5,31.3,55.7,70.1,73.6,111.7c42.6,98.9,24.5,192-53.2,267.6c-40.6,39.5-70.5,83.9-85.9,139.8   c-24.6,89.3-111.8,152.5-209.7,160.5c-130.2,10.7-248.2-31.2-362.8-84.5c-104.2-48.5-204.4-105.7-314.9-140.2   C7748.3,2169,7723,2162.5,7698,2155.5z M7591.2,1795.4c16.8-91.3,48.1-177.5,82-262.8c34.1-85.7,73-169.3,112.1-252.9   c-14,21.3-26.2,43.4-37.9,65.8c-103.2,197.3-182,402.9-213.7,624.6c-5.1,35.5-3.8,72.1-17.4,106.3c-16.2,40.8-52.7,64.6-93.3,60.8   c-45.1-4.2-71.2-28.7-81-75.1c-5.3-24.8,0-48.4,5.9-72.2c50.3-206.1,133.9-398.6,240.1-581.7c17.2-29.6,35.2-58.7,52.8-88   c-5.8,0.8-8.7,3.3-10.8,6.4c-107.3,159.2-195.8,327.9-255.8,510.8c-2.6,7.9-1,20.4-11.1,22.1c-11.1,1.9-15-10.5-20.5-17.9   c-25.7-34.6-40.9-74.7-57.9-114c10.8,50.7,23.7,100.6,36.2,150.6c4.2,16.8,12.3,37-4.7,48.7c-16.6,11.5-29.9-6.5-43.7-14.6   c-3.3-2-6.1-4.8-9.3-7.1c-47-34.2-96.4-64.5-147.5-92.2c54.2,45.9,109.3,90.3,163.8,135.5c8.9,7.4,27.3,14.4,19.5,27.7   c-6.4,10.8-21.6-0.3-31.6-4.8c-60.6-27.1-122.5-50.7-185.2-72.1c-50.1-17.1-100.5-32.9-150.8-49.4c3.6,6.9,8.8,9.2,14.1,11.4   c109.4,44.5,215.4,96,319,152.6c9,4.9,22.4,8.9,19,22.3c-3.2,12.3-16.6,11.6-27,12.9c-6.7,0.8-13.6,0.6-20.5,0.4   c-69.6-1.2-139.1,0.6-207.6,7.4c74,2.3,149.1,3.7,222.9,18.9c18.8,3.9,43.5,7.2,47.1,28.7c3.8,22.3-21.5,27.1-36.8,35.8   c-58,33-114.6,68-169.1,106.6c12.8-4.5,24.5-11.2,36.3-17.3c49.4-25.4,97.4-53.6,151.6-68.4c9.3-2.6,19.8-7.1,26.7,3.2   c6.8,10.2-1.4,18.7-7.2,26c-20.5,26.1-41.9,51.4-62.4,77.4c-47.7,60.6-94.6,121.7-135.5,187.3c48.3-49.8,95.2-100.6,145.4-148.1   c36.8-34.8,74.1-69.2,111.5-103.5c6.2-5.8,13.3-13.1,23.1-8.5c10.1,4.7,8.1,15.2,7.1,23.3c-1.9,15.4-5.1,30.7-9,45.7   c-18.7,71.5-37.7,142.9-48.1,216.3c18.8-52,33.1-105.7,60.5-154.2c12.9-22.8,24.8-50.9,55.7-49.8c30.6,1.1,40.9,29.5,52.9,53   c24.9,49.1,34.3,103.1,48.5,161.7c1.3-41.3-7.2-75.2-15.7-108.8c-11.9-47.2-26.8-93.7-38.9-140.9c-7.2-28,6.2-39.5,33-29.9   c8.1,2.9,15.7,7.7,23.2,12.2c49.5,29.9,93.8,66.6,135.1,106.8c69.8,68,129.9,144.1,187.8,222.5c-7.9-17.6-16.7-34.7-27-50.8   c-77.4-121.4-177.8-221.6-288.3-312.6c-11.1-9.1-34.1-19-24.5-33.5c8.4-12.6,28.5,2.6,41.9,8.9c39.4,18.7,78.1,39,117.1,58.6   c-37.4-30.2-78.7-55.1-107.7-94.2c-21.7-29.3-12.5-50.9,23.5-53.6c30-2.3,60.4-2.8,90.4,2.5c47.8,8.6,95.6,16.8,143.5,25.2   c-72.2-25.3-145.9-42.2-222.5-43c-11.3-0.1-27.3,2.8-30.5-10.5c-3.5-14.2,13.1-17.2,22.8-22.3c98.1-51.8,201.6-87.9,311.1-106.8   c-34,1.8-67.8,4.4-101.4,8.6c-83.7,10.3-164.1,32.8-241.4,66.5c-8.9,3.9-22.2,12.9-29.1,1.4c-6.7-11.1,6.5-19.3,14.4-25.6   c32.3-26.2,65.2-51.5,103-81.1c-14.9,5.3-23.7,9.1-32.8,11.5c-39.7,10.5-56.4-5.7-46.7-45.3c6.5-26.7,17.6-51.5,30.4-75.8   c43.1-81.8,95.6-157.7,146.9-234.4C7699.6,1623.4,7643.7,1707.8,7591.2,1795.4z"></path>
	<path class="st1" d="M6573.4,3794.3c55.9-2.6,109.9,8,163.2,22.7c144.5,39.8,278.3,106.3,413.8,168.3   c108.4,49.6,218.1,96,337.3,111.3c218.7,28.1,429,7.8,614.6-124.8c88.3-63.1,149.9-146.6,169.6-256.8   c30.3-169.1-106.7-343.6-278.8-361.5c-183.6-19.1-292.8,112.2-312.7,224.1c-16.9,95.3,5.5,174.9,103.1,216.6c2.4,1,4.2,3.5,6.8,5.7   c-35.2,4.6-90.8-26.3-117.8-66.9c-45.3-68.3-47.4-142.9-26.3-218.9c40.4-146,171.3-241.5,322.8-245.4   c204.5-5.3,434.7,161.9,414.1,443.1c-10.1,138.2-81.2,247.4-186.7,332.2c-129.1,103.8-279.8,153.1-444.7,166.1   c-229.3,18-436.7-44.6-633.5-157c-125.1-71.4-247.2-148.9-381.9-202.6C6683.1,3829.2,6628.8,3811.4,6573.4,3794.3z"></path>
	<path class="st1" d="M7409.4,3165.1c51.9,102.3,60.8,206.7,19,313.3c-51.9,132.4-153.7,207.6-286.8,244.6   c-153.5,42.7-306.6,30.8-459-7.9c-4.5-1.1-8.6-3.7-13.3-8.7c121.7-13,234.3-51.2,338.7-114.3c-47.5,9-94.6,20.4-142.3,28.2   c-64.5,10.6-129.6,14.5-194.6,19.8c-27.3,2.3-30.4-3.1-18-27.4c35.5-69.6,97-110.8,163.6-144.9c117.6-60.2,244.4-91,374-110.7   c77.2-11.7,146-35.2,187.6-107.6C7393.4,3223.5,7399.6,3194.2,7409.4,3165.1z"></path>
	<path class="st1" d="M3256.8,4432.1c19.5-11.1,34.5-19.4,49.2-28.2c63.8-37.7,116.8-86.7,159.9-147.3   c71.1-100.1,153.4-189.4,260.6-252.1c90.7-53.1,185.9-74.4,287.3-31.1c17.2,7.3,30.3-0.1,43.8-7.6c34.9-19.5,64.6-46.3,98.1-68.2   c-114.4,122.2-241.4,229.5-381.2,322c60.1-30,116.4-66,170.8-105c38.7-27.9,75.6-58.3,113.7-87c7.9-5.9,15.9-20.4,26-13   c9.3,6.9,0,20.3-3.1,29.9c-49,151.4-145.2,262.7-287.9,333.1c-147.6,72.7-305,80.5-465.2,67.9   C3306.7,4443.4,3284.1,4443.5,3256.8,4432.1z"></path>
	<path class="st1" d="M6113.1,4061.8c117.2,153.2,272,225.2,453.2,247.8c-137.4-30.8-262.5-86-366.2-183.8   c-104-98.1-166.7-218.2-195-362c15,5.6,14.7,16.3,17.7,24.3c55.6,146.9,156.7,239.5,313.2,272c128.5,26.6,247.7,76.6,346.3,166.6   c93.5,85.4,144.5,191.9,150.5,318.9c0.4,8.1,4.4,20.1-5.1,23.8c-10.7,4.1-13.1-9.2-18-15.4c-48.6-61.6-111.1-94.5-190.2-99.6   c-114.6-7.3-226.1-28.8-327.1-87.8c-95.1-55.5-156.3-135.9-179.1-244.4C6109.7,4105,6107.9,4087.8,6113.1,4061.8z"></path>
	<path class="st1" d="M6238.4,3874.2c12.8-9.2,27.6-7.2,41.5-7.7c192.8-6.5,371.4,45.2,541.9,131.5   c168.4,85.3,322.3,193.8,478.4,298.6c194.6,130.8,409.4,196.5,642,208.5c205.1,10.6,401.8-20.8,585.7-116.8   c81.8-42.8,156.2-95.4,219.2-163.5c6.5-7,11.6-15.9,24.1-19.5c0.3,14.9-9.7,23.5-16.6,32.7c-111.5,148.8-259.7,245.5-435.5,300.1   c-313.1,97-618,68.3-913-69.7c-119.8-56-222.3-140.2-329.6-216.3c-143.2-101.4-285.3-204.6-446.7-276.4   c-119.3-53-242.9-89.6-374.3-94.8C6249.9,3880.7,6243.5,3882.1,6238.4,3874.2z"></path>
	<path class="st1" d="M8089.9,4340.7c-146.7,20.8-293.1,26.1-438.3-15.6c48.1,0.2,95.7-3.9,143.3-8.6   c271.5-26.9,508.7-121.8,679.3-346.5c57.8-76.2,97.3-161.8,127.6-252c3.1-9.1,5.9-18.3,9-27.4c2.7,1,5.6,1.5,5.6,2.2   c12.1,184.8-22.2,357.5-138.2,506.8c-89.8,115.5-212.7,176.9-353.4,206.6c-116.8,24.7-234.4,22.3-352.2,11.9   c-6.3-0.6-14,0.1-19.1-11.5C7869.6,4401.8,7982.3,4385.3,8089.9,4340.7z"></path>
	<path class="st1" d="M7072.8,3851.2c123.5,16.8,246.4,22.8,375.7,20.2c-42.5-16.1-81.4-24.2-120.4-30.8c-39.3-6.7-79-11.1-118.3-18   c-40-7-81.4-2.6-125.8-15.7c41.3-32.2,84.5-50.9,130.3-63.1c133.4-35.4,260.7-12.4,383.5,44.2c53.9,24.8,104.1,57.2,160.6,77.1   c71.3,25.1,145.1,35.8,221.2,43.3c-2.5,15.6-14.8,19-24.1,24.1c-113.1,62.6-234.4,85.7-363.1,79.2   c-175.6-8.8-338.1-62.4-494.4-138.7c-7.8-3.8-15.3-8.4-22.7-13C7073.9,3859.4,7074.1,3856.6,7072.8,3851.2z"></path>
	<path class="st1" d="M6558.1,963.7c-16.4-14.8-32.8-29.5-49.3-44.2c-90.5-81-195.2-99.7-313.1-79.4   c-115.2,19.8-229.4,10.1-336.5-42.4c-79.9-39.2-138.5-99.8-174.9-181.3c-2.4-5.3-4.4-10.8-5.8-16.5c-0.6-2.4,0.9-5.3,1.3-7.5   c7.4-3.4,12,1.3,16.6,4.3c58.2,38.4,119.9,41.2,184.7,20.1c96.6-31.4,194.9-48.2,295.9-27c84.9,17.8,152.7,62.4,197.2,138.5   c6.1,10.4,15.3,20.3,11.8,38.6c-57.4-35-117.8-57.8-182.4-67.9c-65-10.1-129.9-8.2-195.1,6.7C6241.1,687,6428.7,763.5,6558.1,963.7   z"></path>
	<path class="st1" d="M3847.6,2309.8c-42.5-18.6-84.5-38.5-130.9-45.4c-70-10.5-138.3-5.4-201.5,29.4   c-87.7,48.4-178.2,88.7-279.2,98.5c-123.2,12.1-231.5-20.8-319.5-111c-5.2-5.3-12.6-9.8-11.8-18.8c3.5-5.6,8.4-4.1,13-3.1   c68.2,14.2,128.6-0.9,183.6-44.4c63.8-50.6,133.4-91.8,212.6-113.8c100.5-27.8,195-17.5,279.8,47.8c5.4,4.2,10.7,8.6,15.5,13.4   c4.6,4.6,12.9,8.9,9.7,16.4c-3.7,8.6-11.8,2.6-18,1.9c-43.5-5.1-86.6-8.9-130.9-3.6c-77.9,9.3-149.3,34.9-216.1,75.9   c97.3-44.8,199-68.6,306.1-60.1C3667.8,2201.5,3764.9,2238.5,3847.6,2309.8z"></path>
	<path class="st1" d="M5220.5,1259.8c-22.3-42.2-31.9-88.2-35-135.7c-11.7-180,76.6-310.8,208.2-419.6   c39.7-32.8,82.2-61.8,127.3-85.9c9.1,8,3,14.2,0.4,19.5c-28.2,58.5-37.7,120.1-35.3,184.6c3.1,87.3-4.9,173.4-34,256.4   c-28.5,80.8-74.5,145.7-162.2,170.6c-14.6,4.2-22.7,14.5-27.1,28.3c-8.4,26.7-16.4,53.5-27.2,79.6c9.7-111.1,32.5-219.6,62-327.6   c-8.5,23.9-17.5,47.6-25.4,71.7c-8.5,25.9-16.3,52.1-23.6,78.3c-7.2,26.1-13.4,52.5-20,78.8   C5225.9,1259.1,5223.2,1259.5,5220.5,1259.8z"></path>
	<path class="st1" d="M6089.9,105c29.6-3.4,58.6,1.5,81.7,16.4c73.6,47.5,156.8,78.7,226.3,133c140.4,109.8,193.8,253.5,165.7,428.6   c-0.9,5.7-1.7,11.7-11.9,16.5c-33-88-70.4-173.9-124.6-251.2c23.6,44.1,44.8,89.3,63.2,135.7c11.2,28.2,20.2,57,25.9,86.6   c1.9,9.6,8.2,23.2-3,29.4c-9.1,5-17.5-5.9-25-11.4c-86.2-63.5-152.6-143.7-202.8-238.2c-31.3-59-45.8-124.2-72.9-184.6   C6184.3,203,6151.8,143.5,6089.9,105z"></path>
	<path class="st1" d="M7173.2,857.1c47.5-67.6,100.2-131.3,155.2-193.3c-45.2,38.4-83.6,83.7-125.6,132.1   c-10.6-188.7,262.7-413.5,498.7-417.9c3.8,7.7-3,10.2-7,13.5c-48.3,39.4-84.9,87.7-113.6,143c-37.4,72.2-83.6,138.4-144,193.6   c-51,46.7-108.4,79.4-180.8,75c-21.3-1.3-33.7,12.6-46.6,25.9c-10.5,10.8-20.5,22-30.8,33C7176.8,860.2,7175.1,858.6,7173.2,857.1z   "></path>
	<path class="st1" d="M3712.8,3859.9c-77.6,16.3-154.4,32.3-227.3,63c42.1-10.6,83.8-22.6,126.9-28.8c21.4-3.1,42.5-5.3,63.9-4.4   c10.2,0.4,25.2-5.6,29.4,5.2c5,12.5-10.3,19.3-18.4,26.6c-69.4,62.2-150,104.3-239.5,129.5c-35.6,10-72.2,15-108.9,20.2   c-80,11.3-159.4,25.7-223.5,94.8c9.5-45.4,28.1-76.6,54.7-102.7c24.4-24,45.8-50.2,67.2-76.9c84.8-105.9,191.6-170.7,331.5-166.2   C3618.9,3821.8,3668.2,3832.1,3712.8,3859.9z"></path>
	<path class="st1" d="M3724.1,2121.6c-50.1-66.8-102.7-130.5-166.6-183.8c37.9,40.3,75.4,80.8,105.9,127.1   c13.2,20,39.4,49,27.8,62.6c-14.9,17.5-43.7-6.7-64.6-16.3c-106.3-48.7-190-124.2-254.8-221.1c-30.4-45.5-64.2-88-107.6-122.2   c-21.5-17-46.4-27.2-76.5-37.8c23.2-11.2,43-14.1,61.3-9.2c81.7,21.6,166.9,30.5,245.2,63.7c140.6,59.4,218.2,167.4,236.8,318.4   c0.5,3.8,0.2,7.8-0.5,11.6C3730.2,2115.9,3728.1,2117.1,3724.1,2121.6z"></path>
	<path class="st1" d="M8122.3,1422.5c41.6-38.3,86.9-66.4,126.8-102c-26,17-51.9,33.9-79.4,51.9c10.1-136.2,296-267.6,463.8-216.1   c-0.2,1.8,0.2,5-0.6,5.3c-80.9,33.9-129.4,107.6-195.9,159.2c-38.7,30-78.9,57-126.7,70.6c-26.4,7.5-53.8,14.8-80.3,4.8   c-30.2-11.4-54.5-3.9-78.5,14.5C8144.4,1416.1,8137.4,1424,8122.3,1422.5z"></path>
	<path class="st1" d="M5084,880c3.8,35.7,7.9,71.4,11,107.2c0.8,9.1,4.3,22-5.9,26.6c-12.2,5.5-18.7-7.6-25.5-14.9   c-57-60.6-79.8-135-82.7-215.9c-2.2-62.2,1.6-124.7-12-186.1c-3.5-15.9-8.7-31.5-13.5-48.6c4.1-0.3,7.5-1.6,9-0.4   c90,70.5,163,153.2,192.3,267.4c16,62.4,5.7,121.5-21.9,178.5c-2.7,5.6-3.9,14.8-13.3,12.6c-6.8-1.6-6-9.1-7.3-14.6   c-8.9-37.8-17.8-75.5-26.7-113.3C5086.5,879.1,5085.2,879.6,5084,880z"></path>
	<path class="st1" d="M8858.5,2750.2c-67.9-43.1-145.1-55.8-219.9-76.2c-79.1-21.6-147-62.1-193.8-131.9   c-5.7-8.5-16.9-18.4-10.3-28.4c7.2-10.9,19.8-1.9,29.6,0.5c36.9,9.1,71.6,24.2,108.6,34.8c-34.8-17.6-69.6-35.1-104.3-52.9   c-6.7-3.4-17.7-5.3-17.2-13.7c0.7-11.5,13.3-9.6,21.2-11c69.7-12.3,135.8-3.3,196.2,35.5   C8759.7,2565.5,8816.1,2651.6,8858.5,2750.2z"></path>
	<path class="st1" d="M4165.6,4131.8c11.4,94.6,56.7,171.4,118.1,240c32.5,36.4,68.9,68.8,107.4,98.9c4.3,3.4,11.4,6,10.3,12.8   c-1.3,7.6-8.9,6.4-14.3,6.5c-53.5,0.7-107,3.5-159.7-11.1c-118.2-32.7-169-112.7-145.6-233.4c6.4-33.1,13.9-66.2,34-104.9   c12.2,60.3,7.9,115.6,33.5,171.4C4143.2,4246.9,4134.7,4187.4,4165.6,4131.8z"></path>
	<path class="st1" d="M4499.5,858.7c-28.1-0.5-51.2-24.4-51.1-52.9c0.1-28.6,26.3-53.3,55.2-52.1c27.9,1.2,49.8,25.6,49,54.7   C4551.8,837.5,4528.9,859.1,4499.5,858.7z"></path>
	<path class="st1" d="M4793.4,821.7c0,28.5-23,51.5-51.8,51.9c-27.9,0.4-52.4-23.1-53.1-50.8c-0.7-29.3,23.5-53.5,53.4-53.3   C4770.1,769.7,4793.5,793.4,4793.4,821.7z"></path>
	<path class="st1" d="M4531.1,624.5c-27.4,0.4-52.5-24-53.1-51.3c-0.5-28.1,25.7-54.2,53.9-53.7c26.9,0.5,50,23.1,51,50   C4584.1,599.5,4560.8,624.1,4531.1,624.5z"></path>
	<path class="st1" d="M4693.6,583.4c0.5-29.2,24.2-52.9,52-51.9c28.3,1,51.8,25.6,51.2,53.6c-0.6,28.5-24.7,52-53,51.9   C4715.6,636.7,4693.1,612.8,4693.6,583.4z"></path>
	<path class="st1" d="M4513.5,739.3c-30,0.1-53.1-22-52.8-50.6c0.3-27.6,25.1-52.2,52.7-52.4c27.9-0.2,52.2,23.6,52.8,52   C4566.8,715.8,4542.5,739.2,4513.5,739.3z"></path>
	<path class="st1" d="M4742.7,756.7c-28.4-0.1-52.7-23.8-52.8-51.6c-0.1-27.4,24.8-51.7,52.9-51.6c27.8,0,52.9,24.6,52.9,51.7   C4795.7,732.4,4770.6,756.8,4742.7,756.7z"></path>
	<path class="st1" d="M4639.3,437.2c27.7,0.1,52,24.5,52,52.3c0,28.9-22.5,50.7-52.5,50.9c-30.4,0.2-50.9-20.7-50.6-51.5   C4588.5,458.4,4609.4,437.2,4639.3,437.2z"></path>
	<path class="st1" d="M8150.1,887.1c-0.6,22.3-12.3,34.8-32,35.7c-21.3,1-35-11.4-35.4-33.5c-0.4-20.5,12.1-33.6,31.7-34.5   C8135.7,853.7,8147.8,867,8150.1,887.1z"></path>
	<path class="st1" d="M8055.5,1006.1c-3.2,20.8-12.5,35.4-32.9,36.2c-21.2,0.8-35.9-11.4-36.2-33.1c-0.3-21.3,12.1-34.3,34.5-34.3   C8042.3,974.9,8050.7,989.4,8055.5,1006.1z"></path>
	<path class="st1" d="M8034,951.6c1.4-22.7,12-35.6,34.5-35.1c20.7,0.5,32.8,13.3,33,32.9c0.1,21.2-13.2,34.9-34.7,34.3   C8047.4,983.2,8035.2,971.3,8034,951.6z"></path>
	<path class="st1" d="M7903,938.9c-20.1-1.6-31.8-12.3-31.4-33.6c0.3-21,12.2-32.6,32.4-34.3c18.6-1.4,36.5,17.2,34.4,35.7   C7936.2,926.6,7925.1,938.6,7903,938.9z"></path>
	<path class="st1" d="M8098.9,832.9c-20.3-3.1-34.1-14.4-32.8-36c1.2-19.7,14.3-31.7,34.6-31.6c22.4,0.2,33.1,13.8,32.5,35.5   C8132.5,821.8,8119.7,831.4,8098.9,832.9z"></path>
	<path class="st1" d="M8011.7,764.3c22.5,2.2,34.4,13,34,34.2c-0.4,21.1-13,33-33.1,33.3c-20.3,0.2-33.9-12.4-34.3-32.5   C7977.9,777.7,7992,766.3,8011.7,764.3z"></path>
	<path class="st1" d="M7923.8,851.3c1.3-21.3,11.6-33.3,32.8-33.8c21.1-0.5,32.6,11.3,34.8,31.5c2,18.5-15.6,37-34.2,35.6   C7937,883,7925.7,871.1,7923.8,851.3z"></path>
</g>
</svg>
