<?xml version="1.0" encoding="UTF-8"?>
<!-- Generator: Adobe Illustrator 25.2.3, SVG Export Plug-In . SVG Version: 6.00 Build 0)  -->
<svg xmlns="http://www.w3.org/2000/svg" xmlns:xlink="http://www.w3.org/1999/xlink" version="1.1" id="Layer_1" x="0px" y="0px" viewBox="0 0 8640 6975.5" style="enable-background:new 0 0 8640 6975.5;" xml:space="preserve">
<style type="text/css">
	.st0{opacity:0.15;}
	.st1{fill-rule:evenodd;clip-rule:evenodd;fill:#FFFFFF;}
</style>
<g class="st0">
	<path class="st1" d="M2948.1,6975.5c-162.1-26.9-291.9-109.6-403.4-227.4c-79.4-83.9-174.1-139.5-290.4-164.2   c-239.8-51-376.2-228.6-378.1-474.5c-1.6-214,74.3-405.9,165.7-593.2c133-272.4,306.8-518.6,491.9-757.3   c46.7-60.2,94.2-119.8,139.8-181.1c-95.7,88.2-181,186.3-266.9,283.9c-122,138.8-211.7,300.5-322.1,447.4   c-116.5,154.9-245.6,297.7-413,399.7c-102.5,62.5-212,102.1-335.6,77.8c-96.5-19-174.5-70.5-238.1-142.4   c-92.5-104.4-212.8-149.3-345.5-166.6c-143-18.7-275.1-63.1-389.3-152.6c-164.2-128.7-221.1-302.4-203.6-504.3   c8.5-98.5,36.5-192.9,68-286.7c43.3-128.9,67.3-261.6,60.6-398.7c-11.6-236.3,86-388,307.3-474.5c171.7-67.1,351.8-79.1,533.6-73   c371.1,12.5,731.1,90.6,1087.9,187.3c2.5,0.7,5.5-0.8,14-2.3c-142-61-276.1-127.3-404.9-203.8   c-240.8-143.1-463.6-307.4-626.4-540.8c-102.8-147.3-163.3-309.5-159.8-490.8c2.5-128.2,36.4-249.9,95.5-363.8   c57.2-110.3,98.3-225.8,125.1-347.4c50.1-226.9,280.4-424.8,512.5-452.3c191.6-22.7,371,18.7,546.3,88.9   c52,20.8,58.5,18.8,60.4-36.3c5.4-160.2,21.8-319.4,44.7-478c3.8-26.4,8.8-52.7,26-74c26.8-33.2,68.8-26.6,83.3,13.4   c11.8,32.4,10,66.4,8.1,100.4c-8.9,160.2-8.1,320.3-0.5,480.6c2,42.7,19.8,46.7,51.9,34.8c42.7-15.8,85-33,130.3-40.4   c176.2-29,319.5,40.5,406.9,196.5c67.5,120.4,96.1,252.1,111.7,387.3c33.6,291.6,6.7,581.1-32.9,870c-14,101.7-30.4,203-43.9,305   c39.1-133.7,79.7-266.8,124.8-398.5c115-335.9,243.9-665.8,429.4-970.3c87.6-143.8,185.1-280.1,316.5-388.2   c85.3-70.1,179-122.2,291.4-136.5c122.4-15.6,232.5,19.2,327.8,90c93,69.1,192,106.4,306.8,120.2c150.9,18,291.2,71.1,410.6,169.5   c150.1,123.6,205.9,285.4,186.2,475.1c-9.4,90.9-20,181.1-3,272.1c5.9,31.9,14.3,63,27.6,92.7c92.6,206.2,59.7,396.6-77.5,570.2   c-125.4,158.7-298.6,249-482.1,322.6c-215.5,86.5-442.5,128.1-668.7,174.3c-209,42.7-415.7,95-610.5,185.4   c-19.7,9.2-38.8,19.8-56.7,32.9c142.6-30.7,284.8-63.4,427.9-91.9c275.4-54.7,552.4-98.4,833-116.3   c210.2-13.5,420.1-18.7,628.7,18.5c62.3,11.1,123.2,27.7,182.3,51c205,80.7,288.3,239,230.9,451.2   c-29.2,107.9-60.3,214.4-70.2,326.7c-4,45.2,2.1,88.4,8.1,131.1c26.3,188.5-46.2,332-192.9,444c-41.1,31.4-85.5,58.5-133.8,76.3   c-125.1,46-206.3,134.9-263.3,252.4c-76.3,157.2-194.1,265.4-373.4,290.5c-120.9,17-233.7-16.5-341.2-68.2   c-198-95.1-360.5-237.2-512.2-392.7c-189.6-194.2-356.2-407.3-514.2-627.5c-6.7-9.4-13.4-18.9-22.7-26.9   c23.1,61.3,56.2,117.3,88.6,173.7c84.6,147.4,189.8,279.2,300.5,407.8c147.6,171.5,271.3,359,349.5,573.4   c42,115,63.2,233.5,46.1,355.3c-24.1,172.7-124,295.9-269.6,383.4c-79.3,47.6-163.6,86.9-244.6,131.8   c-83.8,46.5-160.8,102.4-233.7,165.2c-140.9,121.4-302.5,201.8-487.1,233.1C3065.8,6975.5,3007,6975.5,2948.1,6975.5z    M2262.1,3579.2c8.8,7.7,17.4,15.4,26.3,22.9c109.3,91.9,222.3,179,336.4,264.7c26.4,19.9,61,43.1,48.5,81.4   c-12,36.5-53.2,34.3-84.1,34.5c-196.1,0.9-388.9,32.3-582.5,59.6c207.2-18.8,414.2-2.2,621.3-0.2c30.1,0.4,80.3-3.5,82.7,19.4   c3.5,33.3-45,32.8-72.5,39.7c-270.2,67.2-531.5,162-793.1,255.6c-85.5,30.6-170.2,63.3-255.4,95c256.5-72,514.1-138,773.9-195.3   c113.4-25,227-49.1,340.8-71.8c21.8-4.3,51.9-13.1,64.5,12.1c12.8,25.6-12.6,42.6-30.2,57.3c-39.5,32.9-80.1,64.7-120.5,96.5   c-102.4,80.5-200.6,165.7-294.2,256.2c87.5-59.4,172.6-121.8,260.1-180.5c74.4-50,149.5-99.9,235.9-128c24.7-8,52.3-19.8,74.7,3.6   c23.9,25,10.1,52.5-1.1,78.1c-45.3,103.8-86.4,209.3-124,316.2c-29,82.5-56.3,165.7-84.4,248.5c14.3-16.3,22.1-35.1,30.2-53.7   c56.4-131,110.8-263,182.1-387c19.1-33.2,38-66.8,66.2-93.2c25.7-24,45.7-18,53.9,15.8c3.7,15.5,3.6,32.1,3.1,48.2   c-2.1,66.2-7.2,132.3-7.3,198.4c-0.6,333.9,12.6,667.5,28.2,1001c-3.2-144.1,10.1-287.5,21.6-430.8   c16.5-205.1,38.8-409.6,59.4-614.3c7.8-77.4,17.2-154.7,27.7-231.8c2.6-19.4,3.3-45.9,26.5-51.7c26.5-6.6,36.8,19.5,48.9,37   c27.1,39,42.1,84,60.2,127.4c72.5,173.8,151.3,344.4,245,509.1c2.3-3,3.9-4.4,3.6-5.1c-4.4-10.8-9.3-21.5-13.7-32.4   c-60-145.5-118.7-291.3-138.5-449.4c-14.7-117.3,45.3-168.3,156.5-128.9c30.3,10.7,59.3,25.8,87.5,41.4   c54.1,30,104.6,65.8,153.2,104.1c57.2,45.2,113.3,92.1,179.9,146.5c-42.3-55-82.1-94.1-123.4-131.9   c-110.9-101.7-231.2-191.1-356.2-274.5c-28.8-19.2-66.9-38.7-56.1-80.8c10-38.9,50.6-38.9,83.8-43.9   c77.2-11.6,154.8-18.6,232.8-15.7c185.6,6.9,368.6,32.5,549.4,74.8c113.3,26.5,225.4,57.7,338.1,87.6   c-11.9-9.5-24.4-16.9-37.8-22.6c-37.8-16.2-75.3-33.4-114.1-47.1c-284.1-99.8-578.2-143.1-878-153.5   c-58.7-2.1-117.3-6.9-175.8-11.6c-10.8-0.9-26.5-2.4-27.2-17.3c-0.7-14.1,13.9-18,24.6-21.5c26.6-8.4,53.4-16.2,80.5-22.8   c125-30.7,252.6-48.1,378.8-73.7c-99.9,10.5-199.9,10.1-299.9,8.4c-50.2-0.8-100.2-6.6-146.9-25.9c-47.3-19.5-56.6-53.9-26.5-95   c26.4-35.9,61-63.5,97.4-88.9c145.6-101.5,305.7-175.8,465.7-250.5c7.1-3.2,20.6-0.2,20.1-14.9   c-178.1,49.6-424.8,172.7-573.8,286.1c-12.8,9.7-26.1,20-40.8,25.8c-20.2,8.1-31.9-1.1-28.6-23.3c1.7-11.4,6.1-22.8,10.9-33.4   c63.3-142.9,137.4-279.8,226.7-408.3c64.3-92.7,135.1-180.2,209.4-265c-200.4,164.5-372.6,353.3-501.3,579.7   c-18.1,31.9-38.7,62.4-58.8,93.1c-5.7,8.7-14.3,16.9-25.6,13.8c-14.5-4-14.8-18.2-13.1-29.3c5.8-37.7,11.1-75.7,20.6-112.6   c22.8-87.9,47.7-175.2,71.9-262.7c-22.1,35.4-38.5,73.2-63.1,106.4c-53.9,72.7-105.2,67.8-144.2-14c-3.8-8-7-16.2-10.2-24.4   c-33.8-87-48.8-178.6-61.2-270.2c-26.3-193.9-43.1-388.5-45.2-584.3c-0.2-19.9-4.3-39.6-6.6-59.4c-15.3,277.1-7.6,552.7,35.9,827.4   c-75.4-151.3-133.9-307.8-184.2-467.4c-50.9-161.2-95.6-324.2-133.8-489c-37.5-161.4-71.1-323.6-100.6-486.7   c-1.1,10.6-1.4,20.9-0.1,31c40.9,318.3,98.8,633.2,193.4,940.3c105.9,344.1,235.4,677.9,435.6,980.3c24.5,37,42.1,77.5,53.3,120.6   c26.8,103.6-9,190-99.3,240.3c-90.4,50.4-182.1,34.5-255.4-44.6c-26.1-28.2-48.4-59.5-64.3-94.5   c-97.7-214.5-178.7-435.2-243.8-661.7c-125.5-436.5-193.2-882.3-214.8-1343.1c-6.3,255,11.1,501.3,46.4,745.8   c45.9,317.7,117.4,629.9,231.4,931c4.5,12,15.9,26.6,7.1,37.1c-10.5,12.6-27.4,3.8-41.4,0.1   C2489.5,3723.9,2375.3,3655.2,2262.1,3579.2z"></path>
	<path class="st1" d="M6056.2,0c-35.2,183.8,1.4,354.7,84.4,520.6c74.2,148.5,118.5,308,127.8,474c13.3,238.6-64.8,434-285.7,552.9   c-25.4,13.7-30.5,30.9-27.9,57.3c13.3,134.7,31.5,268.5,64.2,400.1c2.1,8.6,5.2,16.8-6.6,33.4   c-143.4-390.2-203.8-785.3-180.2-1193.9c-13.7,62.6-17.2,126.3-23.9,189.8c-6.9,64.7-3.9,129.3-5.7,194   c-1.7,66.2,2.6,132.3,9.1,198.2c6.2,64.1,13.3,128.1,20.3,196.1c-30.9-5.5-45.8-26.8-62.8-42.9c-276.5-261.9-344.3-642.1-178.2-996   c101.1-215.4,252.5-392.3,424-553.7c10.7-10.1,21.6-19.9,32.4-29.9C6050.3,0,6053.2,0,6056.2,0z"></path>
	<path class="st1" d="M7107.4,3252.5c303.5,147,600.4,298.9,865.3,506.2c79,61.9,152.5,129.7,209.4,213.4   c37.8,55.6,66.1,115.4,61.5,184.8c-5.5,84.1-56.3,140.4-122,184.4c-84.4,56.5-152.7,125.9-206.5,213.3   c-72,116.7-211.8,157.1-368.3,113c-71.6-20.2-140.7-15.5-205.7,17.4c-229.8,116.1-397.3,10.5-486.3-189.1   c-58-130.1-82.7-269-95.3-410.1c-14.7-165.4-18.8-331.1-9.6-497.2c-25.5,115.1-40.3,231.5-33.2,349   c11.1,183.4,5.4,364.1-56.1,539.9c-36.4,104.1-95.7,187.7-198.1,235.7c-85.3,40-173.7,37.1-263.2,18.1   c-37.3-7.9-74.9-20.4-112.3-20.1c-48.3,0.4-56.3-26.9-58.7-63.4c-7.6-115.5,3.8-228.9,38.7-339.5c27-85.8,51.5-172.4,55.8-262.4   c9.1-189-79.9-323.7-241.5-413.3c-115.3-63.9-241.4-90.6-372-98.5c-12.3-0.7-30.8,5.5-34.9-10.1c-4.4-16.3,15.3-18.8,25.8-24.7   c220.1-124.2,460.6-191.8,703.6-252.1c12.2-3,24.3-6.1,35.8-11.5c-140.1,17.9-278.5,43.3-412.2,89.9   c-139.5,48.6-281.2,86.2-430.3,85.6c-14.3-0.1-29.4,3.8-44.6-6.3c6-19.6,25.7-22.5,39.3-31.3c221.1-143.2,333.1-346.7,334.1-609.6   c0.2-75.4-22.9-148-43.3-220.1c-26.2-92.9-39.8-186.5-25.8-282.9c15-103.3,12.3-205-33.3-306.1c27.7-3.1,46.4,9.4,64.7,19   c164.6,85.3,296.3,210.9,420.8,345.3c83.7,90.4,160.6,186.5,240.1,281.2c-29.1-65.2-59.2-129.9-87.1-195.6   c-65.5-154.1-113.1-313.5-115.8-481.7c-3.4-207,54.8-402.7,305.4-527.2c71.5-35.5,139.2-75.3,201.6-125.5   c149.9-120.8,373.2-106.8,526.4,31.1c63.9,57.5,119,122.7,158.5,199.3c17.1,33.1,28.5,27.7,48.8,4.1   c63-73.9,128.8-145.4,199.9-211.6c22.4-20.8,49.8-57.3,81.5-27.5c32.4,30.5-4,59.1-23.4,82.4c-64.8,78.1-127,158.2-188.1,239.3   c-21.5,28.5-14.2,40.5,15.5,49c5.6,1.6,11.4,2.9,17,4.7c147.9,47.6,214.7,164,179.7,316.3c-31.5,137-109.2,249.6-194.1,357.7   c-109.3,139.1-233.4,264.5-363.2,385.1c90.5-59.9,179.5-122,272-178.8c209.7-129,423.2-249.9,664.6-311   c64.4-16.3,129.6-25,196.3-23.8c145.2,2.8,255.7,78.6,298.2,217.7c23.1,75.8,59.2,138.9,115.9,193.7c49,47.3,84,105.8,111,168.6   c64.3,149.2,37,289.7-80.2,403.8c-61.3,59.6-106.4,126.5-129.7,210.9c-37.1,134.7-168.7,230.1-316.5,242.2   c-196.5,16.2-374.4-47.1-547.5-127.5c-157.3-73.1-308.5-159.6-475.1-211.5C7183.4,3272.8,7145.2,3263.1,7107.4,3252.5z    M6946.3,2709.1c25.4-137.8,72.5-267.8,123.8-396.6c51.4-129.3,110.1-255.5,169.1-381.6c-21.1,32.2-39.6,65.5-57.2,99.3   c-155.7,297.7-274.5,607.9-322.4,942.5c-7.6,53.6-5.7,108.9-26.2,160.5c-24.4,61.6-79.5,97.5-140.8,91.8   c-68-6.3-107.4-43.3-122.2-113.4c-7.9-37.4,0.1-73.1,8.9-108.9c76-311,202-601.5,362.3-877.8c25.9-44.6,53.1-88.5,79.7-132.7   c-8.7,1.2-13.2,5.1-16.3,9.7c-162,240.2-295.5,494.8-386,770.8c-3.9,12-1.5,30.8-16.7,33.4c-16.7,2.8-22.6-15.8-31-27   c-38.8-52.2-61.7-112.7-87.3-172c16.3,76.5,35.8,151.9,54.6,227.3c6.3,25.4,18.5,55.8-7,73.5c-25.1,17.4-45.2-9.8-65.9-22   c-5-3-9.2-7.3-14-10.8c-70.9-51.6-145.5-97.3-222.6-139.1c81.7,69.2,164.9,136.3,247.2,204.4c13.4,11.2,41.1,21.8,29.4,41.9   c-9.6,16.4-32.5-0.4-47.8-7.2c-91.4-40.9-184.8-76.5-279.5-108.7c-75.6-25.7-151.7-49.7-227.6-74.5c5.4,10.3,13.3,13.9,21.3,17.1   c165,67.1,325,144.9,481.3,230.3c13.5,7.4,33.9,13.5,28.7,33.7c-4.8,18.6-25,17.5-40.7,19.4c-10.2,1.3-20.5,0.9-30.9,0.7   c-105-1.8-209.9,1-313.2,11.1c111.7,3.5,225,5.5,336.3,28.5c28.4,5.9,65.6,10.8,71.1,43.3c5.7,33.6-32.4,40.9-55.5,54   c-87.4,49.8-173,102.5-255.2,160.8c19.4-6.8,36.9-16.9,54.7-26.1c74.5-38.4,147-80.9,228.8-103.3c14.1-3.9,29.9-10.6,40.3,4.9   c10.3,15.4-2.2,28.2-10.9,39.3c-30.9,39.3-63.3,77.5-94.2,116.8c-72,91.4-142.7,183.7-204.4,282.6   c72.9-75.1,143.6-151.8,219.5-223.5c55.6-52.5,111.8-104.4,168.2-156.1c9.4-8.7,20.1-19.8,34.8-12.9c15.2,7.1,12.3,23,10.8,35.2   c-2.9,23.2-7.6,46.3-13.5,69c-28.2,107.9-56.9,215.6-72.6,326.3c28.4-78.5,50-159.5,91.4-232.7c19.4-34.4,37.4-76.7,84-75.2   c46.2,1.6,61.8,44.5,79.8,79.9c37.6,74.1,51.7,155.6,73.3,244c1.9-62.3-10.8-113.5-23.7-164.2c-18-71.3-40.4-141.3-58.7-212.5   c-10.9-42.2,9.4-59.5,49.9-45.1c12.3,4.4,23.7,11.6,35,18.4c74.7,45.1,141.5,100.5,203.8,161.2   c105.3,102.6,196.1,217.5,283.4,335.7c-11.9-26.6-25.2-52.3-40.7-76.6c-116.8-183.3-268.3-334.4-435.1-471.6   c-16.7-13.7-51.5-28.7-37-50.6c12.6-19,43,3.9,63.2,13.5c59.5,28.2,117.9,58.8,176.7,88.4c-56.5-45.6-118.8-83.1-162.5-142.1   c-32.7-44.2-18.8-76.8,35.5-80.9c45.3-3.4,91.1-4.3,136.5,3.8c72.1,12.9,144.3,25.4,216.5,38.1c-109-38.1-220.1-63.7-335.8-64.9   c-17.1-0.2-41.1,4.2-46.1-15.8c-5.3-21.4,19.8-25.9,34.4-33.7c148-78.2,304.2-132.6,469.5-161.2c-51.3,2.7-102.3,6.7-153,12.9   c-126.3,15.5-247.6,49.4-364.3,100.3c-13.4,5.8-33.5,19.4-44,2.1c-10-16.7,9.8-29.1,21.7-38.7c48.7-39.5,98.4-77.7,155.4-122.4   c-22.5,8-35.8,13.7-49.5,17.4c-59.9,15.9-85.1-8.6-70.4-68.4c9.9-40.2,26.5-77.8,45.8-114.3c65.1-123.4,144.2-238,221.6-353.7   C7109.9,2449.6,7025.4,2577,6946.3,2709.1z"></path>
	<path class="st1" d="M5410.6,5725.2c84.4-3.9,165.8,12.1,246.3,34.3c218.1,60.1,419.9,160.3,624.3,253.9   c163.5,74.8,329.1,144.8,509,168c329.9,42.4,647.3,11.7,927.4-188.2c133.3-95.1,226.1-221.2,255.9-387.5   c45.7-255.1-160.9-518.4-420.7-545.5c-277-28.9-441.9,169.2-471.8,338.1c-25.5,143.7,8.3,263.8,155.5,326.8   c3.7,1.6,6.4,5.3,10.3,8.6c-53.1,6.9-137-39.6-177.7-101c-68.4-103.1-71.5-215.6-39.8-330.4c61-220.3,258.4-364.4,487-370.3   c308.6-8,655.9,244.2,624.8,668.7c-15.3,208.6-122.5,373.4-281.7,501.3c-194.7,156.6-422.2,231.1-671,250.6   c-346,27.2-659-67.3-955.9-236.9c-188.8-107.8-373-224.7-576.2-305.8C5576,5777.9,5494.1,5751.1,5410.6,5725.2z"></path>
	<path class="st1" d="M6671.9,4775.8c78.3,154.3,91.8,311.8,28.7,472.7c-78.2,199.8-232,313.2-432.8,369.1   c-231.7,64.4-462.7,46.4-692.6-11.9c-6.7-1.7-12.9-5.6-20.1-13.1c183.6-19.6,353.5-77.3,511.1-172.4   c-71.7,13.6-142.7,30.8-214.7,42.6c-97.4,16-195.6,21.9-293.7,29.9c-41.2,3.4-45.8-4.6-27.1-41.3   c53.5-105.1,146.3-167.2,246.8-218.7c177.4-90.8,368.8-137.3,564.3-167c116.5-17.7,220.3-53.1,283.1-162.4   C6647.8,4863.9,6657.1,4819.7,6671.9,4775.8z"></path>
	<path class="st1" d="M406.1,6687.6c29.4-16.8,52-29.3,74.3-42.5c96.2-56.9,176.3-130.8,241.2-222.3   c107.3-151.1,231.5-285.8,393.3-380.5c136.9-80.1,280.5-112.2,433.5-47c26,11.1,45.7-0.1,66.1-11.5c52.7-29.4,97.5-69.9,148-103   c-172.5,184.4-364.2,346.3-575.2,485.8c90.7-45.3,175.7-99.6,257.6-158.5c58.4-42,114-88,171.6-131.2c11.9-9,24-30.8,39.3-19.5   c14.1,10.4,0,30.7-4.7,45.1c-74,228.5-219.1,396.5-434.4,502.5c-222.6,109.7-460.3,121.5-701.9,102.4   C481.5,6704.7,447.3,6704.8,406.1,6687.6z"></path>
	<path class="st1" d="M4715.9,6128.8c176.8,231.1,410.4,339.9,683.8,374c-207.4-46.5-396.1-129.8-552.6-277.3   c-156.9-148-251.6-329.3-294.2-546.2c22.6,8.5,22.2,24.6,26.7,36.6c83.9,221.7,236.4,361.5,472.7,410.4   c193.9,40.2,373.8,115.7,522.5,251.3c141,128.9,218,289.5,227,481.2c0.6,12.3,6.7,30.4-7.7,35.9c-16.2,6.2-19.7-13.9-27.1-23.3   c-73.4-93-167.6-142.6-287-150.2c-173-11-341.1-43.4-493.6-132.5c-143.5-83.8-235.8-205.1-270.2-368.8   C4710.8,6194,4708.1,6168,4715.9,6128.8z"></path>
	<path class="st1" d="M4905,5845.8c19.3-13.9,41.6-10.9,62.6-11.6c291-9.7,560.4,68.1,817.7,198.4   c254.1,128.7,486.4,292.4,721.8,450.5c293.7,197.3,617.7,296.5,968.8,314.6c309.5,16,606.3-31.3,883.7-176.3   c123.5-64.5,235.8-144,330.7-246.8c9.7-10.5,17.5-23.9,36.3-29.4c0.5,22.4-14.7,35.4-25.1,49.3   c-168.3,224.6-391.8,370.5-657.2,452.8c-472.5,146.4-932.4,103-1377.6-105.2c-180.8-84.5-335.4-211.6-497.3-326.3   c-216.1-153.1-430.4-308.8-674.1-417c-180-79.9-366.5-135.2-564.8-143.1C4922.4,5855.6,4912.8,5857.7,4905,5845.8z"></path>
	<path class="st1" d="M7698.7,6549.7c-221.4,31.5-442.3,39.4-661.3-23.5c72.5,0.3,144.5-5.8,216.2-13   c409.7-40.7,767.5-183.8,1025-522.9c87.3-114.9,146.9-244.1,192.5-380.2c4.6-13.7,9-27.6,13.5-41.4c4.1,1.5,8.5,2.2,8.5,3.3   c18.3,278.8-33.5,539.5-208.6,764.7c-135.5,174.3-320.9,266.9-533.2,311.7c-176.2,37.3-353.6,33.6-531.5,17.9   c-9.5-0.8-21.1,0.1-28.8-17.3C7366.4,6641.9,7536.5,6617,7698.7,6549.7z"></path>
	<path class="st1" d="M6164,5811.1c186.4,25.4,371.8,34.4,566.9,30.5c-64.2-24.3-122.8-36.5-181.7-46.5   c-59.3-10.1-119.3-16.8-178.6-27.1c-60.3-10.6-122.8-3.9-189.9-23.7c62.3-48.6,127.5-76.8,196.6-95.2   c201.3-53.5,393.3-18.7,578.7,66.7c81.3,37.4,157,86.3,242.4,116.3c107.5,37.8,219,54,333.7,65.3c-3.8,23.6-22.4,28.7-36.3,36.4   c-170.6,94.5-353.6,129.3-547.9,119.5c-265-13.4-510.1-94.2-746.1-209.3c-11.8-5.8-23-12.7-34.3-19.6   C6165.8,5823.4,6166,5819.2,6164,5811.1z"></path>
	<path class="st1" d="M5387.5,1454.2c-24.8-22.3-49.5-44.6-74.4-66.8c-136.6-122.2-294.5-150.5-472.4-119.9   c-173.9,29.9-346.2,15.2-507.7-64c-120.5-59.1-209-150.5-264-273.5c-3.6-8-6.7-16.4-8.8-24.9c-0.8-3.6,1.3-8,1.9-11.4   c11.2-5.2,18.1,1.9,25,6.5c87.7,57.9,181,62.1,278.6,30.3c145.7-47.4,294.2-72.7,446.5-40.7c128.1,26.9,230.3,94.2,297.5,209   c9.2,15.6,23.1,30.6,17.8,58.3c-86.6-52.9-177.7-87.2-275.2-102.4c-98.1-15.3-196-12.4-294.4,10.1   C4909,1036.7,5192.3,1152,5387.5,1454.2z"></path>
	<path class="st1" d="M1297.6,3485.2c-64.1-28-127.5-58.1-197.5-68.6c-105.7-15.8-208.7-8.2-304.1,44.4   c-132.3,73-268.9,133.8-421.3,148.7c-186,18.2-349.3-31.4-482.1-167.5c-7.9-8-19-14.7-17.8-28.3c5.3-8.5,12.7-6.1,19.6-4.7   c103,21.5,194.1-1.4,277-67.1c96.3-76.4,201.3-138.6,320.9-171.7c151.6-42,294.3-26.4,422.2,72.2c8.2,6.3,16.1,12.9,23.3,20.2   c6.9,7,19.4,13.5,14.6,24.8c-5.6,13-17.8,3.9-27.1,2.8c-65.7-7.7-130.6-13.4-197.6-5.4c-117.6,14-225.2,52.7-326.1,114.6   c146.9-67.6,300.2-103.5,461.9-90.7C1026.3,3321.8,1172.7,3377.7,1297.6,3485.2z"></path>
	<path class="st1" d="M3369.2,1900.9c-33.6-63.7-48.1-133-52.8-204.7c-17.7-271.5,115.6-468.9,314.2-633.2   c59.9-49.5,124.1-93.2,192-129.7c13.8,12.1,4.5,21.4,0.6,29.5c-42.5,88.2-56.8,181.3-53.3,278.6c4.7,131.7-7.4,261.7-51.4,386.9   c-42.9,121.8-112.4,219.9-244.7,257.5c-22,6.3-34.3,22-40.9,42.6c-12.7,40.2-24.7,80.7-41,120.1c14.6-167.7,49.1-331.4,93.5-494.3   c-12.9,36-26.4,71.8-38.3,108.1c-12.8,39.1-24.6,78.6-35.6,118.2c-10.9,39.4-20.2,79.2-30.2,118.9   C3377.2,1899.9,3373.2,1900.4,3369.2,1900.9z"></path>
	<path class="st1" d="M4680.9,158.4c44.6-5.2,88.4,2.2,123.3,24.7c111.1,71.7,236.6,118.7,341.4,200.7   c211.8,165.7,292.5,382.6,250.1,646.8c-1.4,8.6-2.6,17.7-18,24.8C5328,922.6,5271.6,793,5189.7,676.3   c35.6,66.5,67.5,134.7,95.3,204.8c16.9,42.5,30.4,86,39.1,130.7c2.8,14.5,12.4,35.1-4.5,44.3c-13.7,7.6-26.4-8.9-37.8-17.3   c-130.1-95.9-230.2-216.8-306-359.5c-47.3-89-69.1-187.4-110-278.6C4823.4,306.3,4774.4,216.6,4680.9,158.4z"></path>
	<path class="st1" d="M6315.6,1293.2c71.7-102.1,151.2-198.1,234.2-291.7c-68.2,58-126.1,126.3-189.5,199.4   c-16-284.7,396.3-623.9,752.4-630.6c5.7,11.6-4.5,15.3-10.6,20.4c-72.9,59.4-128.2,132.4-171.4,215.7   c-56.5,109-126.1,208.9-217.2,292.1c-77,70.5-163.6,119.8-272.9,113.1c-32.2-2-50.9,19-70.4,39c-15.8,16.3-31,33.2-46.5,49.8   C6321.1,1298,6318.4,1295.6,6315.6,1293.2z"></path>
	<path class="st1" d="M1094.2,5824.2c-117.1,24.7-233,48.8-343,95.1c63.5-15.9,126.4-34.1,191.4-43.5c32.2-4.7,64.2-8,96.5-6.7   c15.4,0.6,38-8.4,44.4,7.8c7.5,18.9-15.6,29.2-27.8,40.2c-104.8,93.9-226.3,157.4-361.4,195.4c-53.8,15.1-108.9,22.7-164.3,30.5   c-120.7,17-240.5,38.7-337.2,143c14.3-68.6,42.4-115.5,82.5-155c36.8-36.2,69.2-75.8,101.4-116c128-159.8,289.1-257.6,500.1-250.7   C952.5,5766.7,1026.8,5782.3,1094.2,5824.2z"></path>
	<path class="st1" d="M1111.2,3201.2c-75.5-100.7-154.9-197-251.4-277.4c57.2,60.7,113.8,122,159.9,191.7   c19.9,30.2,59.4,74,41.9,94.5c-22.5,26.4-66-10.1-97.5-24.5c-160.4-73.5-286.7-187.3-384.4-333.6   c-45.9-68.7-96.9-132.8-162.4-184.5c-32.5-25.6-70-41-115.4-57c35-16.9,64.8-21.3,92.5-13.9c123.2,32.6,251.9,46.1,369.9,96.1   c212.1,89.7,329.3,252.5,357.3,480.4c0.7,5.7,0.3,11.8-0.7,17.5C1120.3,3192.7,1117.2,3194.5,1111.2,3201.2z"></path>
	<path class="st1" d="M7747.7,2146.3c62.8-57.8,131.1-100.2,191.3-153.9c-39.2,25.6-78.3,51.2-119.9,78.3   c15.2-205.6,446.6-403.8,699.8-326.1c-0.3,2.7,0.3,7.5-0.9,8c-122.1,51.1-195.2,162.4-295.6,240.3   c-58.4,45.3-119.1,86.1-191.2,106.5c-39.8,11.3-81.1,22.4-121.2,7.3c-45.6-17.2-82.3-5.8-118.5,22   C7781,2136.7,7770.4,2148.7,7747.7,2146.3z"></path>
	<path class="st1" d="M3163.2,1327.9c5.7,53.9,12,107.8,16.7,161.8c1.2,13.7,6.5,33.2-8.9,40.1c-18.4,8.3-28.2-11.4-38.5-22.4   c-86-91.4-120.4-203.7-124.8-325.7c-3.3-93.9,2.5-188.1-18.1-280.8c-5.3-24-13.1-47.6-20.3-73.3c6.1-0.4,11.3-2.4,13.6-0.6   c135.7,106.4,246,231.2,290.1,403.5c24.1,94.1,8.6,183.4-33.1,269.4c-4.1,8.4-5.9,22.3-20,19c-10.2-2.4-9.1-13.7-11-22   c-13.4-57-26.8-114-40.3-171C3166.9,1326.5,3165,1327.2,3163.2,1327.9z"></path>
	<path class="st1" d="M8858.5,4149.8c-102.5-65-219-84.2-331.8-114.9c-119.4-32.5-221.8-93.7-292.4-199.1   c-8.7-12.8-25.6-27.8-15.5-42.9c10.9-16.4,29.9-2.9,44.7,0.7c55.6,13.7,108.1,36.6,163.8,52.5c-52.5-26.6-105-53-157.3-79.8   c-10.1-5.2-26.8-8-26-20.6c1-17.3,20.1-14.5,31.9-16.6c105.2-18.5,205-5,296.1,53.6C8709.5,3871.1,8794.6,4001,8858.5,4149.8z"></path>
	<path class="st1" d="M1777.4,6234.4c17.2,142.7,85.6,258.6,178.2,362.1c49.1,54.9,104,103.8,162,149.2c6.6,5.1,17.3,9.1,15.5,19.4   c-2,11.5-13.4,9.7-21.6,9.8c-80.7,1.1-161.5,5.2-240.9-16.7c-178.4-49.3-255-170.1-219.7-352.2c9.7-49.9,21-99.9,51.3-158.3   c18.4,90.9,11.9,174.4,50.5,258.7C1743.7,6408.1,1730.7,6318.4,1777.4,6234.4z"></path>
	<path class="st1" d="M2281.3,1295.7c-42.4-0.7-77.3-36.8-77.1-79.8c0.2-43.1,39.7-80.4,83.3-78.6c42.1,1.8,75.2,38.7,73.9,82.5   C2360.1,1263.7,2325.6,1296.4,2281.3,1295.7z"></path>
	<path class="st1" d="M2724.8,1239.9c-0.1,43-34.7,77.7-78.2,78.3c-42,0.6-79.1-34.9-80.2-76.7c-1.1-44.3,35.4-80.7,80.6-80.4   C2689.6,1161.4,2724.8,1197.2,2724.8,1239.9z"></path>
	<path class="st1" d="M2329,942.3c-41.3,0.6-79.2-36.1-80.1-77.4c-0.8-42.3,38.8-81.8,81.3-81.1c40.7,0.7,75.4,34.8,76.9,75.4   C2408.8,904.5,2373.8,941.7,2329,942.3z"></path>
	<path class="st1" d="M2574.1,880.2c0.7-44.1,36.5-79.8,78.4-78.4c42.7,1.5,78.2,38.7,77.2,80.9c-1,43-37.3,78.5-79.9,78.3   C2607.2,960.8,2573.4,924.6,2574.1,880.2z"></path>
	<path class="st1" d="M2302.4,1115.5c-45.3,0.2-80.1-33.2-79.6-76.3c0.5-41.6,37.9-78.8,79.5-79.1c42.1-0.3,78.7,35.7,79.6,78.5   C2382.7,1080,2346.2,1115.4,2302.4,1115.5z"></path>
	<path class="st1" d="M2648.2,1141.9c-42.8-0.1-79.5-36-79.7-77.8c-0.1-41.3,37.4-77.9,79.8-77.9c41.9,0,79.8,37.1,79.8,78   C2728.1,1105.2,2690.3,1141.9,2648.2,1141.9z"></path>
	<path class="st1" d="M2492.2,659.7c41.9,0.1,78.5,37,78.4,79c-0.1,43.7-33.9,76.5-79.2,76.8c-45.8,0.3-76.8-31.3-76.4-77.7   C2415.5,691.7,2447.1,659.6,2492.2,659.7z"></path>
	<path class="st1" d="M7789.6,1338.5c-1,33.7-18.6,52.5-48.4,53.8c-32.2,1.4-52.8-17.3-53.4-50.6c-0.6-31,18.3-50.7,47.9-52.1   C7767.9,1288.1,7786.1,1308.2,7789.6,1338.5z"></path>
	<path class="st1" d="M7646.9,1518.1c-4.8,31.3-18.9,53.4-49.7,54.6c-32,1.3-54.1-17.1-54.6-49.9c-0.5-32.1,18.2-51.8,52.1-51.8   C7626.9,1471.1,7639.6,1492.9,7646.9,1518.1z"></path>
	<path class="st1" d="M7614.4,1435.8c2.1-34.3,18.1-53.7,52-52.9c31.2,0.8,49.5,20.1,49.8,49.7c0.2,31.9-19.9,52.6-52.3,51.7   C7634.6,1483.6,7616.2,1465.6,7614.4,1435.8z"></path>
	<path class="st1" d="M7416.8,1416.6c-30.4-2.4-48-18.5-47.4-50.7c0.5-31.6,18.4-49.2,48.9-51.7c28.1-2.1,55.1,26,51.9,53.9   C7466.8,1398.2,7450,1416.3,7416.8,1416.6z"></path>
	<path class="st1" d="M7712.4,1256.7c-30.6-4.7-51.5-21.7-49.5-54.3c1.8-29.7,21.6-47.8,52.2-47.6c33.9,0.3,50,20.8,49,53.5   C7763.1,1240,7743.7,1254.5,7712.4,1256.7z"></path>
	<path class="st1" d="M7580.8,1153.3c34,3.4,51.9,19.5,51.3,51.6c-0.6,31.8-19.6,49.8-50,50.2c-30.6,0.3-51.2-18.7-51.7-49   C7529.7,1173.5,7551.1,1156.3,7580.8,1153.3z"></path>
	<path class="st1" d="M7448.1,1284.5c1.9-32.1,17.5-50.3,49.4-51c31.8-0.7,49.2,17,52.5,47.5c3,28-23.6,55.9-51.6,53.7   C7468.1,1332.3,7451,1314.5,7448.1,1284.5z"></path>
</g>
</svg>
