<?xml version="1.0" encoding="UTF-8"?>
<!-- Generator: Adobe Illustrator 25.2.3, SVG Export Plug-In . SVG Version: 6.00 Build 0)  -->
<svg xmlns="http://www.w3.org/2000/svg" xmlns:xlink="http://www.w3.org/1999/xlink" version="1.1" id="Layer_1" x="0px" y="0px" viewBox="0 0 8640 3027.7" style="enable-background:new 0 0 8640 3027.7;" xml:space="preserve">
<style type="text/css">
	.st0{opacity:0.15;}
	.st1{fill-rule:evenodd;clip-rule:evenodd;fill:#FFFFFF;}
</style>
<g class="st0">
	<path class="st1" d="M5189.9,3678.8c-96.9-16.1-174.5-65.5-241.1-135.9c-47.4-50.1-104.1-83.4-173.6-98.2   c-143.3-30.5-224.9-136.6-226-283.6c-1-127.9,44.4-242.6,99-354.6c79.5-162.8,183.4-310,294-452.7c27.9-36,56.3-71.6,83.6-108.2   c-57.2,52.7-108.2,111.3-159.6,169.7c-72.9,82.9-126.5,179.6-192.5,267.4c-69.6,92.6-146.8,177.9-246.8,238.9   c-61.3,37.3-126.7,61-200.6,46.5c-57.7-11.3-104.3-42.1-142.3-85.1c-55.3-62.4-127.2-89.2-206.5-99.6   c-85.5-11.2-164.4-37.7-232.7-91.2c-98.1-76.9-132.2-180.8-121.7-301.4c5.1-58.9,21.8-115.3,40.7-171.4   c25.9-77.1,40.2-156.4,36.2-238.3c-7-141.2,51.4-231.9,183.7-283.6c102.6-40.1,210.3-47.3,318.9-43.6c221.8,7.5,437,54.1,650.2,112   c1.5,0.4,3.3-0.5,8.3-1.3c-84.9-36.5-165-76.1-242-121.8c-144-85.5-277.1-183.7-374.4-323.2c-61.4-88-97.6-185-95.5-293.3   c1.5-76.6,21.8-149.4,57.1-217.4c34.2-66,58.7-135,74.8-207.7c29.9-135.6,167.6-253.9,306.3-270.4   c114.5-13.6,221.7,11.2,326.5,53.2c31.1,12.5,34.9,11.2,36.1-21.7c3.2-95.8,13-190.9,26.7-285.7c2.3-15.8,5.2-31.5,15.5-44.2   c16-19.8,41.1-15.9,49.8,8c7.1,19.4,6,39.7,4.9,60c-5.3,95.7-4.9,191.5-0.3,287.3c1.2,25.5,11.8,27.9,31.1,20.8   c25.5-9.4,50.8-19.7,77.9-24.2c105.3-17.3,191,24.2,243.2,117.5c40.3,72,57.5,150.7,66.7,231.5c20.1,174.3,4,347.4-19.7,520.1   c-8.4,60.8-18.1,121.4-26.2,182.3c23.4-79.9,47.6-159.5,74.6-238.2c68.8-200.8,145.8-398,256.7-580   c52.3-85.9,110.6-167.4,189.2-232c51-41.9,107-73,174.2-81.6c73.2-9.3,139,11.5,195.9,53.8c55.6,41.3,114.8,63.6,183.4,71.8   c90.2,10.8,174.1,42.5,245.4,101.3c89.7,73.9,123.1,170.6,111.3,284c-5.6,54.3-12,108.3-1.8,162.6c3.5,19.1,8.5,37.7,16.5,55.4   c55.3,123.2,35.7,237-46.3,340.8c-75,94.9-178.5,148.9-288.2,192.8c-128.8,51.7-264.5,76.6-399.7,104.2   C5906,1695.7,5782.5,1727,5666,1781c-11.8,5.5-23.2,11.8-33.9,19.7c85.2-18.4,170.2-37.9,255.8-54.9   c164.6-32.7,330.2-58.8,497.9-69.5c125.6-8,251.1-11.2,375.8,11.1c37.2,6.6,73.6,16.6,109,30.5c122.5,48.2,172.3,142.9,138,269.7   c-17.4,64.5-36,128.2-42,195.3c-2.4,27,1.3,52.8,4.8,78.4c15.7,112.7-27.6,198.4-115.3,265.4c-24.6,18.8-51.1,35-80,45.6   c-74.7,27.5-123.3,80.6-157.4,150.9c-45.6,94-116,158.7-223.2,173.6c-72.3,10.2-139.7-9.8-203.9-40.7   c-118.3-56.8-215.5-141.8-306.2-234.7c-113.3-116.1-212.9-243.5-307.3-375.1c-4-5.6-8-11.3-13.5-16.1c13.8,36.6,33.6,70.1,53,103.9   c50.6,88.1,113.5,166.9,179.6,243.7c88.3,102.5,162.1,214.6,208.9,342.7c25.1,68.7,37.8,139.6,27.6,212.3   c-14.4,103.2-74.1,176.9-161.2,229.1c-47.4,28.4-97.8,51.9-146.2,78.8c-50.1,27.8-96.1,61.2-139.7,98.8   c-84.2,72.5-180.8,120.6-291.1,139.3C5260.3,3678.8,5225.1,3678.8,5189.9,3678.8z M4779.9,1648.7c5.2,4.6,10.4,9.2,15.7,13.7   c65.3,54.9,132.9,107,201.1,158.2c15.8,11.9,36.4,25.8,29,48.7c-7.1,21.8-31.8,20.5-50.2,20.6c-117.2,0.5-232.5,19.3-348.2,35.6   c123.9-11.3,247.6-1.3,371.4-0.1c18,0.2,48-2.1,49.5,11.6c2.1,19.9-26.9,19.6-43.4,23.7c-161.5,40.2-317.7,96.9-474,152.8   c-51.1,18.3-101.8,37.8-152.6,56.8c153.3-43,307.3-82.5,462.6-116.7c67.8-15,135.7-29.3,203.7-42.9c13-2.6,31-7.8,38.5,7.2   c7.6,15.3-7.5,25.5-18,34.3c-23.6,19.7-47.9,38.7-72,57.7c-61.2,48.1-119.9,99-175.8,153.2c52.3-35.5,103.2-72.8,155.5-107.9   c44.5-29.9,89.3-59.7,141-76.5c14.8-4.8,31.3-11.8,44.6,2.2c14.3,14.9,6,31.4-0.6,46.7c-27.1,62.1-51.7,125.1-74.1,189   c-17.3,49.3-33.7,99-50.4,148.5c8.6-9.7,13.2-21,18-32.1c33.7-78.3,66.2-157.2,108.8-231.3c11.4-19.8,22.7-39.9,39.6-55.7   c15.3-14.3,27.3-10.8,32.2,9.5c2.2,9.2,2.1,19.2,1.8,28.8c-1.3,39.5-4.3,79-4.4,118.6c-0.4,199.6,7.5,399,16.9,598.3   c-1.9-86.1,6-171.9,12.9-257.5c9.9-122.6,23.2-244.8,35.5-367.2c4.7-46.3,10.3-92.5,16.5-138.6c1.6-11.6,2-27.5,15.8-30.9   c15.8-3.9,22,11.7,29.2,22.1c16.2,23.3,25.2,50.2,36,76.1c43.3,103.9,90.4,205.8,146.4,304.3c1.3-1.8,2.3-2.6,2.2-3   c-2.7-6.5-5.5-12.9-8.2-19.3c-35.9-87-71-174.1-82.8-268.6c-8.8-70.1,27.1-100.6,93.5-77.1c18.1,6.4,35.4,15.4,52.3,24.8   c32.4,17.9,62.5,39.3,91.6,62.2c34.2,27,67.7,55,107.5,87.5c-25.3-32.9-49.1-56.2-73.8-78.8c-66.3-60.8-138.2-114.2-212.9-164.1   c-17.2-11.5-40-23.1-33.5-48.3c6-23.2,30.3-23.3,50.1-26.3c46.1-6.9,92.5-11.1,139.2-9.4c110.9,4.1,220.3,19.4,328.4,44.7   c67.7,15.8,134.7,34.5,202.1,52.4c-7.1-5.7-14.6-10.1-22.6-13.5c-22.6-9.7-45-20-68.2-28.1c-169.8-59.7-345.6-85.5-524.8-91.7   c-35.1-1.2-70.1-4.1-105.1-6.9c-6.5-0.5-15.8-1.4-16.3-10.4c-0.4-8.4,8.3-10.8,14.7-12.8c15.9-5.1,31.9-9.7,48.1-13.7   c74.7-18.3,151-28.8,226.4-44.1c-59.7,6.3-119.5,6.1-179.3,5c-30-0.5-59.9-4-87.8-15.5c-28.3-11.7-33.8-32.2-15.8-56.8   c15.8-21.5,36.5-38,58.2-53.1c87-60.6,182.7-105.1,278.4-149.7c4.2-1.9,12.3-0.1,12-8.9c-106.5,29.6-253.9,103.2-343,171   c-7.7,5.8-15.6,12-24.4,15.4c-12.1,4.9-19-0.7-17.1-13.9c1-6.8,3.7-13.6,6.5-20c37.8-85.4,82.2-167.3,135.5-244.1   c38.4-55.4,80.7-107.7,125.2-158.4c-119.8,98.4-222.7,211.1-299.6,346.5c-10.8,19.1-23.1,37.3-35.1,55.7   c-3.4,5.2-8.6,10.1-15.3,8.3c-8.6-2.4-8.9-10.9-7.8-17.5c3.5-22.5,6.7-45.3,12.3-67.3c13.6-52.5,28.5-104.7,43-157   c-13.2,21.1-23,43.8-37.7,63.6c-32.2,43.4-62.9,40.5-86.2-8.4c-2.3-4.8-4.2-9.7-6.1-14.6c-20.2-52-29.1-106.7-36.6-161.5   c-15.7-115.9-25.7-232.2-27-349.3c-0.1-11.9-2.6-23.7-4-35.5c-9.1,165.6-4.5,330.4,21.5,494.6c-45.1-90.5-80-184-110.1-279.3   c-30.4-96.4-57.1-193.8-80-292.3c-22.4-96.5-42.5-193.5-60.1-290.9c-0.7,6.3-0.8,12.5-0.1,18.6c24.4,190.2,59.1,378.5,115.6,562   c63.3,205.7,140.7,405.2,260.4,585.9c14.6,22.1,25.2,46.3,31.9,72.1c16,61.9-5.4,113.6-59.3,143.6c-54,30.1-108.8,20.6-152.7-26.7   c-15.6-16.9-28.9-35.6-38.4-56.5c-58.4-128.2-106.8-260.1-145.7-395.5c-75-260.9-115.5-527.4-128.4-802.8   c-3.8,152.4,6.6,299.7,27.7,445.8c27.4,189.9,70.2,376.5,138.3,556.5c2.7,7.2,9.5,15.9,4.3,22.2c-6.3,7.6-16.4,2.3-24.7,0.1   C4915.8,1735.2,4847.5,1694.2,4779.9,1648.7z"></path>
	<path class="st1" d="M7047.7-490.7c-21.1,109.9,0.9,212,50.4,311.2c44.4,88.8,70.8,184.1,76.4,283.3   c8,142.6-38.7,259.4-170.8,330.5c-15.2,8.2-18.2,18.5-16.7,34.2c7.9,80.5,18.8,160.5,38.4,239.1c1.3,5.1,3.1,10-3.9,20   c-85.7-233.2-121.8-469.4-107.7-713.6c-8.2,37.4-10.3,75.5-14.3,113.5c-4.1,38.7-2.4,77.3-3.4,115.9c-1,39.6,1.6,79.1,5.5,118.5   c3.7,38.3,7.9,76.5,12.1,117.2c-18.5-3.3-27.4-16-37.5-25.6c-165.3-156.6-205.8-383.8-106.5-595.3   c60.4-128.7,150.9-234.5,253.5-331c6.4-6,12.9-11.9,19.4-17.9C7044.2-490.7,7045.9-490.7,7047.7-490.7z"></path>
	<path class="st1" d="M7676,1453.4c181.4,87.9,358.9,178.7,517.2,302.5c47.2,37,91.2,77.6,125.2,127.5c22.6,33.2,39.5,69,36.8,110.4   c-3.3,50.3-33.7,83.9-72.9,110.2c-50.4,33.8-91.3,75.3-123.5,127.5c-43.1,69.8-126.6,93.9-220.1,67.5   c-42.8-12.1-84.1-9.3-122.9,10.4c-137.3,69.4-237.5,6.3-290.7-113c-34.7-77.7-49.4-160.8-57-245.1c-8.8-98.9-11.2-197.9-5.7-297.2   c-15.3,68.8-24.1,138.4-19.9,208.6c6.6,109.6,3.2,217.7-33.5,322.7c-21.8,62.2-57.2,112.2-118.4,140.9   c-51,23.9-103.8,22.2-157.3,10.8c-22.3-4.7-44.8-12.2-67.1-12c-28.9,0.2-33.7-16.1-35.1-37.9c-4.5-69,2.3-136.8,23.1-202.9   c16.1-51.3,30.8-103.1,33.4-156.8c5.4-113-47.7-193.5-144.3-247c-68.9-38.2-144.3-54.2-222.4-58.9c-7.3-0.4-18.4,3.3-20.9-6   c-2.6-9.7,9.2-11.2,15.4-14.8c131.5-74.3,275.3-114.6,420.5-150.7c7.3-1.8,14.5-3.7,21.4-6.9c-83.7,10.7-166.5,25.9-246.4,53.8   c-83.4,29-168.1,51.5-257.2,51.2c-8.5,0-17.6,2.3-26.6-3.7c3.6-11.7,15.3-13.4,23.5-18.7c132.1-85.6,199.1-207.2,199.7-364.4   c0.1-45.1-13.7-88.5-25.9-131.6c-15.7-55.6-23.8-111.5-15.4-169.1c9-61.7,7.3-122.5-19.9-182.9c16.6-1.9,27.7,5.6,38.7,11.3   c98.4,51,177.1,126,251.5,206.4c50,54,96,111.5,143.5,168.1c-17.4-39-35.4-77.7-52.1-116.9c-39.1-92.1-67.6-187.4-69.2-287.9   c-2-123.7,32.7-240.7,182.5-315.1c42.7-21.2,83.2-45,120.5-75c89.6-72.2,223.1-63.8,314.7,18.6c38.2,34.4,71.1,73.4,94.7,119.2   c10.2,19.8,17.1,16.6,29.2,2.4c37.7-44.2,77-86.9,119.5-126.5c13.4-12.4,29.8-34.2,48.7-16.4c19.4,18.2-2.4,35.4-14,49.3   c-38.7,46.7-75.9,94.6-112.4,143c-12.8,17.1-8.5,24.2,9.3,29.3c3.4,1,6.8,1.7,10.2,2.8c88.4,28.5,128.3,98.1,107.4,189.1   c-18.8,81.9-65.3,149.2-116,213.8c-65.4,83.1-139.5,158.1-217.1,230.2c54.1-35.8,107.3-72.9,162.6-106.9   c125.3-77.1,252.9-149.3,397.3-185.9c38.5-9.7,77.4-15,117.3-14.2c86.8,1.7,152.9,47,178.3,130.1c13.8,45.3,35.4,83,69.3,115.8   c29.3,28.2,50.2,63.2,66.4,100.8c38.4,89.2,22.1,173.1-48,241.4c-36.6,35.6-63.6,75.6-77.5,126.1   c-22.2,80.5-100.8,137.5-189.2,144.7c-117.5,9.7-223.8-28.1-327.3-76.2c-94-43.7-184.4-95.4-284-126.4   C7721.5,1465.6,7698.6,1459.8,7676,1453.4z M7579.7,1128.7c15.2-82.3,43.4-160.1,74-237c30.7-77.3,65.8-152.7,101.1-228.1   c-12.6,19.2-23.7,39.2-34.2,59.4c-93.1,177.9-164.1,363.4-192.7,563.4c-4.6,32-3.4,65.1-15.7,95.9c-14.6,36.8-47.5,58.3-84.2,54.9   c-40.6-3.8-64.2-25.9-73.1-67.8c-4.7-22.4,0-43.7,5.3-65.1c45.4-185.9,120.7-359.5,216.6-524.7c15.5-26.7,31.7-52.9,47.6-79.3   c-5.2,0.7-7.9,3-9.8,5.8c-96.8,143.6-176.6,295.7-230.7,460.7c-2.3,7.2-0.9,18.4-10,20c-10,1.7-13.5-9.4-18.5-16.2   c-23.2-31.2-36.9-67.4-52.2-102.8c9.8,45.8,21.4,90.8,32.6,135.9c3.8,15.2,11.1,33.3-4.2,43.9c-15,10.4-27-5.9-39.4-13.1   c-3-1.8-5.5-4.4-8.4-6.4c-42.4-30.8-87-58.1-133-83.2c48.8,41.4,98.6,81.5,147.7,122.2c8,6.7,24.6,13,17.6,25   c-5.8,9.8-19.5-0.2-28.5-4.3c-54.6-24.5-110.5-45.7-167-65c-45.2-15.4-90.7-29.7-136-44.5c3.3,6.2,7.9,8.3,12.7,10.2   c98.6,40.1,194.3,86.6,287.7,137.7c8.1,4.4,20.2,8,17.2,20.1c-2.9,11.1-14.9,10.5-24.3,11.6c-6.1,0.8-12.3,0.5-18.5,0.4   c-62.8-1.1-125.5,0.6-187.2,6.7c66.8,2.1,134.5,3.3,201,17c17,3.5,39.2,6.5,42.5,25.9c3.4,20.1-19.4,24.4-33.2,32.3   c-52.3,29.8-103.4,61.3-152.6,96.1c11.6-4.1,22.1-10.1,32.7-15.6c44.5-22.9,87.9-48.4,136.7-61.7c8.4-2.3,17.9-6.4,24.1,2.9   c6.2,9.2-1.3,16.9-6.5,23.5c-18.5,23.5-37.8,46.3-56.3,69.8c-43.1,54.6-85.3,109.8-122.2,168.9c43.5-44.9,85.8-90.7,131.2-133.6   c33.2-31.4,66.9-62.4,100.5-93.3c5.6-5.2,12-11.8,20.8-7.7c9.1,4.2,7.3,13.7,6.4,21c-1.7,13.9-4.6,27.7-8.1,41.2   c-16.8,64.5-34,128.9-43.4,195.1c17-46.9,29.9-95.4,54.6-139.1c11.6-20.5,22.4-45.9,50.2-44.9c27.6,1,36.9,26.6,47.7,47.8   c22.5,44.3,30.9,93,43.8,145.9c1.1-37.2-6.5-67.8-14.1-98.1c-10.8-42.6-24.1-84.5-35.1-127c-6.5-25.2,5.6-35.6,29.8-26.9   c7.3,2.7,14.2,6.9,20.9,11c44.6,27,84.6,60.1,121.8,96.3c62.9,61.3,117.2,130,169.4,200.7c-7.1-15.9-15.1-31.3-24.3-45.8   c-69.8-109.5-160.4-199.9-260-281.9c-10-8.2-30.8-17.2-22.1-30.2c7.5-11.4,25.7,2.3,37.8,8.1c35.5,16.9,70.5,35.1,105.6,52.9   c-33.8-27.2-71-49.7-97.1-85c-19.5-26.4-11.2-45.9,21.2-48.4c27.1-2.1,54.5-2.6,81.6,2.3c43.1,7.7,86.3,15.2,129.4,22.8   c-65.1-22.8-131.5-38-200.7-38.8c-10.2-0.1-24.6,2.5-27.5-9.4c-3.2-12.8,11.8-15.5,20.5-20.1c88.5-46.7,181.8-79.2,280.6-96.3   c-30.6,1.6-61.1,4-91.5,7.7c-75.5,9.3-148,29.6-217.8,59.9c-8,3.5-20,11.6-26.3,1.3c-6-10,5.9-17.4,13-23.1   c29.1-23.6,58.8-46.4,92.9-73.1c-13.5,4.8-21.4,8.2-29.6,10.4c-35.8,9.5-50.9-5.1-42.1-40.9c5.9-24.1,15.9-46.5,27.4-68.3   c38.9-73.8,86.2-142.2,132.5-211.4C7677.5,973.5,7627,1049.7,7579.7,1128.7z"></path>
	<path class="st1" d="M6661.8,2931.5c50.4-2.3,99.1,7.3,147.2,20.5c130.4,35.9,251,95.8,373.2,151.8   c97.8,44.7,196.7,86.6,304.2,100.4c197.2,25.4,386.9,7,554.3-112.5c79.7-56.9,135.2-132.2,152.9-231.6   c27.3-152.5-96.2-309.9-251.4-326.1c-165.5-17.3-264.1,101.2-282,202.1c-15.2,85.9,5,157.7,93,195.3c2.2,0.9,3.8,3.2,6.2,5.1   c-31.7,4.1-81.9-23.7-106.2-60.4c-40.9-61.6-42.7-128.9-23.8-197.5c36.4-131.7,154.5-217.8,291.1-221.3   c184.5-4.8,392,146,373.5,399.7c-9.1,124.7-73.2,223.2-168.4,299.6c-116.4,93.6-252.4,138.1-401.1,149.8   c-206.8,16.2-393.9-40.2-571.4-141.6c-112.8-64.4-222.9-134.3-344.4-182.8C6760.7,2963,6711.7,2946.9,6661.8,2931.5z"></path>
	<path class="st1" d="M7415.7,2364c46.8,92.3,54.8,186.4,17.2,282.5c-46.8,119.4-138.7,187.2-258.7,220.6   c-138.5,38.5-276.6,27.7-414-7.1c-4-1-7.7-3.3-12-7.8c109.8-11.7,211.3-46.2,305.5-103.1c-42.9,8.1-85.3,18.4-128.3,25.5   c-58.2,9.6-116.9,13.1-175.5,17.9c-24.6,2-27.4-2.8-16.2-24.7c32-62.8,87.5-99.9,147.5-130.7c106.1-54.3,220.4-82.1,337.3-99.8   c69.7-10.6,131.7-31.7,169.2-97.1C7401.3,2416.6,7406.9,2390.2,7415.7,2364z"></path>
	<path class="st1" d="M3670.5,3506.7c17.5-10,31.1-17.5,44.4-25.4c57.5-34,105.4-78.2,144.2-132.9   c64.1-90.3,138.4-170.8,235.1-227.4c81.8-47.9,167.7-67.1,259.1-28.1c15.6,6.6,27.3,0,39.5-6.9c31.5-17.6,58.3-41.8,88.5-61.5   c-103.1,110.2-217.7,207-343.8,290.4c54.2-27.1,105-59.5,154-94.7c34.9-25.1,68.2-52.6,102.6-78.4c7.1-5.4,14.3-18.4,23.5-11.7   c8.4,6.2,0,18.3-2.8,26.9c-44.2,136.6-130.9,237-259.6,300.4c-133.1,65.6-275.1,72.6-419.6,61.2   C3715.6,3516.9,3695.1,3517,3670.5,3506.7z"></path>
	<path class="st1" d="M6246.6,3172.7c105.7,138.1,245.3,203.1,408.7,223.5c-123.9-27.8-236.8-77.6-330.3-165.8   c-93.8-88.5-150.4-196.8-175.8-326.5c13.5,5.1,13.3,14.7,16,21.9c50.1,132.5,141.3,216.1,282.5,245.3   c115.9,24,223.4,69.1,312.3,150.2c84.3,77,130.3,173,135.7,287.7c0.4,7.3,4,18.1-4.6,21.4c-9.7,3.7-11.8-8.3-16.2-13.9   c-43.9-55.6-100.2-85.2-171.5-89.8c-103.4-6.6-203.9-26-295-79.2c-85.8-50.1-141-122.6-161.5-220.4   C6243.6,3211.7,6241.9,3196.1,6246.6,3172.7z"></path>
	<path class="st1" d="M6359.6,3003.5c11.5-8.3,24.9-6.5,37.4-6.9c173.9-5.8,335,40.7,488.8,118.6   c151.9,76.9,290.7,174.7,431.5,269.3c175.5,117.9,369.2,177.2,579.1,188c185,9.5,362.4-18.7,528.2-105.4   c73.8-38.6,140.9-86,197.7-147.5c5.8-6.3,10.4-14.3,21.7-17.5c0.3,13.4-8.8,21.2-15,29.5c-100.6,134.2-234.2,221.5-392.8,270.6   c-282.4,87.5-557.3,61.6-823.5-62.9c-108.1-50.5-200.5-126.5-297.2-195c-129.2-91.5-257.3-184.6-402.9-249.2   c-107.6-47.8-219-80.8-337.6-85.5C6370,3009.4,6364.3,3010.6,6359.6,3003.5z"></path>
	<path class="st1" d="M8029.5,3424.3c-132.3,18.8-264.4,23.6-395.3-14c43.4,0.2,86.4-3.5,129.2-7.8   c244.9-24.3,458.8-109.9,612.7-312.6c52.2-68.7,87.8-145.9,115.1-227.3c2.8-8.2,5.4-16.5,8.1-24.7c2.4,0.9,5.1,1.3,5.1,2   c10.9,166.7-20,322.5-124.7,457.1c-81,104.2-191.8,159.5-318.7,186.3c-105.3,22.3-211.4,20.1-317.7,10.7   c-5.7-0.5-12.6,0.1-17.2-10.3C7830.8,3479.4,7932.5,3464.5,8029.5,3424.3z"></path>
	<path class="st1" d="M7112.1,2982.8c111.4,15.2,222.2,20.5,338.8,18.2c-38.4-14.5-73.4-21.8-108.6-27.8c-35.5-6-71.3-10-106.7-16.2   c-36-6.3-73.4-2.3-113.5-14.2c37.2-29.1,76.2-45.9,117.5-56.9c120.3-32,235.1-11.2,345.9,39.9c48.6,22.4,93.8,51.6,144.9,69.5   c64.3,22.6,130.9,32.3,199.5,39c-2.3,14.1-13.4,17.2-21.7,21.8c-102,56.5-211.4,77.3-327.5,71.4c-158.4-8-304.9-56.3-445.9-125.1   c-7-3.4-13.8-7.6-20.5-11.7C7113.2,2990.1,7113.3,2987.6,7112.1,2982.8z"></path>
	<path class="st1" d="M6648,378.5c-14.8-13.3-29.6-26.6-44.5-39.9c-81.6-73.1-176-90-282.4-71.7c-103.9,17.9-206.9,9.1-303.5-38.3   c-72-35.3-124.9-90-157.8-163.5c-2.2-4.8-4-9.8-5.2-14.9c-0.5-2.2,0.8-4.8,1.2-6.8c6.7-3.1,10.8,1.1,14.9,3.9   c52.4,34.6,108.2,37.1,166.5,18.1c87.1-28.3,175.8-43.4,266.9-24.3c76.6,16.1,137.7,56.3,177.8,124.9c5.5,9.3,13.8,18.3,10.7,34.8   c-51.8-31.6-106.2-52.1-164.5-61.2c-58.7-9.1-117.2-7.4-176,6C6362,129,6531.3,197.9,6648,378.5z"></path>
	<path class="st1" d="M4203.3,1592.5c-38.3-16.8-76.2-34.7-118.1-41c-63.2-9.5-124.7-4.9-181.8,26.5c-79.1,43.6-160.7,80-251.8,88.9   c-111.2,10.9-208.8-18.8-288.1-100.1c-4.7-4.8-11.3-8.8-10.6-16.9c3.2-5.1,7.6-3.7,11.7-2.8c61.5,12.8,116-0.8,165.6-40.1   c57.6-45.6,120.3-82.8,191.8-102.6c90.6-25.1,175.9-15.8,252.4,43.1c4.9,3.8,9.6,7.7,13.9,12.1c4.1,4.2,11.6,8.1,8.7,14.8   c-3.4,7.8-10.6,2.3-16.2,1.7c-39.3-4.6-78.1-8-118.1-3.2c-70.3,8.4-134.6,31.5-194.9,68.5c87.8-40.4,179.5-61.9,276.1-54.2   C4041.2,1494.9,4128.7,1528.3,4203.3,1592.5z"></path>
	<path class="st1" d="M5441.6,645.5c-20.1-38.1-28.8-79.5-31.6-122.3c-10.6-162.3,69.1-280.3,187.8-378.5   c35.8-29.6,74.2-55.7,114.8-77.5c8.2,7.2,2.7,12.8,0.3,17.6c-25.4,52.7-34,108.4-31.9,166.5c2.8,78.7-4.4,156.4-30.7,231.2   c-25.7,72.8-67.2,131.4-146.3,153.9c-13.2,3.8-20.5,13.1-24.4,25.5c-7.6,24.1-14.8,48.2-24.5,71.8c8.7-100.2,29.3-198.1,55.9-295.5   c-7.7,21.5-15.8,42.9-22.9,64.6c-7.6,23.4-14.7,47-21.3,70.7c-6.5,23.5-12.1,47.4-18.1,71C5446.4,644.9,5444,645.3,5441.6,645.5z"></path>
	<path class="st1" d="M6225.7-396c26.7-3.1,52.9,1.3,73.7,14.8c66.4,42.9,141.4,71,204.1,120c126.6,99.1,174.8,228.7,149.5,386.6   c-0.8,5.2-1.5,10.6-10.7,14.8c-29.8-79.4-63.5-156.8-112.4-226.6c21.3,39.8,40.4,80.5,57,122.4c10.1,25.4,18.2,51.4,23.4,78.1   c1.7,8.7,7.4,21-2.7,26.5c-8.2,4.5-15.8-5.3-22.6-10.3C6507.1,73,6447.3,0.7,6402-84.5c-28.3-53.2-41.3-112-65.8-166.5   C6310.8-307.6,6281.5-361.2,6225.7-396z"></path>
	<path class="st1" d="M7202.8,282.3c42.9-61,90.4-118.4,140-174.3c-40.8,34.7-75.4,75.5-113.3,119.2   c-9.5-170.1,236.9-372.9,449.7-377c3.4,6.9-2.7,9.2-6.3,12.2c-43.6,35.5-76.6,79.1-102.5,128.9c-33.8,65.1-75.4,124.9-129.8,174.6   c-46,42.1-97.8,71.6-163.1,67.6c-19.2-1.2-30.4,11.3-42.1,23.3c-9.5,9.7-18.5,19.8-27.8,29.8C7206,285.2,7204.4,283.8,7202.8,282.3   z"></path>
	<path class="st1" d="M4081.8,2990.6c-70,14.7-139.3,29.2-205,56.8c38-9.5,75.6-20.4,114.4-26c19.3-2.8,38.4-4.8,57.7-4   c9.2,0.4,22.7-5,26.5,4.7c4.5,11.3-9.3,17.4-16.6,24c-62.6,56.1-135.3,94.1-216,116.8c-32.1,9-65.1,13.6-98.2,18.2   c-72.2,10.1-143.8,23.1-201.6,85.5c8.6-41,25.4-69.1,49.3-92.6c22-21.6,41.3-45.3,60.6-69.3c76.5-95.5,172.8-154,298.9-149.9   C3997.1,2956.2,4041.5,2965.6,4081.8,2990.6z"></path>
	<path class="st1" d="M4091.9,1422.8c-45.1-60.2-92.6-117.7-150.3-165.8c34.2,36.3,68,72.9,95.6,114.6c11.9,18,35.5,44.2,25,56.5   c-13.5,15.8-39.4-6-58.3-14.7c-95.9-43.9-171.4-112-229.8-199.4c-27.4-41.1-57.9-79.4-97.1-110.3c-19.4-15.3-41.8-24.5-69-34.1   c20.9-10.1,38.7-12.7,55.3-8.3c73.7,19.5,150.5,27.5,221.1,57.4c126.8,53.6,196.8,150.9,213.5,287.1c0.4,3.4,0.2,7-0.4,10.4   C4097.4,1417.7,4095.6,1418.8,4091.9,1422.8z"></path>
	<path class="st1" d="M8058.8,792.3c37.5-34.5,78.4-59.9,114.3-92c-23.4,15.3-46.8,30.6-71.7,46.8   c9.1-122.9,266.9-241.4,418.3-194.9c-0.2,1.6,0.2,4.5-0.5,4.8c-73,30.5-116.7,97.1-176.7,143.6c-34.9,27.1-71.2,51.4-114.3,63.7   c-23.8,6.8-48.5,13.4-72.4,4.3c-27.3-10.3-49.2-3.5-70.8,13.1C8078.7,786.5,8072.4,793.7,8058.8,792.3z"></path>
	<path class="st1" d="M5318.5,303.1c3.4,32.2,7.2,64.4,10,96.7c0.7,8.2,3.9,19.8-5.3,24c-11,5-16.9-6.8-23-13.4   c-51.4-54.6-72-121.8-74.6-194.7c-2-56.1,1.5-112.5-10.8-167.8c-3.2-14.4-7.8-28.4-12.2-43.8c3.7-0.2,6.8-1.4,8.1-0.4   c81.1,63.6,147,138.2,173.4,241.2c14.4,56.3,5.1,109.6-19.8,161c-2.4,5.1-3.5,13.3-12,11.4c-6.1-1.5-5.4-8.2-6.6-13.2   c-8-34.1-16-68.1-24.1-102.2C5320.7,302.2,5319.6,302.7,5318.5,303.1z"></path>
	<path class="st1" d="M8722.7,1989.8c-61.3-38.8-130.9-50.3-198.3-68.7c-71.4-19.4-132.6-56-174.8-119c-5.2-7.7-15.3-16.6-9.3-25.6   c6.5-9.8,17.9-1.7,26.7,0.4c33.3,8.2,64.6,21.8,97.9,31.4c-31.4-15.9-62.8-31.7-94-47.7c-6-3.1-16-4.8-15.6-12.3   c0.6-10.3,12-8.7,19.1-9.9c62.9-11.1,122.5-3,177,32C8633.6,1823.2,8684.5,1900.8,8722.7,1989.8z"></path>
	<path class="st1" d="M4490.1,3235.8c10.3,85.3,51.2,154.5,106.5,216.4c29.3,32.8,62.2,62,96.9,89.2c3.9,3,10.3,5.4,9.2,11.6   c-1.2,6.9-8,5.8-12.9,5.8c-48.3,0.7-96.5,3.1-144-10c-106.6-29.5-152.4-101.7-131.3-210.5c5.8-29.8,12.6-59.7,30.6-94.6   c11,54.3,7.1,104.2,30.2,154.6C4470,3339.6,4462.3,3286,4490.1,3235.8z"></path>
	<path class="st1" d="M4791.3,283.8c-25.4-0.4-46.2-22-46.1-47.7c0.1-25.8,23.7-48.1,49.8-47c25.2,1.1,44.9,23.1,44.2,49.3   C4838.5,264.7,4817.8,284.2,4791.3,283.8z"></path>
	<path class="st1" d="M5056.4,250.5c0,25.7-20.8,46.4-46.7,46.8c-25.1,0.4-47.3-20.9-47.9-45.8c-0.7-26.5,21.2-48.2,48.2-48   C5035.4,203.5,5056.5,224.9,5056.4,250.5z"></path>
	<path class="st1" d="M4819.8,72.6c-24.7,0.3-47.4-21.6-47.9-46.2c-0.5-25.3,23.2-48.9,48.6-48.5c24.3,0.4,45.1,20.8,46,45.1   C4867.6,50,4846.6,72.2,4819.8,72.6z"></path>
	<path class="st1" d="M4966.4,35.5c0.4-26.4,21.8-47.7,46.9-46.8c25.5,0.9,46.7,23.1,46.1,48.4c-0.6,25.7-22.3,46.9-47.8,46.8   C4986.2,83.6,4965.9,62,4966.4,35.5z"></path>
	<path class="st1" d="M4803.9,176.1c-27.1,0.1-47.9-19.9-47.6-45.6c0.3-24.8,22.6-47.1,47.5-47.3c25.2-0.2,47,21.3,47.6,46.9   C4852,154.9,4830.1,176,4803.9,176.1z"></path>
	<path class="st1" d="M5010.6,191.9c-25.6-0.1-47.5-21.5-47.6-46.5c-0.1-24.7,22.3-46.6,47.7-46.6c25.1,0,47.7,22.2,47.7,46.7   C5058.4,169.9,5035.8,191.9,5010.6,191.9z"></path>
	<path class="st1" d="M4917.4-96.3c25,0.1,46.9,22.1,46.9,47.2c0,26.1-20.3,45.7-47.3,45.9c-27.4,0.2-45.9-18.7-45.6-46.5   C4871.5-77.2,4890.5-96.4,4917.4-96.3z"></path>
	<path class="st1" d="M8083.8,309.4c-0.6,20.1-11.1,31.4-28.9,32.2c-19.2,0.9-31.6-10.3-31.9-30.3c-0.3-18.5,10.9-30.3,28.6-31.1   C8070.8,279.3,8081.7,291.3,8083.8,309.4z"></path>
	<path class="st1" d="M7998.5,416.8c-2.8,18.7-11.3,31.9-29.7,32.6c-19.1,0.8-32.3-10.2-32.6-29.8c-0.3-19.2,10.9-30.9,31.1-30.9   C7986.6,388.6,7994.1,401.7,7998.5,416.8z"></path>
	<path class="st1" d="M7979.1,367.6c1.2-20.5,10.8-32.1,31.1-31.6c18.7,0.5,29.6,12,29.8,29.7c0.1,19.1-11.9,31.5-31.3,30.9   C7991.2,396.1,7980.2,385.4,7979.1,367.6z"></path>
	<path class="st1" d="M7861,356.1c-18.2-1.4-28.7-11.1-28.4-30.3c0.3-18.9,11-29.4,29.2-30.9c16.8-1.3,32.9,15.6,31,32.2   C7890.9,345.1,7880.8,355.9,7861,356.1z"></path>
	<path class="st1" d="M8037.7,260.5c-18.3-2.8-30.8-13-29.6-32.5c1.1-17.7,12.9-28.6,31.2-28.5c20.2,0.2,29.9,12.4,29.3,32   C8068,250.5,8056.4,259.2,8037.7,260.5z"></path>
	<path class="st1" d="M7959,198.7c20.3,2,31,11.7,30.7,30.9c-0.4,19-11.7,29.7-29.9,30c-18.3,0.2-30.6-11.2-30.9-29.3   C7928.5,210.8,7941.3,200.5,7959,198.7z"></path>
	<path class="st1" d="M7879.7,277.1c1.1-19.2,10.5-30.1,29.6-30.5c19-0.4,29.4,10.2,31.4,28.4c1.8,16.7-14.1,33.4-30.8,32.1   C7891.6,305.7,7881.4,295,7879.7,277.1z"></path>
</g>
</svg>
